%TF.GenerationSoftware,KiCad,Pcbnew,10.0.1-1-gbb48a3fe96*%
%TF.CreationDate,2026-08-02T19:48:24+08:00*%
%TF.ProjectId,HPM5361___,48504d35-3336-4313-9ba7-7f2e6b696361,rev?*%
%TF.SameCoordinates,Original*%
%TF.FileFunction,Legend,Bot*%
%TF.FilePolarity,Positive*%
%FSLAX46Y46*%
G04 Gerber Fmt 4.6, Leading zero omitted, Abs format (unit mm)*
G04 Created by KiCad (PCBNEW 10.0.1-1-gbb48a3fe96) date 2026-08-02 19:48:24*
%MOMM*%
%LPD*%
G01*
G04 APERTURE LIST*
%ADD10C,0.101600*%
%ADD11C,0.076200*%
%ADD12C,0.150000*%
%ADD13C,0.120000*%
G04 APERTURE END LIST*
D10*
X178905950Y-95832642D02*
X178615664Y-95832642D01*
X178760807Y-96340642D02*
X178760807Y-95832642D01*
X178494711Y-95832642D02*
X178156044Y-96340642D01*
X178156044Y-95832642D02*
X178494711Y-96340642D01*
X177962520Y-96340642D02*
X177962520Y-95832642D01*
X177962520Y-95832642D02*
X177841568Y-95832642D01*
X177841568Y-95832642D02*
X177768996Y-95856832D01*
X177768996Y-95856832D02*
X177720615Y-95905213D01*
X177720615Y-95905213D02*
X177696425Y-95953594D01*
X177696425Y-95953594D02*
X177672234Y-96050356D01*
X177672234Y-96050356D02*
X177672234Y-96122928D01*
X177672234Y-96122928D02*
X177696425Y-96219690D01*
X177696425Y-96219690D02*
X177720615Y-96268071D01*
X177720615Y-96268071D02*
X177768996Y-96316452D01*
X177768996Y-96316452D02*
X177841568Y-96340642D01*
X177841568Y-96340642D02*
X177962520Y-96340642D01*
X181430623Y-95832642D02*
X181140337Y-95832642D01*
X181285480Y-96340642D02*
X181285480Y-95832642D01*
X180971003Y-96340642D02*
X180971003Y-95832642D01*
X180971003Y-95832642D02*
X180850051Y-95832642D01*
X180850051Y-95832642D02*
X180777479Y-95856832D01*
X180777479Y-95856832D02*
X180729098Y-95905213D01*
X180729098Y-95905213D02*
X180704908Y-95953594D01*
X180704908Y-95953594D02*
X180680717Y-96050356D01*
X180680717Y-96050356D02*
X180680717Y-96122928D01*
X180680717Y-96122928D02*
X180704908Y-96219690D01*
X180704908Y-96219690D02*
X180729098Y-96268071D01*
X180729098Y-96268071D02*
X180777479Y-96316452D01*
X180777479Y-96316452D02*
X180850051Y-96340642D01*
X180850051Y-96340642D02*
X180971003Y-96340642D01*
X180366241Y-95832642D02*
X180269479Y-95832642D01*
X180269479Y-95832642D02*
X180221098Y-95856832D01*
X180221098Y-95856832D02*
X180172717Y-95905213D01*
X180172717Y-95905213D02*
X180148527Y-96001975D01*
X180148527Y-96001975D02*
X180148527Y-96171309D01*
X180148527Y-96171309D02*
X180172717Y-96268071D01*
X180172717Y-96268071D02*
X180221098Y-96316452D01*
X180221098Y-96316452D02*
X180269479Y-96340642D01*
X180269479Y-96340642D02*
X180366241Y-96340642D01*
X180366241Y-96340642D02*
X180414622Y-96316452D01*
X180414622Y-96316452D02*
X180463003Y-96268071D01*
X180463003Y-96268071D02*
X180487194Y-96171309D01*
X180487194Y-96171309D02*
X180487194Y-96001975D01*
X180487194Y-96001975D02*
X180463003Y-95905213D01*
X180463003Y-95905213D02*
X180414622Y-95856832D01*
X180414622Y-95856832D02*
X180366241Y-95832642D01*
X178543092Y-97574388D02*
X178712426Y-97332483D01*
X178833378Y-97574388D02*
X178833378Y-97066388D01*
X178833378Y-97066388D02*
X178639854Y-97066388D01*
X178639854Y-97066388D02*
X178591473Y-97090578D01*
X178591473Y-97090578D02*
X178567283Y-97114769D01*
X178567283Y-97114769D02*
X178543092Y-97163150D01*
X178543092Y-97163150D02*
X178543092Y-97235721D01*
X178543092Y-97235721D02*
X178567283Y-97284102D01*
X178567283Y-97284102D02*
X178591473Y-97308293D01*
X178591473Y-97308293D02*
X178639854Y-97332483D01*
X178639854Y-97332483D02*
X178833378Y-97332483D01*
X178373759Y-97066388D02*
X178035092Y-97574388D01*
X178035092Y-97066388D02*
X178373759Y-97574388D01*
X177841568Y-97574388D02*
X177841568Y-97066388D01*
X177841568Y-97066388D02*
X177720616Y-97066388D01*
X177720616Y-97066388D02*
X177648044Y-97090578D01*
X177648044Y-97090578D02*
X177599663Y-97138959D01*
X177599663Y-97138959D02*
X177575473Y-97187340D01*
X177575473Y-97187340D02*
X177551282Y-97284102D01*
X177551282Y-97284102D02*
X177551282Y-97356674D01*
X177551282Y-97356674D02*
X177575473Y-97453436D01*
X177575473Y-97453436D02*
X177599663Y-97501817D01*
X177599663Y-97501817D02*
X177648044Y-97550198D01*
X177648044Y-97550198D02*
X177720616Y-97574388D01*
X177720616Y-97574388D02*
X177841568Y-97574388D01*
X181067765Y-97574388D02*
X181237099Y-97332483D01*
X181358051Y-97574388D02*
X181358051Y-97066388D01*
X181358051Y-97066388D02*
X181164527Y-97066388D01*
X181164527Y-97066388D02*
X181116146Y-97090578D01*
X181116146Y-97090578D02*
X181091956Y-97114769D01*
X181091956Y-97114769D02*
X181067765Y-97163150D01*
X181067765Y-97163150D02*
X181067765Y-97235721D01*
X181067765Y-97235721D02*
X181091956Y-97284102D01*
X181091956Y-97284102D02*
X181116146Y-97308293D01*
X181116146Y-97308293D02*
X181164527Y-97332483D01*
X181164527Y-97332483D02*
X181358051Y-97332483D01*
X180874242Y-97550198D02*
X180801670Y-97574388D01*
X180801670Y-97574388D02*
X180680718Y-97574388D01*
X180680718Y-97574388D02*
X180632337Y-97550198D01*
X180632337Y-97550198D02*
X180608146Y-97526007D01*
X180608146Y-97526007D02*
X180583956Y-97477626D01*
X180583956Y-97477626D02*
X180583956Y-97429245D01*
X180583956Y-97429245D02*
X180608146Y-97380864D01*
X180608146Y-97380864D02*
X180632337Y-97356674D01*
X180632337Y-97356674D02*
X180680718Y-97332483D01*
X180680718Y-97332483D02*
X180777480Y-97308293D01*
X180777480Y-97308293D02*
X180825861Y-97284102D01*
X180825861Y-97284102D02*
X180850051Y-97259912D01*
X180850051Y-97259912D02*
X180874242Y-97211531D01*
X180874242Y-97211531D02*
X180874242Y-97163150D01*
X180874242Y-97163150D02*
X180850051Y-97114769D01*
X180850051Y-97114769D02*
X180825861Y-97090578D01*
X180825861Y-97090578D02*
X180777480Y-97066388D01*
X180777480Y-97066388D02*
X180656527Y-97066388D01*
X180656527Y-97066388D02*
X180583956Y-97090578D01*
X180438813Y-97066388D02*
X180148527Y-97066388D01*
X180293670Y-97574388D02*
X180293670Y-97066388D01*
X178881759Y-98401493D02*
X178567283Y-98401493D01*
X178567283Y-98401493D02*
X178736616Y-98595017D01*
X178736616Y-98595017D02*
X178664045Y-98595017D01*
X178664045Y-98595017D02*
X178615664Y-98619207D01*
X178615664Y-98619207D02*
X178591473Y-98643398D01*
X178591473Y-98643398D02*
X178567283Y-98691779D01*
X178567283Y-98691779D02*
X178567283Y-98812731D01*
X178567283Y-98812731D02*
X178591473Y-98861112D01*
X178591473Y-98861112D02*
X178615664Y-98885303D01*
X178615664Y-98885303D02*
X178664045Y-98909493D01*
X178664045Y-98909493D02*
X178809188Y-98909493D01*
X178809188Y-98909493D02*
X178857569Y-98885303D01*
X178857569Y-98885303D02*
X178881759Y-98861112D01*
X178349568Y-98861112D02*
X178325378Y-98885303D01*
X178325378Y-98885303D02*
X178349568Y-98909493D01*
X178349568Y-98909493D02*
X178373759Y-98885303D01*
X178373759Y-98885303D02*
X178349568Y-98861112D01*
X178349568Y-98861112D02*
X178349568Y-98909493D01*
X178156044Y-98401493D02*
X177841568Y-98401493D01*
X177841568Y-98401493D02*
X178010901Y-98595017D01*
X178010901Y-98595017D02*
X177938330Y-98595017D01*
X177938330Y-98595017D02*
X177889949Y-98619207D01*
X177889949Y-98619207D02*
X177865758Y-98643398D01*
X177865758Y-98643398D02*
X177841568Y-98691779D01*
X177841568Y-98691779D02*
X177841568Y-98812731D01*
X177841568Y-98812731D02*
X177865758Y-98861112D01*
X177865758Y-98861112D02*
X177889949Y-98885303D01*
X177889949Y-98885303D02*
X177938330Y-98909493D01*
X177938330Y-98909493D02*
X178083473Y-98909493D01*
X178083473Y-98909493D02*
X178131854Y-98885303D01*
X178131854Y-98885303D02*
X178156044Y-98861112D01*
X177696425Y-98401493D02*
X177527091Y-98909493D01*
X177527091Y-98909493D02*
X177357758Y-98401493D01*
X181430623Y-98401493D02*
X181140337Y-98401493D01*
X181285480Y-98909493D02*
X181285480Y-98401493D01*
X180680717Y-98861112D02*
X180704908Y-98885303D01*
X180704908Y-98885303D02*
X180777479Y-98909493D01*
X180777479Y-98909493D02*
X180825860Y-98909493D01*
X180825860Y-98909493D02*
X180898432Y-98885303D01*
X180898432Y-98885303D02*
X180946813Y-98836922D01*
X180946813Y-98836922D02*
X180971003Y-98788541D01*
X180971003Y-98788541D02*
X180995194Y-98691779D01*
X180995194Y-98691779D02*
X180995194Y-98619207D01*
X180995194Y-98619207D02*
X180971003Y-98522445D01*
X180971003Y-98522445D02*
X180946813Y-98474064D01*
X180946813Y-98474064D02*
X180898432Y-98425683D01*
X180898432Y-98425683D02*
X180825860Y-98401493D01*
X180825860Y-98401493D02*
X180777479Y-98401493D01*
X180777479Y-98401493D02*
X180704908Y-98425683D01*
X180704908Y-98425683D02*
X180680717Y-98449874D01*
X180463003Y-98909493D02*
X180463003Y-98401493D01*
X180172717Y-98909493D02*
X180390432Y-98619207D01*
X180172717Y-98401493D02*
X180463003Y-98691779D01*
X178567283Y-99840893D02*
X178615664Y-99816703D01*
X178615664Y-99816703D02*
X178688235Y-99816703D01*
X178688235Y-99816703D02*
X178760807Y-99840893D01*
X178760807Y-99840893D02*
X178809188Y-99889274D01*
X178809188Y-99889274D02*
X178833378Y-99937655D01*
X178833378Y-99937655D02*
X178857569Y-100034417D01*
X178857569Y-100034417D02*
X178857569Y-100106989D01*
X178857569Y-100106989D02*
X178833378Y-100203751D01*
X178833378Y-100203751D02*
X178809188Y-100252132D01*
X178809188Y-100252132D02*
X178760807Y-100300513D01*
X178760807Y-100300513D02*
X178688235Y-100324703D01*
X178688235Y-100324703D02*
X178639854Y-100324703D01*
X178639854Y-100324703D02*
X178567283Y-100300513D01*
X178567283Y-100300513D02*
X178543092Y-100276322D01*
X178543092Y-100276322D02*
X178543092Y-100106989D01*
X178543092Y-100106989D02*
X178639854Y-100106989D01*
X178325378Y-100324703D02*
X178325378Y-99816703D01*
X178325378Y-99816703D02*
X178035092Y-100324703D01*
X178035092Y-100324703D02*
X178035092Y-99816703D01*
X177793188Y-100324703D02*
X177793188Y-99816703D01*
X177793188Y-99816703D02*
X177672236Y-99816703D01*
X177672236Y-99816703D02*
X177599664Y-99840893D01*
X177599664Y-99840893D02*
X177551283Y-99889274D01*
X177551283Y-99889274D02*
X177527093Y-99937655D01*
X177527093Y-99937655D02*
X177502902Y-100034417D01*
X177502902Y-100034417D02*
X177502902Y-100106989D01*
X177502902Y-100106989D02*
X177527093Y-100203751D01*
X177527093Y-100203751D02*
X177551283Y-100252132D01*
X177551283Y-100252132D02*
X177599664Y-100300513D01*
X177599664Y-100300513D02*
X177672236Y-100324703D01*
X177672236Y-100324703D02*
X177793188Y-100324703D01*
X181067765Y-100324703D02*
X181237099Y-100082798D01*
X181358051Y-100324703D02*
X181358051Y-99816703D01*
X181358051Y-99816703D02*
X181164527Y-99816703D01*
X181164527Y-99816703D02*
X181116146Y-99840893D01*
X181116146Y-99840893D02*
X181091956Y-99865084D01*
X181091956Y-99865084D02*
X181067765Y-99913465D01*
X181067765Y-99913465D02*
X181067765Y-99986036D01*
X181067765Y-99986036D02*
X181091956Y-100034417D01*
X181091956Y-100034417D02*
X181116146Y-100058608D01*
X181116146Y-100058608D02*
X181164527Y-100082798D01*
X181164527Y-100082798D02*
X181358051Y-100082798D01*
X180874242Y-100300513D02*
X180801670Y-100324703D01*
X180801670Y-100324703D02*
X180680718Y-100324703D01*
X180680718Y-100324703D02*
X180632337Y-100300513D01*
X180632337Y-100300513D02*
X180608146Y-100276322D01*
X180608146Y-100276322D02*
X180583956Y-100227941D01*
X180583956Y-100227941D02*
X180583956Y-100179560D01*
X180583956Y-100179560D02*
X180608146Y-100131179D01*
X180608146Y-100131179D02*
X180632337Y-100106989D01*
X180632337Y-100106989D02*
X180680718Y-100082798D01*
X180680718Y-100082798D02*
X180777480Y-100058608D01*
X180777480Y-100058608D02*
X180825861Y-100034417D01*
X180825861Y-100034417D02*
X180850051Y-100010227D01*
X180850051Y-100010227D02*
X180874242Y-99961846D01*
X180874242Y-99961846D02*
X180874242Y-99913465D01*
X180874242Y-99913465D02*
X180850051Y-99865084D01*
X180850051Y-99865084D02*
X180825861Y-99840893D01*
X180825861Y-99840893D02*
X180777480Y-99816703D01*
X180777480Y-99816703D02*
X180656527Y-99816703D01*
X180656527Y-99816703D02*
X180583956Y-99840893D01*
X180438813Y-99816703D02*
X180148527Y-99816703D01*
X180293670Y-100324703D02*
X180293670Y-99816703D01*
X178591473Y-101092123D02*
X178833378Y-101092123D01*
X178833378Y-101092123D02*
X178857569Y-101334028D01*
X178857569Y-101334028D02*
X178833378Y-101309837D01*
X178833378Y-101309837D02*
X178784997Y-101285647D01*
X178784997Y-101285647D02*
X178664045Y-101285647D01*
X178664045Y-101285647D02*
X178615664Y-101309837D01*
X178615664Y-101309837D02*
X178591473Y-101334028D01*
X178591473Y-101334028D02*
X178567283Y-101382409D01*
X178567283Y-101382409D02*
X178567283Y-101503361D01*
X178567283Y-101503361D02*
X178591473Y-101551742D01*
X178591473Y-101551742D02*
X178615664Y-101575933D01*
X178615664Y-101575933D02*
X178664045Y-101600123D01*
X178664045Y-101600123D02*
X178784997Y-101600123D01*
X178784997Y-101600123D02*
X178833378Y-101575933D01*
X178833378Y-101575933D02*
X178857569Y-101551742D01*
X178422140Y-101092123D02*
X178252806Y-101600123D01*
X178252806Y-101600123D02*
X178083473Y-101092123D01*
X181430623Y-101092123D02*
X181140337Y-101092123D01*
X181285480Y-101600123D02*
X181285480Y-101092123D01*
X180971003Y-101600123D02*
X180971003Y-101092123D01*
X180971003Y-101092123D02*
X180850051Y-101092123D01*
X180850051Y-101092123D02*
X180777479Y-101116313D01*
X180777479Y-101116313D02*
X180729098Y-101164694D01*
X180729098Y-101164694D02*
X180704908Y-101213075D01*
X180704908Y-101213075D02*
X180680717Y-101309837D01*
X180680717Y-101309837D02*
X180680717Y-101382409D01*
X180680717Y-101382409D02*
X180704908Y-101479171D01*
X180704908Y-101479171D02*
X180729098Y-101527552D01*
X180729098Y-101527552D02*
X180777479Y-101575933D01*
X180777479Y-101575933D02*
X180850051Y-101600123D01*
X180850051Y-101600123D02*
X180971003Y-101600123D01*
X180463003Y-101600123D02*
X180463003Y-101092123D01*
D11*
X179529173Y-95467205D02*
X179529173Y-96754627D01*
X179529173Y-96754627D02*
X179529173Y-97934697D01*
X179529173Y-97934697D02*
X179529173Y-99424837D01*
X179529173Y-99424837D02*
X179529173Y-100765117D01*
X179529173Y-100765117D02*
X179529173Y-101975677D01*
X179529173Y-96754627D02*
X177069452Y-96754627D01*
X182053846Y-96754627D02*
X179529173Y-96754627D01*
X179529173Y-97934697D02*
X177069452Y-97934697D01*
X182053846Y-97934697D02*
X179529173Y-97934697D01*
X179529173Y-99424837D02*
X177069452Y-99424837D01*
X182053846Y-99424837D02*
X179529173Y-99424837D01*
X179529173Y-100765117D02*
X177069452Y-100765117D01*
X182053846Y-100765117D02*
X179529173Y-100765117D01*
X177069452Y-95467205D02*
X182053846Y-95467205D01*
X182053846Y-95467205D02*
X182053846Y-101975677D01*
X182053846Y-101975677D02*
X177069452Y-101975677D01*
X177069452Y-101975677D02*
X177069452Y-95467205D01*
D12*
X189957133Y-116785555D02*
X190433323Y-116785555D01*
X190433323Y-116785555D02*
X190433323Y-115785555D01*
X189195228Y-115785555D02*
X189385704Y-115785555D01*
X189385704Y-115785555D02*
X189480942Y-115833174D01*
X189480942Y-115833174D02*
X189528561Y-115880793D01*
X189528561Y-115880793D02*
X189623799Y-116023650D01*
X189623799Y-116023650D02*
X189671418Y-116214126D01*
X189671418Y-116214126D02*
X189671418Y-116595078D01*
X189671418Y-116595078D02*
X189623799Y-116690316D01*
X189623799Y-116690316D02*
X189576180Y-116737936D01*
X189576180Y-116737936D02*
X189480942Y-116785555D01*
X189480942Y-116785555D02*
X189290466Y-116785555D01*
X189290466Y-116785555D02*
X189195228Y-116737936D01*
X189195228Y-116737936D02*
X189147609Y-116690316D01*
X189147609Y-116690316D02*
X189099990Y-116595078D01*
X189099990Y-116595078D02*
X189099990Y-116356983D01*
X189099990Y-116356983D02*
X189147609Y-116261745D01*
X189147609Y-116261745D02*
X189195228Y-116214126D01*
X189195228Y-116214126D02*
X189290466Y-116166507D01*
X189290466Y-116166507D02*
X189480942Y-116166507D01*
X189480942Y-116166507D02*
X189576180Y-116214126D01*
X189576180Y-116214126D02*
X189623799Y-116261745D01*
X189623799Y-116261745D02*
X189671418Y-116356983D01*
X211241027Y-89932939D02*
X211241027Y-89456749D01*
X211241027Y-89456749D02*
X210241027Y-89456749D01*
X210574360Y-90694844D02*
X211241027Y-90694844D01*
X210193408Y-90456749D02*
X210907693Y-90218654D01*
X210907693Y-90218654D02*
X210907693Y-90837701D01*
X175068405Y-110063923D02*
X175301738Y-109730590D01*
X175468405Y-110063923D02*
X175468405Y-109363923D01*
X175468405Y-109363923D02*
X175201738Y-109363923D01*
X175201738Y-109363923D02*
X175135072Y-109397256D01*
X175135072Y-109397256D02*
X175101738Y-109430590D01*
X175101738Y-109430590D02*
X175068405Y-109497256D01*
X175068405Y-109497256D02*
X175068405Y-109597256D01*
X175068405Y-109597256D02*
X175101738Y-109663923D01*
X175101738Y-109663923D02*
X175135072Y-109697256D01*
X175135072Y-109697256D02*
X175201738Y-109730590D01*
X175201738Y-109730590D02*
X175468405Y-109730590D01*
X174401738Y-110063923D02*
X174801738Y-110063923D01*
X174601738Y-110063923D02*
X174601738Y-109363923D01*
X174601738Y-109363923D02*
X174668405Y-109463923D01*
X174668405Y-109463923D02*
X174735072Y-109530590D01*
X174735072Y-109530590D02*
X174801738Y-109563923D01*
X173768405Y-109363923D02*
X174101738Y-109363923D01*
X174101738Y-109363923D02*
X174135071Y-109697256D01*
X174135071Y-109697256D02*
X174101738Y-109663923D01*
X174101738Y-109663923D02*
X174035071Y-109630590D01*
X174035071Y-109630590D02*
X173868405Y-109630590D01*
X173868405Y-109630590D02*
X173801738Y-109663923D01*
X173801738Y-109663923D02*
X173768405Y-109697256D01*
X173768405Y-109697256D02*
X173735071Y-109763923D01*
X173735071Y-109763923D02*
X173735071Y-109930590D01*
X173735071Y-109930590D02*
X173768405Y-109997256D01*
X173768405Y-109997256D02*
X173801738Y-110030590D01*
X173801738Y-110030590D02*
X173868405Y-110063923D01*
X173868405Y-110063923D02*
X174035071Y-110063923D01*
X174035071Y-110063923D02*
X174101738Y-110030590D01*
X174101738Y-110030590D02*
X174135071Y-109997256D01*
X172525397Y-116754777D02*
X172558731Y-116721444D01*
X172558731Y-116721444D02*
X172592064Y-116621444D01*
X172592064Y-116621444D02*
X172592064Y-116554777D01*
X172592064Y-116554777D02*
X172558731Y-116454777D01*
X172558731Y-116454777D02*
X172492064Y-116388111D01*
X172492064Y-116388111D02*
X172425397Y-116354777D01*
X172425397Y-116354777D02*
X172292064Y-116321444D01*
X172292064Y-116321444D02*
X172192064Y-116321444D01*
X172192064Y-116321444D02*
X172058731Y-116354777D01*
X172058731Y-116354777D02*
X171992064Y-116388111D01*
X171992064Y-116388111D02*
X171925397Y-116454777D01*
X171925397Y-116454777D02*
X171892064Y-116554777D01*
X171892064Y-116554777D02*
X171892064Y-116621444D01*
X171892064Y-116621444D02*
X171925397Y-116721444D01*
X171925397Y-116721444D02*
X171958731Y-116754777D01*
X171892064Y-117354777D02*
X171892064Y-117221444D01*
X171892064Y-117221444D02*
X171925397Y-117154777D01*
X171925397Y-117154777D02*
X171958731Y-117121444D01*
X171958731Y-117121444D02*
X172058731Y-117054777D01*
X172058731Y-117054777D02*
X172192064Y-117021444D01*
X172192064Y-117021444D02*
X172458731Y-117021444D01*
X172458731Y-117021444D02*
X172525397Y-117054777D01*
X172525397Y-117054777D02*
X172558731Y-117088111D01*
X172558731Y-117088111D02*
X172592064Y-117154777D01*
X172592064Y-117154777D02*
X172592064Y-117288111D01*
X172592064Y-117288111D02*
X172558731Y-117354777D01*
X172558731Y-117354777D02*
X172525397Y-117388111D01*
X172525397Y-117388111D02*
X172458731Y-117421444D01*
X172458731Y-117421444D02*
X172292064Y-117421444D01*
X172292064Y-117421444D02*
X172225397Y-117388111D01*
X172225397Y-117388111D02*
X172192064Y-117354777D01*
X172192064Y-117354777D02*
X172158731Y-117288111D01*
X172158731Y-117288111D02*
X172158731Y-117154777D01*
X172158731Y-117154777D02*
X172192064Y-117088111D01*
X172192064Y-117088111D02*
X172225397Y-117054777D01*
X172225397Y-117054777D02*
X172292064Y-117021444D01*
X171892064Y-118021444D02*
X171892064Y-117888111D01*
X171892064Y-117888111D02*
X171925397Y-117821444D01*
X171925397Y-117821444D02*
X171958731Y-117788111D01*
X171958731Y-117788111D02*
X172058731Y-117721444D01*
X172058731Y-117721444D02*
X172192064Y-117688111D01*
X172192064Y-117688111D02*
X172458731Y-117688111D01*
X172458731Y-117688111D02*
X172525397Y-117721444D01*
X172525397Y-117721444D02*
X172558731Y-117754778D01*
X172558731Y-117754778D02*
X172592064Y-117821444D01*
X172592064Y-117821444D02*
X172592064Y-117954778D01*
X172592064Y-117954778D02*
X172558731Y-118021444D01*
X172558731Y-118021444D02*
X172525397Y-118054778D01*
X172525397Y-118054778D02*
X172458731Y-118088111D01*
X172458731Y-118088111D02*
X172292064Y-118088111D01*
X172292064Y-118088111D02*
X172225397Y-118054778D01*
X172225397Y-118054778D02*
X172192064Y-118021444D01*
X172192064Y-118021444D02*
X172158731Y-117954778D01*
X172158731Y-117954778D02*
X172158731Y-117821444D01*
X172158731Y-117821444D02*
X172192064Y-117754778D01*
X172192064Y-117754778D02*
X172225397Y-117721444D01*
X172225397Y-117721444D02*
X172292064Y-117688111D01*
X170357659Y-108326925D02*
X170357659Y-107626925D01*
X170357659Y-107626925D02*
X170190992Y-107626925D01*
X170190992Y-107626925D02*
X170090992Y-107660258D01*
X170090992Y-107660258D02*
X170024326Y-107726925D01*
X170024326Y-107726925D02*
X169990992Y-107793592D01*
X169990992Y-107793592D02*
X169957659Y-107926925D01*
X169957659Y-107926925D02*
X169957659Y-108026925D01*
X169957659Y-108026925D02*
X169990992Y-108160258D01*
X169990992Y-108160258D02*
X170024326Y-108226925D01*
X170024326Y-108226925D02*
X170090992Y-108293592D01*
X170090992Y-108293592D02*
X170190992Y-108326925D01*
X170190992Y-108326925D02*
X170357659Y-108326925D01*
X169290992Y-108326925D02*
X169690992Y-108326925D01*
X169490992Y-108326925D02*
X169490992Y-107626925D01*
X169490992Y-107626925D02*
X169557659Y-107726925D01*
X169557659Y-107726925D02*
X169624326Y-107793592D01*
X169624326Y-107793592D02*
X169690992Y-107826925D01*
X168857659Y-107626925D02*
X168790992Y-107626925D01*
X168790992Y-107626925D02*
X168724325Y-107660258D01*
X168724325Y-107660258D02*
X168690992Y-107693592D01*
X168690992Y-107693592D02*
X168657659Y-107760258D01*
X168657659Y-107760258D02*
X168624325Y-107893592D01*
X168624325Y-107893592D02*
X168624325Y-108060258D01*
X168624325Y-108060258D02*
X168657659Y-108193592D01*
X168657659Y-108193592D02*
X168690992Y-108260258D01*
X168690992Y-108260258D02*
X168724325Y-108293592D01*
X168724325Y-108293592D02*
X168790992Y-108326925D01*
X168790992Y-108326925D02*
X168857659Y-108326925D01*
X168857659Y-108326925D02*
X168924325Y-108293592D01*
X168924325Y-108293592D02*
X168957659Y-108260258D01*
X168957659Y-108260258D02*
X168990992Y-108193592D01*
X168990992Y-108193592D02*
X169024325Y-108060258D01*
X169024325Y-108060258D02*
X169024325Y-107893592D01*
X169024325Y-107893592D02*
X168990992Y-107760258D01*
X168990992Y-107760258D02*
X168957659Y-107693592D01*
X168957659Y-107693592D02*
X168924325Y-107660258D01*
X168924325Y-107660258D02*
X168857659Y-107626925D01*
X175100045Y-108419762D02*
X175500739Y-108349052D01*
X175382887Y-108702605D02*
X175877862Y-108207630D01*
X175877862Y-108207630D02*
X175689300Y-108019069D01*
X175689300Y-108019069D02*
X175618590Y-107995498D01*
X175618590Y-107995498D02*
X175571449Y-107995498D01*
X175571449Y-107995498D02*
X175500739Y-108019069D01*
X175500739Y-108019069D02*
X175430028Y-108089779D01*
X175430028Y-108089779D02*
X175406458Y-108160490D01*
X175406458Y-108160490D02*
X175406458Y-108207630D01*
X175406458Y-108207630D02*
X175430028Y-108278341D01*
X175430028Y-108278341D02*
X175618590Y-108466903D01*
X175147185Y-107476953D02*
X175382887Y-107712656D01*
X175382887Y-107712656D02*
X175170755Y-107971928D01*
X175170755Y-107971928D02*
X175170755Y-107924788D01*
X175170755Y-107924788D02*
X175147185Y-107854077D01*
X175147185Y-107854077D02*
X175029334Y-107736226D01*
X175029334Y-107736226D02*
X174958623Y-107712656D01*
X174958623Y-107712656D02*
X174911483Y-107712656D01*
X174911483Y-107712656D02*
X174840772Y-107736226D01*
X174840772Y-107736226D02*
X174722921Y-107854077D01*
X174722921Y-107854077D02*
X174699351Y-107924788D01*
X174699351Y-107924788D02*
X174699351Y-107971928D01*
X174699351Y-107971928D02*
X174722921Y-108042639D01*
X174722921Y-108042639D02*
X174840772Y-108160490D01*
X174840772Y-108160490D02*
X174911483Y-108184060D01*
X174911483Y-108184060D02*
X174958623Y-108184060D01*
X177517258Y-116754777D02*
X177550592Y-116721444D01*
X177550592Y-116721444D02*
X177583925Y-116621444D01*
X177583925Y-116621444D02*
X177583925Y-116554777D01*
X177583925Y-116554777D02*
X177550592Y-116454777D01*
X177550592Y-116454777D02*
X177483925Y-116388111D01*
X177483925Y-116388111D02*
X177417258Y-116354777D01*
X177417258Y-116354777D02*
X177283925Y-116321444D01*
X177283925Y-116321444D02*
X177183925Y-116321444D01*
X177183925Y-116321444D02*
X177050592Y-116354777D01*
X177050592Y-116354777D02*
X176983925Y-116388111D01*
X176983925Y-116388111D02*
X176917258Y-116454777D01*
X176917258Y-116454777D02*
X176883925Y-116554777D01*
X176883925Y-116554777D02*
X176883925Y-116621444D01*
X176883925Y-116621444D02*
X176917258Y-116721444D01*
X176917258Y-116721444D02*
X176950592Y-116754777D01*
X176883925Y-117354777D02*
X176883925Y-117221444D01*
X176883925Y-117221444D02*
X176917258Y-117154777D01*
X176917258Y-117154777D02*
X176950592Y-117121444D01*
X176950592Y-117121444D02*
X177050592Y-117054777D01*
X177050592Y-117054777D02*
X177183925Y-117021444D01*
X177183925Y-117021444D02*
X177450592Y-117021444D01*
X177450592Y-117021444D02*
X177517258Y-117054777D01*
X177517258Y-117054777D02*
X177550592Y-117088111D01*
X177550592Y-117088111D02*
X177583925Y-117154777D01*
X177583925Y-117154777D02*
X177583925Y-117288111D01*
X177583925Y-117288111D02*
X177550592Y-117354777D01*
X177550592Y-117354777D02*
X177517258Y-117388111D01*
X177517258Y-117388111D02*
X177450592Y-117421444D01*
X177450592Y-117421444D02*
X177283925Y-117421444D01*
X177283925Y-117421444D02*
X177217258Y-117388111D01*
X177217258Y-117388111D02*
X177183925Y-117354777D01*
X177183925Y-117354777D02*
X177150592Y-117288111D01*
X177150592Y-117288111D02*
X177150592Y-117154777D01*
X177150592Y-117154777D02*
X177183925Y-117088111D01*
X177183925Y-117088111D02*
X177217258Y-117054777D01*
X177217258Y-117054777D02*
X177283925Y-117021444D01*
X176883925Y-118054778D02*
X176883925Y-117721444D01*
X176883925Y-117721444D02*
X177217258Y-117688111D01*
X177217258Y-117688111D02*
X177183925Y-117721444D01*
X177183925Y-117721444D02*
X177150592Y-117788111D01*
X177150592Y-117788111D02*
X177150592Y-117954778D01*
X177150592Y-117954778D02*
X177183925Y-118021444D01*
X177183925Y-118021444D02*
X177217258Y-118054778D01*
X177217258Y-118054778D02*
X177283925Y-118088111D01*
X177283925Y-118088111D02*
X177450592Y-118088111D01*
X177450592Y-118088111D02*
X177517258Y-118054778D01*
X177517258Y-118054778D02*
X177550592Y-118021444D01*
X177550592Y-118021444D02*
X177583925Y-117954778D01*
X177583925Y-117954778D02*
X177583925Y-117788111D01*
X177583925Y-117788111D02*
X177550592Y-117721444D01*
X177550592Y-117721444D02*
X177517258Y-117688111D01*
X175518644Y-105783124D02*
X175518644Y-105830264D01*
X175518644Y-105830264D02*
X175565785Y-105924545D01*
X175565785Y-105924545D02*
X175612925Y-105971686D01*
X175612925Y-105971686D02*
X175707206Y-106018826D01*
X175707206Y-106018826D02*
X175801487Y-106018826D01*
X175801487Y-106018826D02*
X175872198Y-105995256D01*
X175872198Y-105995256D02*
X175990049Y-105924545D01*
X175990049Y-105924545D02*
X176060759Y-105853835D01*
X176060759Y-105853835D02*
X176131470Y-105735983D01*
X176131470Y-105735983D02*
X176155040Y-105665273D01*
X176155040Y-105665273D02*
X176155040Y-105570992D01*
X176155040Y-105570992D02*
X176107900Y-105476711D01*
X176107900Y-105476711D02*
X176060759Y-105429571D01*
X176060759Y-105429571D02*
X175966478Y-105382430D01*
X175966478Y-105382430D02*
X175919338Y-105382430D01*
X175377223Y-105076017D02*
X175047240Y-105406000D01*
X175683636Y-105005306D02*
X175447934Y-105476711D01*
X175447934Y-105476711D02*
X175141521Y-105170298D01*
X171804819Y-112726905D02*
X172614342Y-112726905D01*
X172614342Y-112726905D02*
X172709580Y-112774524D01*
X172709580Y-112774524D02*
X172757200Y-112822143D01*
X172757200Y-112822143D02*
X172804819Y-112917381D01*
X172804819Y-112917381D02*
X172804819Y-113107857D01*
X172804819Y-113107857D02*
X172757200Y-113203095D01*
X172757200Y-113203095D02*
X172709580Y-113250714D01*
X172709580Y-113250714D02*
X172614342Y-113298333D01*
X172614342Y-113298333D02*
X171804819Y-113298333D01*
X172804819Y-114298333D02*
X172804819Y-113726905D01*
X172804819Y-114012619D02*
X171804819Y-114012619D01*
X171804819Y-114012619D02*
X171947676Y-113917381D01*
X171947676Y-113917381D02*
X172042914Y-113822143D01*
X172042914Y-113822143D02*
X172090533Y-113726905D01*
X171804819Y-114631667D02*
X171804819Y-115250714D01*
X171804819Y-115250714D02*
X172185771Y-114917381D01*
X172185771Y-114917381D02*
X172185771Y-115060238D01*
X172185771Y-115060238D02*
X172233390Y-115155476D01*
X172233390Y-115155476D02*
X172281009Y-115203095D01*
X172281009Y-115203095D02*
X172376247Y-115250714D01*
X172376247Y-115250714D02*
X172614342Y-115250714D01*
X172614342Y-115250714D02*
X172709580Y-115203095D01*
X172709580Y-115203095D02*
X172757200Y-115155476D01*
X172757200Y-115155476D02*
X172804819Y-115060238D01*
X172804819Y-115060238D02*
X172804819Y-114774524D01*
X172804819Y-114774524D02*
X172757200Y-114679286D01*
X172757200Y-114679286D02*
X172709580Y-114631667D01*
X174785190Y-106085852D02*
X174785190Y-106132992D01*
X174785190Y-106132992D02*
X174832330Y-106227273D01*
X174832330Y-106227273D02*
X174879471Y-106274413D01*
X174879471Y-106274413D02*
X174973752Y-106321554D01*
X174973752Y-106321554D02*
X175068033Y-106321554D01*
X175068033Y-106321554D02*
X175138743Y-106297984D01*
X175138743Y-106297984D02*
X175256594Y-106227273D01*
X175256594Y-106227273D02*
X175327305Y-106156562D01*
X175327305Y-106156562D02*
X175398016Y-106038711D01*
X175398016Y-106038711D02*
X175421586Y-105968001D01*
X175421586Y-105968001D02*
X175421586Y-105873720D01*
X175421586Y-105873720D02*
X175374446Y-105779439D01*
X175374446Y-105779439D02*
X175327305Y-105732298D01*
X175327305Y-105732298D02*
X175233024Y-105685158D01*
X175233024Y-105685158D02*
X175185884Y-105685158D01*
X175068033Y-105473026D02*
X174761620Y-105166613D01*
X174761620Y-105166613D02*
X174738049Y-105520166D01*
X174738049Y-105520166D02*
X174667339Y-105449456D01*
X174667339Y-105449456D02*
X174596628Y-105425885D01*
X174596628Y-105425885D02*
X174549488Y-105425885D01*
X174549488Y-105425885D02*
X174478777Y-105449456D01*
X174478777Y-105449456D02*
X174360926Y-105567307D01*
X174360926Y-105567307D02*
X174337356Y-105638017D01*
X174337356Y-105638017D02*
X174337356Y-105685158D01*
X174337356Y-105685158D02*
X174360926Y-105755868D01*
X174360926Y-105755868D02*
X174502347Y-105897290D01*
X174502347Y-105897290D02*
X174573058Y-105920860D01*
X174573058Y-105920860D02*
X174620198Y-105920860D01*
X174337355Y-104742349D02*
X174431636Y-104836629D01*
X174431636Y-104836629D02*
X174455207Y-104907340D01*
X174455207Y-104907340D02*
X174455207Y-104954481D01*
X174455207Y-104954481D02*
X174431636Y-105072332D01*
X174431636Y-105072332D02*
X174360926Y-105190183D01*
X174360926Y-105190183D02*
X174172364Y-105378745D01*
X174172364Y-105378745D02*
X174101653Y-105402315D01*
X174101653Y-105402315D02*
X174054513Y-105402315D01*
X174054513Y-105402315D02*
X173983802Y-105378745D01*
X173983802Y-105378745D02*
X173889521Y-105284464D01*
X173889521Y-105284464D02*
X173865951Y-105213753D01*
X173865951Y-105213753D02*
X173865951Y-105166613D01*
X173865951Y-105166613D02*
X173889521Y-105095902D01*
X173889521Y-105095902D02*
X174007372Y-104978051D01*
X174007372Y-104978051D02*
X174078083Y-104954481D01*
X174078083Y-104954481D02*
X174125223Y-104954481D01*
X174125223Y-104954481D02*
X174195934Y-104978051D01*
X174195934Y-104978051D02*
X174290215Y-105072332D01*
X174290215Y-105072332D02*
X174313785Y-105143042D01*
X174313785Y-105143042D02*
X174313785Y-105190183D01*
X174313785Y-105190183D02*
X174290215Y-105260894D01*
X203673333Y-93671034D02*
X203673333Y-94237701D01*
X203673333Y-94237701D02*
X203640000Y-94304367D01*
X203640000Y-94304367D02*
X203606666Y-94337701D01*
X203606666Y-94337701D02*
X203540000Y-94371034D01*
X203540000Y-94371034D02*
X203406666Y-94371034D01*
X203406666Y-94371034D02*
X203340000Y-94337701D01*
X203340000Y-94337701D02*
X203306666Y-94304367D01*
X203306666Y-94304367D02*
X203273333Y-94237701D01*
X203273333Y-94237701D02*
X203273333Y-93671034D01*
X202906667Y-94371034D02*
X202773333Y-94371034D01*
X202773333Y-94371034D02*
X202706667Y-94337701D01*
X202706667Y-94337701D02*
X202673333Y-94304367D01*
X202673333Y-94304367D02*
X202606667Y-94204367D01*
X202606667Y-94204367D02*
X202573333Y-94071034D01*
X202573333Y-94071034D02*
X202573333Y-93804367D01*
X202573333Y-93804367D02*
X202606667Y-93737701D01*
X202606667Y-93737701D02*
X202640000Y-93704367D01*
X202640000Y-93704367D02*
X202706667Y-93671034D01*
X202706667Y-93671034D02*
X202840000Y-93671034D01*
X202840000Y-93671034D02*
X202906667Y-93704367D01*
X202906667Y-93704367D02*
X202940000Y-93737701D01*
X202940000Y-93737701D02*
X202973333Y-93804367D01*
X202973333Y-93804367D02*
X202973333Y-93971034D01*
X202973333Y-93971034D02*
X202940000Y-94037701D01*
X202940000Y-94037701D02*
X202906667Y-94071034D01*
X202906667Y-94071034D02*
X202840000Y-94104367D01*
X202840000Y-94104367D02*
X202706667Y-94104367D01*
X202706667Y-94104367D02*
X202640000Y-94071034D01*
X202640000Y-94071034D02*
X202606667Y-94037701D01*
X202606667Y-94037701D02*
X202573333Y-93971034D01*
X174207113Y-99609283D02*
X174207113Y-99656423D01*
X174207113Y-99656423D02*
X174254253Y-99750704D01*
X174254253Y-99750704D02*
X174301394Y-99797844D01*
X174301394Y-99797844D02*
X174395675Y-99844985D01*
X174395675Y-99844985D02*
X174489956Y-99844985D01*
X174489956Y-99844985D02*
X174560666Y-99821415D01*
X174560666Y-99821415D02*
X174678517Y-99750704D01*
X174678517Y-99750704D02*
X174749228Y-99679993D01*
X174749228Y-99679993D02*
X174819939Y-99562142D01*
X174819939Y-99562142D02*
X174843509Y-99491432D01*
X174843509Y-99491432D02*
X174843509Y-99397151D01*
X174843509Y-99397151D02*
X174796369Y-99302870D01*
X174796369Y-99302870D02*
X174749228Y-99255729D01*
X174749228Y-99255729D02*
X174654947Y-99208589D01*
X174654947Y-99208589D02*
X174607807Y-99208589D01*
X174489956Y-98996457D02*
X174183543Y-98690044D01*
X174183543Y-98690044D02*
X174159972Y-99043597D01*
X174159972Y-99043597D02*
X174089262Y-98972887D01*
X174089262Y-98972887D02*
X174018551Y-98949316D01*
X174018551Y-98949316D02*
X173971411Y-98949316D01*
X173971411Y-98949316D02*
X173900700Y-98972887D01*
X173900700Y-98972887D02*
X173782849Y-99090738D01*
X173782849Y-99090738D02*
X173759279Y-99161448D01*
X173759279Y-99161448D02*
X173759279Y-99208589D01*
X173759279Y-99208589D02*
X173782849Y-99279299D01*
X173782849Y-99279299D02*
X173924270Y-99420721D01*
X173924270Y-99420721D02*
X173994981Y-99444291D01*
X173994981Y-99444291D02*
X174042121Y-99444291D01*
X173688568Y-98619333D02*
X173759278Y-98642903D01*
X173759278Y-98642903D02*
X173806419Y-98642903D01*
X173806419Y-98642903D02*
X173877130Y-98619333D01*
X173877130Y-98619333D02*
X173900700Y-98595763D01*
X173900700Y-98595763D02*
X173924270Y-98525052D01*
X173924270Y-98525052D02*
X173924270Y-98477912D01*
X173924270Y-98477912D02*
X173900700Y-98407201D01*
X173900700Y-98407201D02*
X173806419Y-98312920D01*
X173806419Y-98312920D02*
X173735708Y-98289350D01*
X173735708Y-98289350D02*
X173688568Y-98289350D01*
X173688568Y-98289350D02*
X173617857Y-98312920D01*
X173617857Y-98312920D02*
X173594287Y-98336490D01*
X173594287Y-98336490D02*
X173570717Y-98407201D01*
X173570717Y-98407201D02*
X173570717Y-98454341D01*
X173570717Y-98454341D02*
X173594287Y-98525052D01*
X173594287Y-98525052D02*
X173688568Y-98619333D01*
X173688568Y-98619333D02*
X173712138Y-98690044D01*
X173712138Y-98690044D02*
X173712138Y-98737184D01*
X173712138Y-98737184D02*
X173688568Y-98807895D01*
X173688568Y-98807895D02*
X173594287Y-98902176D01*
X173594287Y-98902176D02*
X173523576Y-98925746D01*
X173523576Y-98925746D02*
X173476436Y-98925746D01*
X173476436Y-98925746D02*
X173405725Y-98902176D01*
X173405725Y-98902176D02*
X173311444Y-98807895D01*
X173311444Y-98807895D02*
X173287874Y-98737184D01*
X173287874Y-98737184D02*
X173287874Y-98690044D01*
X173287874Y-98690044D02*
X173311444Y-98619333D01*
X173311444Y-98619333D02*
X173405725Y-98525052D01*
X173405725Y-98525052D02*
X173476436Y-98501482D01*
X173476436Y-98501482D02*
X173523576Y-98501482D01*
X173523576Y-98501482D02*
X173594287Y-98525052D01*
X162495000Y-111121033D02*
X162728333Y-110787700D01*
X162895000Y-111121033D02*
X162895000Y-110421033D01*
X162895000Y-110421033D02*
X162628333Y-110421033D01*
X162628333Y-110421033D02*
X162561667Y-110454366D01*
X162561667Y-110454366D02*
X162528333Y-110487700D01*
X162528333Y-110487700D02*
X162495000Y-110554366D01*
X162495000Y-110554366D02*
X162495000Y-110654366D01*
X162495000Y-110654366D02*
X162528333Y-110721033D01*
X162528333Y-110721033D02*
X162561667Y-110754366D01*
X162561667Y-110754366D02*
X162628333Y-110787700D01*
X162628333Y-110787700D02*
X162895000Y-110787700D01*
X162261667Y-110421033D02*
X161828333Y-110421033D01*
X161828333Y-110421033D02*
X162061667Y-110687700D01*
X162061667Y-110687700D02*
X161961667Y-110687700D01*
X161961667Y-110687700D02*
X161895000Y-110721033D01*
X161895000Y-110721033D02*
X161861667Y-110754366D01*
X161861667Y-110754366D02*
X161828333Y-110821033D01*
X161828333Y-110821033D02*
X161828333Y-110987700D01*
X161828333Y-110987700D02*
X161861667Y-111054366D01*
X161861667Y-111054366D02*
X161895000Y-111087700D01*
X161895000Y-111087700D02*
X161961667Y-111121033D01*
X161961667Y-111121033D02*
X162161667Y-111121033D01*
X162161667Y-111121033D02*
X162228333Y-111087700D01*
X162228333Y-111087700D02*
X162261667Y-111054366D01*
X161161666Y-111121033D02*
X161561666Y-111121033D01*
X161361666Y-111121033D02*
X161361666Y-110421033D01*
X161361666Y-110421033D02*
X161428333Y-110521033D01*
X161428333Y-110521033D02*
X161495000Y-110587700D01*
X161495000Y-110587700D02*
X161561666Y-110621033D01*
X167169202Y-111224622D02*
X167216821Y-111272242D01*
X167216821Y-111272242D02*
X167359678Y-111319861D01*
X167359678Y-111319861D02*
X167454916Y-111319861D01*
X167454916Y-111319861D02*
X167597773Y-111272242D01*
X167597773Y-111272242D02*
X167693011Y-111177003D01*
X167693011Y-111177003D02*
X167740630Y-111081765D01*
X167740630Y-111081765D02*
X167788249Y-110891289D01*
X167788249Y-110891289D02*
X167788249Y-110748432D01*
X167788249Y-110748432D02*
X167740630Y-110557956D01*
X167740630Y-110557956D02*
X167693011Y-110462718D01*
X167693011Y-110462718D02*
X167597773Y-110367480D01*
X167597773Y-110367480D02*
X167454916Y-110319861D01*
X167454916Y-110319861D02*
X167359678Y-110319861D01*
X167359678Y-110319861D02*
X167216821Y-110367480D01*
X167216821Y-110367480D02*
X167169202Y-110415099D01*
X166835868Y-110319861D02*
X166169202Y-110319861D01*
X166169202Y-110319861D02*
X166597773Y-111319861D01*
X165312059Y-110319861D02*
X165788249Y-110319861D01*
X165788249Y-110319861D02*
X165835868Y-110796051D01*
X165835868Y-110796051D02*
X165788249Y-110748432D01*
X165788249Y-110748432D02*
X165693011Y-110700813D01*
X165693011Y-110700813D02*
X165454916Y-110700813D01*
X165454916Y-110700813D02*
X165359678Y-110748432D01*
X165359678Y-110748432D02*
X165312059Y-110796051D01*
X165312059Y-110796051D02*
X165264440Y-110891289D01*
X165264440Y-110891289D02*
X165264440Y-111129384D01*
X165264440Y-111129384D02*
X165312059Y-111224622D01*
X165312059Y-111224622D02*
X165359678Y-111272242D01*
X165359678Y-111272242D02*
X165454916Y-111319861D01*
X165454916Y-111319861D02*
X165693011Y-111319861D01*
X165693011Y-111319861D02*
X165788249Y-111272242D01*
X165788249Y-111272242D02*
X165835868Y-111224622D01*
X183824111Y-91819637D02*
X183871251Y-91819637D01*
X183871251Y-91819637D02*
X183965532Y-91772497D01*
X183965532Y-91772497D02*
X184012672Y-91725356D01*
X184012672Y-91725356D02*
X184059813Y-91631075D01*
X184059813Y-91631075D02*
X184059813Y-91536794D01*
X184059813Y-91536794D02*
X184036243Y-91466084D01*
X184036243Y-91466084D02*
X183965532Y-91348233D01*
X183965532Y-91348233D02*
X183894821Y-91277522D01*
X183894821Y-91277522D02*
X183776970Y-91206811D01*
X183776970Y-91206811D02*
X183706260Y-91183241D01*
X183706260Y-91183241D02*
X183611979Y-91183241D01*
X183611979Y-91183241D02*
X183517698Y-91230381D01*
X183517698Y-91230381D02*
X183470557Y-91277522D01*
X183470557Y-91277522D02*
X183423417Y-91371803D01*
X183423417Y-91371803D02*
X183423417Y-91418943D01*
X183399847Y-92338182D02*
X183682689Y-92055339D01*
X183541268Y-92196761D02*
X183046293Y-91701786D01*
X183046293Y-91701786D02*
X183164144Y-91725356D01*
X183164144Y-91725356D02*
X183258425Y-91725356D01*
X183258425Y-91725356D02*
X183329136Y-91701786D01*
X182928442Y-92809587D02*
X183211285Y-92526744D01*
X183069863Y-92668165D02*
X182574888Y-92173191D01*
X182574888Y-92173191D02*
X182692740Y-92196761D01*
X182692740Y-92196761D02*
X182787020Y-92196761D01*
X182787020Y-92196761D02*
X182857731Y-92173191D01*
X182443781Y-90438633D02*
X182490921Y-90438633D01*
X182490921Y-90438633D02*
X182585202Y-90391493D01*
X182585202Y-90391493D02*
X182632342Y-90344352D01*
X182632342Y-90344352D02*
X182679483Y-90250071D01*
X182679483Y-90250071D02*
X182679483Y-90155790D01*
X182679483Y-90155790D02*
X182655913Y-90085080D01*
X182655913Y-90085080D02*
X182585202Y-89967229D01*
X182585202Y-89967229D02*
X182514491Y-89896518D01*
X182514491Y-89896518D02*
X182396640Y-89825807D01*
X182396640Y-89825807D02*
X182325930Y-89802237D01*
X182325930Y-89802237D02*
X182231649Y-89802237D01*
X182231649Y-89802237D02*
X182137368Y-89849377D01*
X182137368Y-89849377D02*
X182090227Y-89896518D01*
X182090227Y-89896518D02*
X182043087Y-89990799D01*
X182043087Y-89990799D02*
X182043087Y-90037939D01*
X181736674Y-90580054D02*
X182066657Y-90910038D01*
X181665963Y-90273641D02*
X182137368Y-90509344D01*
X182137368Y-90509344D02*
X181830955Y-90815757D01*
X181383120Y-90697906D02*
X181335980Y-90697906D01*
X181335980Y-90697906D02*
X181265269Y-90721476D01*
X181265269Y-90721476D02*
X181147418Y-90839327D01*
X181147418Y-90839327D02*
X181123848Y-90910038D01*
X181123848Y-90910038D02*
X181123848Y-90957178D01*
X181123848Y-90957178D02*
X181147418Y-91027889D01*
X181147418Y-91027889D02*
X181194558Y-91075029D01*
X181194558Y-91075029D02*
X181288839Y-91122170D01*
X181288839Y-91122170D02*
X181854525Y-91122170D01*
X181854525Y-91122170D02*
X181548112Y-91428583D01*
X163904626Y-112080796D02*
X163952246Y-112033177D01*
X163952246Y-112033177D02*
X163999865Y-111890320D01*
X163999865Y-111890320D02*
X163999865Y-111795082D01*
X163999865Y-111795082D02*
X163952246Y-111652225D01*
X163952246Y-111652225D02*
X163857007Y-111556987D01*
X163857007Y-111556987D02*
X163761769Y-111509368D01*
X163761769Y-111509368D02*
X163571293Y-111461749D01*
X163571293Y-111461749D02*
X163428436Y-111461749D01*
X163428436Y-111461749D02*
X163237960Y-111509368D01*
X163237960Y-111509368D02*
X163142722Y-111556987D01*
X163142722Y-111556987D02*
X163047484Y-111652225D01*
X163047484Y-111652225D02*
X162999865Y-111795082D01*
X162999865Y-111795082D02*
X162999865Y-111890320D01*
X162999865Y-111890320D02*
X163047484Y-112033177D01*
X163047484Y-112033177D02*
X163095103Y-112080796D01*
X162999865Y-112937939D02*
X162999865Y-112747463D01*
X162999865Y-112747463D02*
X163047484Y-112652225D01*
X163047484Y-112652225D02*
X163095103Y-112604606D01*
X163095103Y-112604606D02*
X163237960Y-112509368D01*
X163237960Y-112509368D02*
X163428436Y-112461749D01*
X163428436Y-112461749D02*
X163809388Y-112461749D01*
X163809388Y-112461749D02*
X163904626Y-112509368D01*
X163904626Y-112509368D02*
X163952246Y-112556987D01*
X163952246Y-112556987D02*
X163999865Y-112652225D01*
X163999865Y-112652225D02*
X163999865Y-112842701D01*
X163999865Y-112842701D02*
X163952246Y-112937939D01*
X163952246Y-112937939D02*
X163904626Y-112985558D01*
X163904626Y-112985558D02*
X163809388Y-113033177D01*
X163809388Y-113033177D02*
X163571293Y-113033177D01*
X163571293Y-113033177D02*
X163476055Y-112985558D01*
X163476055Y-112985558D02*
X163428436Y-112937939D01*
X163428436Y-112937939D02*
X163380817Y-112842701D01*
X163380817Y-112842701D02*
X163380817Y-112652225D01*
X163380817Y-112652225D02*
X163428436Y-112556987D01*
X163428436Y-112556987D02*
X163476055Y-112509368D01*
X163476055Y-112509368D02*
X163571293Y-112461749D01*
X163428436Y-113604606D02*
X163380817Y-113509368D01*
X163380817Y-113509368D02*
X163333198Y-113461749D01*
X163333198Y-113461749D02*
X163237960Y-113414130D01*
X163237960Y-113414130D02*
X163190341Y-113414130D01*
X163190341Y-113414130D02*
X163095103Y-113461749D01*
X163095103Y-113461749D02*
X163047484Y-113509368D01*
X163047484Y-113509368D02*
X162999865Y-113604606D01*
X162999865Y-113604606D02*
X162999865Y-113795082D01*
X162999865Y-113795082D02*
X163047484Y-113890320D01*
X163047484Y-113890320D02*
X163095103Y-113937939D01*
X163095103Y-113937939D02*
X163190341Y-113985558D01*
X163190341Y-113985558D02*
X163237960Y-113985558D01*
X163237960Y-113985558D02*
X163333198Y-113937939D01*
X163333198Y-113937939D02*
X163380817Y-113890320D01*
X163380817Y-113890320D02*
X163428436Y-113795082D01*
X163428436Y-113795082D02*
X163428436Y-113604606D01*
X163428436Y-113604606D02*
X163476055Y-113509368D01*
X163476055Y-113509368D02*
X163523674Y-113461749D01*
X163523674Y-113461749D02*
X163618912Y-113414130D01*
X163618912Y-113414130D02*
X163809388Y-113414130D01*
X163809388Y-113414130D02*
X163904626Y-113461749D01*
X163904626Y-113461749D02*
X163952246Y-113509368D01*
X163952246Y-113509368D02*
X163999865Y-113604606D01*
X163999865Y-113604606D02*
X163999865Y-113795082D01*
X163999865Y-113795082D02*
X163952246Y-113890320D01*
X163952246Y-113890320D02*
X163904626Y-113937939D01*
X163904626Y-113937939D02*
X163809388Y-113985558D01*
X163809388Y-113985558D02*
X163618912Y-113985558D01*
X163618912Y-113985558D02*
X163523674Y-113937939D01*
X163523674Y-113937939D02*
X163476055Y-113890320D01*
X163476055Y-113890320D02*
X163428436Y-113795082D01*
X183138217Y-91133744D02*
X183185357Y-91133744D01*
X183185357Y-91133744D02*
X183279638Y-91086604D01*
X183279638Y-91086604D02*
X183326778Y-91039463D01*
X183326778Y-91039463D02*
X183373919Y-90945182D01*
X183373919Y-90945182D02*
X183373919Y-90850901D01*
X183373919Y-90850901D02*
X183350349Y-90780191D01*
X183350349Y-90780191D02*
X183279638Y-90662340D01*
X183279638Y-90662340D02*
X183208927Y-90591629D01*
X183208927Y-90591629D02*
X183091076Y-90520918D01*
X183091076Y-90520918D02*
X183020366Y-90497348D01*
X183020366Y-90497348D02*
X182926085Y-90497348D01*
X182926085Y-90497348D02*
X182831804Y-90544488D01*
X182831804Y-90544488D02*
X182784663Y-90591629D01*
X182784663Y-90591629D02*
X182737523Y-90685910D01*
X182737523Y-90685910D02*
X182737523Y-90733050D01*
X182713953Y-91652289D02*
X182996795Y-91369446D01*
X182855374Y-91510868D02*
X182360399Y-91015893D01*
X182360399Y-91015893D02*
X182478250Y-91039463D01*
X182478250Y-91039463D02*
X182572531Y-91039463D01*
X182572531Y-91039463D02*
X182643242Y-91015893D01*
X181912565Y-91463727D02*
X181865424Y-91510868D01*
X181865424Y-91510868D02*
X181841854Y-91581579D01*
X181841854Y-91581579D02*
X181841854Y-91628719D01*
X181841854Y-91628719D02*
X181865424Y-91699430D01*
X181865424Y-91699430D02*
X181936135Y-91817281D01*
X181936135Y-91817281D02*
X182053986Y-91935132D01*
X182053986Y-91935132D02*
X182171837Y-92005843D01*
X182171837Y-92005843D02*
X182242548Y-92029413D01*
X182242548Y-92029413D02*
X182289688Y-92029413D01*
X182289688Y-92029413D02*
X182360399Y-92005843D01*
X182360399Y-92005843D02*
X182407539Y-91958702D01*
X182407539Y-91958702D02*
X182431110Y-91887992D01*
X182431110Y-91887992D02*
X182431110Y-91840851D01*
X182431110Y-91840851D02*
X182407539Y-91770140D01*
X182407539Y-91770140D02*
X182336829Y-91652289D01*
X182336829Y-91652289D02*
X182218978Y-91534438D01*
X182218978Y-91534438D02*
X182101126Y-91463727D01*
X182101126Y-91463727D02*
X182030416Y-91440157D01*
X182030416Y-91440157D02*
X181983275Y-91440157D01*
X181983275Y-91440157D02*
X181912565Y-91463727D01*
X191344366Y-97104999D02*
X191377700Y-97071666D01*
X191377700Y-97071666D02*
X191411033Y-96971666D01*
X191411033Y-96971666D02*
X191411033Y-96904999D01*
X191411033Y-96904999D02*
X191377700Y-96804999D01*
X191377700Y-96804999D02*
X191311033Y-96738333D01*
X191311033Y-96738333D02*
X191244366Y-96704999D01*
X191244366Y-96704999D02*
X191111033Y-96671666D01*
X191111033Y-96671666D02*
X191011033Y-96671666D01*
X191011033Y-96671666D02*
X190877700Y-96704999D01*
X190877700Y-96704999D02*
X190811033Y-96738333D01*
X190811033Y-96738333D02*
X190744366Y-96804999D01*
X190744366Y-96804999D02*
X190711033Y-96904999D01*
X190711033Y-96904999D02*
X190711033Y-96971666D01*
X190711033Y-96971666D02*
X190744366Y-97071666D01*
X190744366Y-97071666D02*
X190777700Y-97104999D01*
X190711033Y-97738333D02*
X190711033Y-97404999D01*
X190711033Y-97404999D02*
X191044366Y-97371666D01*
X191044366Y-97371666D02*
X191011033Y-97404999D01*
X191011033Y-97404999D02*
X190977700Y-97471666D01*
X190977700Y-97471666D02*
X190977700Y-97638333D01*
X190977700Y-97638333D02*
X191011033Y-97704999D01*
X191011033Y-97704999D02*
X191044366Y-97738333D01*
X191044366Y-97738333D02*
X191111033Y-97771666D01*
X191111033Y-97771666D02*
X191277700Y-97771666D01*
X191277700Y-97771666D02*
X191344366Y-97738333D01*
X191344366Y-97738333D02*
X191377700Y-97704999D01*
X191377700Y-97704999D02*
X191411033Y-97638333D01*
X191411033Y-97638333D02*
X191411033Y-97471666D01*
X191411033Y-97471666D02*
X191377700Y-97404999D01*
X191377700Y-97404999D02*
X191344366Y-97371666D01*
X190777700Y-98038333D02*
X190744366Y-98071666D01*
X190744366Y-98071666D02*
X190711033Y-98138333D01*
X190711033Y-98138333D02*
X190711033Y-98305000D01*
X190711033Y-98305000D02*
X190744366Y-98371666D01*
X190744366Y-98371666D02*
X190777700Y-98405000D01*
X190777700Y-98405000D02*
X190844366Y-98438333D01*
X190844366Y-98438333D02*
X190911033Y-98438333D01*
X190911033Y-98438333D02*
X191011033Y-98405000D01*
X191011033Y-98405000D02*
X191411033Y-98005000D01*
X191411033Y-98005000D02*
X191411033Y-98438333D01*
X208075000Y-90294366D02*
X208108333Y-90327700D01*
X208108333Y-90327700D02*
X208208333Y-90361033D01*
X208208333Y-90361033D02*
X208275000Y-90361033D01*
X208275000Y-90361033D02*
X208375000Y-90327700D01*
X208375000Y-90327700D02*
X208441667Y-90261033D01*
X208441667Y-90261033D02*
X208475000Y-90194366D01*
X208475000Y-90194366D02*
X208508333Y-90061033D01*
X208508333Y-90061033D02*
X208508333Y-89961033D01*
X208508333Y-89961033D02*
X208475000Y-89827700D01*
X208475000Y-89827700D02*
X208441667Y-89761033D01*
X208441667Y-89761033D02*
X208375000Y-89694366D01*
X208375000Y-89694366D02*
X208275000Y-89661033D01*
X208275000Y-89661033D02*
X208208333Y-89661033D01*
X208208333Y-89661033D02*
X208108333Y-89694366D01*
X208108333Y-89694366D02*
X208075000Y-89727700D01*
X207441667Y-89661033D02*
X207775000Y-89661033D01*
X207775000Y-89661033D02*
X207808333Y-89994366D01*
X207808333Y-89994366D02*
X207775000Y-89961033D01*
X207775000Y-89961033D02*
X207708333Y-89927700D01*
X207708333Y-89927700D02*
X207541667Y-89927700D01*
X207541667Y-89927700D02*
X207475000Y-89961033D01*
X207475000Y-89961033D02*
X207441667Y-89994366D01*
X207441667Y-89994366D02*
X207408333Y-90061033D01*
X207408333Y-90061033D02*
X207408333Y-90227700D01*
X207408333Y-90227700D02*
X207441667Y-90294366D01*
X207441667Y-90294366D02*
X207475000Y-90327700D01*
X207475000Y-90327700D02*
X207541667Y-90361033D01*
X207541667Y-90361033D02*
X207708333Y-90361033D01*
X207708333Y-90361033D02*
X207775000Y-90327700D01*
X207775000Y-90327700D02*
X207808333Y-90294366D01*
X206808333Y-89661033D02*
X206941666Y-89661033D01*
X206941666Y-89661033D02*
X207008333Y-89694366D01*
X207008333Y-89694366D02*
X207041666Y-89727700D01*
X207041666Y-89727700D02*
X207108333Y-89827700D01*
X207108333Y-89827700D02*
X207141666Y-89961033D01*
X207141666Y-89961033D02*
X207141666Y-90227700D01*
X207141666Y-90227700D02*
X207108333Y-90294366D01*
X207108333Y-90294366D02*
X207075000Y-90327700D01*
X207075000Y-90327700D02*
X207008333Y-90361033D01*
X207008333Y-90361033D02*
X206875000Y-90361033D01*
X206875000Y-90361033D02*
X206808333Y-90327700D01*
X206808333Y-90327700D02*
X206775000Y-90294366D01*
X206775000Y-90294366D02*
X206741666Y-90227700D01*
X206741666Y-90227700D02*
X206741666Y-90061033D01*
X206741666Y-90061033D02*
X206775000Y-89994366D01*
X206775000Y-89994366D02*
X206808333Y-89961033D01*
X206808333Y-89961033D02*
X206875000Y-89927700D01*
X206875000Y-89927700D02*
X207008333Y-89927700D01*
X207008333Y-89927700D02*
X207075000Y-89961033D01*
X207075000Y-89961033D02*
X207108333Y-89994366D01*
X207108333Y-89994366D02*
X207141666Y-90061033D01*
X174480189Y-96270853D02*
X174480189Y-96317993D01*
X174480189Y-96317993D02*
X174527329Y-96412274D01*
X174527329Y-96412274D02*
X174574470Y-96459414D01*
X174574470Y-96459414D02*
X174668751Y-96506555D01*
X174668751Y-96506555D02*
X174763032Y-96506555D01*
X174763032Y-96506555D02*
X174833742Y-96482985D01*
X174833742Y-96482985D02*
X174951593Y-96412274D01*
X174951593Y-96412274D02*
X175022304Y-96341563D01*
X175022304Y-96341563D02*
X175093015Y-96223712D01*
X175093015Y-96223712D02*
X175116585Y-96153002D01*
X175116585Y-96153002D02*
X175116585Y-96058721D01*
X175116585Y-96058721D02*
X175069445Y-95964440D01*
X175069445Y-95964440D02*
X175022304Y-95917299D01*
X175022304Y-95917299D02*
X174928023Y-95870159D01*
X174928023Y-95870159D02*
X174880883Y-95870159D01*
X174763032Y-95658027D02*
X174456619Y-95351614D01*
X174456619Y-95351614D02*
X174433048Y-95705167D01*
X174433048Y-95705167D02*
X174362338Y-95634457D01*
X174362338Y-95634457D02*
X174291627Y-95610886D01*
X174291627Y-95610886D02*
X174244487Y-95610886D01*
X174244487Y-95610886D02*
X174173776Y-95634457D01*
X174173776Y-95634457D02*
X174055925Y-95752308D01*
X174055925Y-95752308D02*
X174032355Y-95823018D01*
X174032355Y-95823018D02*
X174032355Y-95870159D01*
X174032355Y-95870159D02*
X174055925Y-95940869D01*
X174055925Y-95940869D02*
X174197346Y-96082291D01*
X174197346Y-96082291D02*
X174268057Y-96105861D01*
X174268057Y-96105861D02*
X174315197Y-96105861D01*
X174291627Y-95186622D02*
X173961644Y-94856639D01*
X173961644Y-94856639D02*
X173678801Y-95563746D01*
X166993164Y-94069557D02*
X166659831Y-93836224D01*
X166993164Y-93669557D02*
X166293164Y-93669557D01*
X166293164Y-93669557D02*
X166293164Y-93936224D01*
X166293164Y-93936224D02*
X166326497Y-94002891D01*
X166326497Y-94002891D02*
X166359831Y-94036224D01*
X166359831Y-94036224D02*
X166426497Y-94069557D01*
X166426497Y-94069557D02*
X166526497Y-94069557D01*
X166526497Y-94069557D02*
X166593164Y-94036224D01*
X166593164Y-94036224D02*
X166626497Y-94002891D01*
X166626497Y-94002891D02*
X166659831Y-93936224D01*
X166659831Y-93936224D02*
X166659831Y-93669557D01*
X166359831Y-94336224D02*
X166326497Y-94369557D01*
X166326497Y-94369557D02*
X166293164Y-94436224D01*
X166293164Y-94436224D02*
X166293164Y-94602891D01*
X166293164Y-94602891D02*
X166326497Y-94669557D01*
X166326497Y-94669557D02*
X166359831Y-94702891D01*
X166359831Y-94702891D02*
X166426497Y-94736224D01*
X166426497Y-94736224D02*
X166493164Y-94736224D01*
X166493164Y-94736224D02*
X166593164Y-94702891D01*
X166593164Y-94702891D02*
X166993164Y-94302891D01*
X166993164Y-94302891D02*
X166993164Y-94736224D01*
X166593164Y-95136224D02*
X166559831Y-95069558D01*
X166559831Y-95069558D02*
X166526497Y-95036224D01*
X166526497Y-95036224D02*
X166459831Y-95002891D01*
X166459831Y-95002891D02*
X166426497Y-95002891D01*
X166426497Y-95002891D02*
X166359831Y-95036224D01*
X166359831Y-95036224D02*
X166326497Y-95069558D01*
X166326497Y-95069558D02*
X166293164Y-95136224D01*
X166293164Y-95136224D02*
X166293164Y-95269558D01*
X166293164Y-95269558D02*
X166326497Y-95336224D01*
X166326497Y-95336224D02*
X166359831Y-95369558D01*
X166359831Y-95369558D02*
X166426497Y-95402891D01*
X166426497Y-95402891D02*
X166459831Y-95402891D01*
X166459831Y-95402891D02*
X166526497Y-95369558D01*
X166526497Y-95369558D02*
X166559831Y-95336224D01*
X166559831Y-95336224D02*
X166593164Y-95269558D01*
X166593164Y-95269558D02*
X166593164Y-95136224D01*
X166593164Y-95136224D02*
X166626497Y-95069558D01*
X166626497Y-95069558D02*
X166659831Y-95036224D01*
X166659831Y-95036224D02*
X166726497Y-95002891D01*
X166726497Y-95002891D02*
X166859831Y-95002891D01*
X166859831Y-95002891D02*
X166926497Y-95036224D01*
X166926497Y-95036224D02*
X166959831Y-95069558D01*
X166959831Y-95069558D02*
X166993164Y-95136224D01*
X166993164Y-95136224D02*
X166993164Y-95269558D01*
X166993164Y-95269558D02*
X166959831Y-95336224D01*
X166959831Y-95336224D02*
X166926497Y-95369558D01*
X166926497Y-95369558D02*
X166859831Y-95402891D01*
X166859831Y-95402891D02*
X166726497Y-95402891D01*
X166726497Y-95402891D02*
X166659831Y-95369558D01*
X166659831Y-95369558D02*
X166626497Y-95336224D01*
X166626497Y-95336224D02*
X166593164Y-95269558D01*
X169248557Y-117208111D02*
X169248557Y-116874777D01*
X169248557Y-116874777D02*
X168548557Y-116874777D01*
X168615224Y-117408111D02*
X168581890Y-117441444D01*
X168581890Y-117441444D02*
X168548557Y-117508111D01*
X168548557Y-117508111D02*
X168548557Y-117674778D01*
X168548557Y-117674778D02*
X168581890Y-117741444D01*
X168581890Y-117741444D02*
X168615224Y-117774778D01*
X168615224Y-117774778D02*
X168681890Y-117808111D01*
X168681890Y-117808111D02*
X168748557Y-117808111D01*
X168748557Y-117808111D02*
X168848557Y-117774778D01*
X168848557Y-117774778D02*
X169248557Y-117374778D01*
X169248557Y-117374778D02*
X169248557Y-117808111D01*
X162495000Y-112131034D02*
X162728333Y-111797701D01*
X162895000Y-112131034D02*
X162895000Y-111431034D01*
X162895000Y-111431034D02*
X162628333Y-111431034D01*
X162628333Y-111431034D02*
X162561667Y-111464367D01*
X162561667Y-111464367D02*
X162528333Y-111497701D01*
X162528333Y-111497701D02*
X162495000Y-111564367D01*
X162495000Y-111564367D02*
X162495000Y-111664367D01*
X162495000Y-111664367D02*
X162528333Y-111731034D01*
X162528333Y-111731034D02*
X162561667Y-111764367D01*
X162561667Y-111764367D02*
X162628333Y-111797701D01*
X162628333Y-111797701D02*
X162895000Y-111797701D01*
X162261667Y-111431034D02*
X161828333Y-111431034D01*
X161828333Y-111431034D02*
X162061667Y-111697701D01*
X162061667Y-111697701D02*
X161961667Y-111697701D01*
X161961667Y-111697701D02*
X161895000Y-111731034D01*
X161895000Y-111731034D02*
X161861667Y-111764367D01*
X161861667Y-111764367D02*
X161828333Y-111831034D01*
X161828333Y-111831034D02*
X161828333Y-111997701D01*
X161828333Y-111997701D02*
X161861667Y-112064367D01*
X161861667Y-112064367D02*
X161895000Y-112097701D01*
X161895000Y-112097701D02*
X161961667Y-112131034D01*
X161961667Y-112131034D02*
X162161667Y-112131034D01*
X162161667Y-112131034D02*
X162228333Y-112097701D01*
X162228333Y-112097701D02*
X162261667Y-112064367D01*
X161561666Y-111497701D02*
X161528333Y-111464367D01*
X161528333Y-111464367D02*
X161461666Y-111431034D01*
X161461666Y-111431034D02*
X161295000Y-111431034D01*
X161295000Y-111431034D02*
X161228333Y-111464367D01*
X161228333Y-111464367D02*
X161195000Y-111497701D01*
X161195000Y-111497701D02*
X161161666Y-111564367D01*
X161161666Y-111564367D02*
X161161666Y-111631034D01*
X161161666Y-111631034D02*
X161195000Y-111731034D01*
X161195000Y-111731034D02*
X161595000Y-112131034D01*
X161595000Y-112131034D02*
X161161666Y-112131034D01*
X185286523Y-93249207D02*
X185333663Y-93249207D01*
X185333663Y-93249207D02*
X185427944Y-93202067D01*
X185427944Y-93202067D02*
X185475084Y-93154926D01*
X185475084Y-93154926D02*
X185522225Y-93060645D01*
X185522225Y-93060645D02*
X185522225Y-92966364D01*
X185522225Y-92966364D02*
X185498655Y-92895654D01*
X185498655Y-92895654D02*
X185427944Y-92777803D01*
X185427944Y-92777803D02*
X185357233Y-92707092D01*
X185357233Y-92707092D02*
X185239382Y-92636381D01*
X185239382Y-92636381D02*
X185168672Y-92612811D01*
X185168672Y-92612811D02*
X185074391Y-92612811D01*
X185074391Y-92612811D02*
X184980110Y-92659951D01*
X184980110Y-92659951D02*
X184932969Y-92707092D01*
X184932969Y-92707092D02*
X184885829Y-92801373D01*
X184885829Y-92801373D02*
X184885829Y-92848513D01*
X184862259Y-93767752D02*
X185145101Y-93484909D01*
X185003680Y-93626331D02*
X184508705Y-93131356D01*
X184508705Y-93131356D02*
X184626556Y-93154926D01*
X184626556Y-93154926D02*
X184720837Y-93154926D01*
X184720837Y-93154926D02*
X184791548Y-93131356D01*
X184296573Y-93767752D02*
X184320143Y-93697042D01*
X184320143Y-93697042D02*
X184320143Y-93649901D01*
X184320143Y-93649901D02*
X184296573Y-93579190D01*
X184296573Y-93579190D02*
X184273003Y-93555620D01*
X184273003Y-93555620D02*
X184202292Y-93532050D01*
X184202292Y-93532050D02*
X184155152Y-93532050D01*
X184155152Y-93532050D02*
X184084441Y-93555620D01*
X184084441Y-93555620D02*
X183990160Y-93649901D01*
X183990160Y-93649901D02*
X183966590Y-93720612D01*
X183966590Y-93720612D02*
X183966590Y-93767752D01*
X183966590Y-93767752D02*
X183990160Y-93838463D01*
X183990160Y-93838463D02*
X184013730Y-93862033D01*
X184013730Y-93862033D02*
X184084441Y-93885603D01*
X184084441Y-93885603D02*
X184131581Y-93885603D01*
X184131581Y-93885603D02*
X184202292Y-93862033D01*
X184202292Y-93862033D02*
X184296573Y-93767752D01*
X184296573Y-93767752D02*
X184367284Y-93744182D01*
X184367284Y-93744182D02*
X184414424Y-93744182D01*
X184414424Y-93744182D02*
X184485135Y-93767752D01*
X184485135Y-93767752D02*
X184579416Y-93862033D01*
X184579416Y-93862033D02*
X184602986Y-93932744D01*
X184602986Y-93932744D02*
X184602986Y-93979884D01*
X184602986Y-93979884D02*
X184579416Y-94050595D01*
X184579416Y-94050595D02*
X184485135Y-94144876D01*
X184485135Y-94144876D02*
X184414424Y-94168446D01*
X184414424Y-94168446D02*
X184367284Y-94168446D01*
X184367284Y-94168446D02*
X184296573Y-94144876D01*
X184296573Y-94144876D02*
X184202292Y-94050595D01*
X184202292Y-94050595D02*
X184178722Y-93979884D01*
X184178722Y-93979884D02*
X184178722Y-93932744D01*
X184178722Y-93932744D02*
X184202292Y-93862033D01*
X170443607Y-95202217D02*
X170110274Y-94968884D01*
X170443607Y-94802217D02*
X169743607Y-94802217D01*
X169743607Y-94802217D02*
X169743607Y-95068884D01*
X169743607Y-95068884D02*
X169776940Y-95135551D01*
X169776940Y-95135551D02*
X169810274Y-95168884D01*
X169810274Y-95168884D02*
X169876940Y-95202217D01*
X169876940Y-95202217D02*
X169976940Y-95202217D01*
X169976940Y-95202217D02*
X170043607Y-95168884D01*
X170043607Y-95168884D02*
X170076940Y-95135551D01*
X170076940Y-95135551D02*
X170110274Y-95068884D01*
X170110274Y-95068884D02*
X170110274Y-94802217D01*
X169810274Y-95468884D02*
X169776940Y-95502217D01*
X169776940Y-95502217D02*
X169743607Y-95568884D01*
X169743607Y-95568884D02*
X169743607Y-95735551D01*
X169743607Y-95735551D02*
X169776940Y-95802217D01*
X169776940Y-95802217D02*
X169810274Y-95835551D01*
X169810274Y-95835551D02*
X169876940Y-95868884D01*
X169876940Y-95868884D02*
X169943607Y-95868884D01*
X169943607Y-95868884D02*
X170043607Y-95835551D01*
X170043607Y-95835551D02*
X170443607Y-95435551D01*
X170443607Y-95435551D02*
X170443607Y-95868884D01*
X169976940Y-96468884D02*
X170443607Y-96468884D01*
X169710274Y-96302218D02*
X170210274Y-96135551D01*
X170210274Y-96135551D02*
X170210274Y-96568884D01*
X184657700Y-92530384D02*
X184704840Y-92530384D01*
X184704840Y-92530384D02*
X184799121Y-92483244D01*
X184799121Y-92483244D02*
X184846261Y-92436103D01*
X184846261Y-92436103D02*
X184893402Y-92341822D01*
X184893402Y-92341822D02*
X184893402Y-92247541D01*
X184893402Y-92247541D02*
X184869832Y-92176831D01*
X184869832Y-92176831D02*
X184799121Y-92058980D01*
X184799121Y-92058980D02*
X184728410Y-91988269D01*
X184728410Y-91988269D02*
X184610559Y-91917558D01*
X184610559Y-91917558D02*
X184539849Y-91893988D01*
X184539849Y-91893988D02*
X184445568Y-91893988D01*
X184445568Y-91893988D02*
X184351287Y-91941128D01*
X184351287Y-91941128D02*
X184304146Y-91988269D01*
X184304146Y-91988269D02*
X184257006Y-92082550D01*
X184257006Y-92082550D02*
X184257006Y-92129690D01*
X184068444Y-92318252D02*
X184021304Y-92318252D01*
X184021304Y-92318252D02*
X183950593Y-92341822D01*
X183950593Y-92341822D02*
X183832742Y-92459673D01*
X183832742Y-92459673D02*
X183809172Y-92530384D01*
X183809172Y-92530384D02*
X183809172Y-92577525D01*
X183809172Y-92577525D02*
X183832742Y-92648235D01*
X183832742Y-92648235D02*
X183879882Y-92695376D01*
X183879882Y-92695376D02*
X183974163Y-92742516D01*
X183974163Y-92742516D02*
X184539849Y-92742516D01*
X184539849Y-92742516D02*
X184233436Y-93048929D01*
X183573469Y-92718946D02*
X183243486Y-93048929D01*
X183243486Y-93048929D02*
X183950593Y-93331772D01*
X172722587Y-90667461D02*
X173123281Y-91068155D01*
X173123281Y-91068155D02*
X173146851Y-91138866D01*
X173146851Y-91138866D02*
X173146851Y-91186006D01*
X173146851Y-91186006D02*
X173123281Y-91256717D01*
X173123281Y-91256717D02*
X173029000Y-91350998D01*
X173029000Y-91350998D02*
X172958289Y-91374568D01*
X172958289Y-91374568D02*
X172911148Y-91374568D01*
X172911148Y-91374568D02*
X172840438Y-91350998D01*
X172840438Y-91350998D02*
X172439744Y-90950304D01*
X171991910Y-91398138D02*
X172086191Y-91303857D01*
X172086191Y-91303857D02*
X172156901Y-91280287D01*
X172156901Y-91280287D02*
X172204042Y-91280287D01*
X172204042Y-91280287D02*
X172321893Y-91303857D01*
X172321893Y-91303857D02*
X172439744Y-91374568D01*
X172439744Y-91374568D02*
X172628306Y-91563130D01*
X172628306Y-91563130D02*
X172651876Y-91633840D01*
X172651876Y-91633840D02*
X172651876Y-91680981D01*
X172651876Y-91680981D02*
X172628306Y-91751692D01*
X172628306Y-91751692D02*
X172534025Y-91845973D01*
X172534025Y-91845973D02*
X172463314Y-91869543D01*
X172463314Y-91869543D02*
X172416174Y-91869543D01*
X172416174Y-91869543D02*
X172345463Y-91845973D01*
X172345463Y-91845973D02*
X172227612Y-91728121D01*
X172227612Y-91728121D02*
X172204042Y-91657411D01*
X172204042Y-91657411D02*
X172204042Y-91610270D01*
X172204042Y-91610270D02*
X172227612Y-91539560D01*
X172227612Y-91539560D02*
X172321893Y-91445279D01*
X172321893Y-91445279D02*
X172392604Y-91421708D01*
X172392604Y-91421708D02*
X172439744Y-91421708D01*
X172439744Y-91421708D02*
X172510455Y-91445279D01*
X181757887Y-89752742D02*
X181805027Y-89752742D01*
X181805027Y-89752742D02*
X181899308Y-89705602D01*
X181899308Y-89705602D02*
X181946448Y-89658461D01*
X181946448Y-89658461D02*
X181993589Y-89564180D01*
X181993589Y-89564180D02*
X181993589Y-89469899D01*
X181993589Y-89469899D02*
X181970019Y-89399189D01*
X181970019Y-89399189D02*
X181899308Y-89281338D01*
X181899308Y-89281338D02*
X181828597Y-89210627D01*
X181828597Y-89210627D02*
X181710746Y-89139916D01*
X181710746Y-89139916D02*
X181640036Y-89116346D01*
X181640036Y-89116346D02*
X181545755Y-89116346D01*
X181545755Y-89116346D02*
X181451474Y-89163486D01*
X181451474Y-89163486D02*
X181404333Y-89210627D01*
X181404333Y-89210627D02*
X181357193Y-89304908D01*
X181357193Y-89304908D02*
X181357193Y-89352048D01*
X181145061Y-89469899D02*
X180838648Y-89776312D01*
X180838648Y-89776312D02*
X181192201Y-89799883D01*
X181192201Y-89799883D02*
X181121491Y-89870593D01*
X181121491Y-89870593D02*
X181097920Y-89941304D01*
X181097920Y-89941304D02*
X181097920Y-89988444D01*
X181097920Y-89988444D02*
X181121491Y-90059155D01*
X181121491Y-90059155D02*
X181239342Y-90177006D01*
X181239342Y-90177006D02*
X181310052Y-90200576D01*
X181310052Y-90200576D02*
X181357193Y-90200576D01*
X181357193Y-90200576D02*
X181427903Y-90177006D01*
X181427903Y-90177006D02*
X181569325Y-90035585D01*
X181569325Y-90035585D02*
X181592895Y-89964874D01*
X181592895Y-89964874D02*
X181592895Y-89917734D01*
X180579375Y-90365568D02*
X180909358Y-90695551D01*
X180508664Y-90059155D02*
X180980069Y-90294858D01*
X180980069Y-90294858D02*
X180673656Y-90601270D01*
X184005634Y-108603006D02*
X184572301Y-108603006D01*
X184572301Y-108603006D02*
X184638967Y-108636340D01*
X184638967Y-108636340D02*
X184672301Y-108669673D01*
X184672301Y-108669673D02*
X184705634Y-108736340D01*
X184705634Y-108736340D02*
X184705634Y-108869673D01*
X184705634Y-108869673D02*
X184672301Y-108936340D01*
X184672301Y-108936340D02*
X184638967Y-108969673D01*
X184638967Y-108969673D02*
X184572301Y-109003006D01*
X184572301Y-109003006D02*
X184005634Y-109003006D01*
X184705634Y-109703006D02*
X184705634Y-109303006D01*
X184705634Y-109503006D02*
X184005634Y-109503006D01*
X184005634Y-109503006D02*
X184105634Y-109436339D01*
X184105634Y-109436339D02*
X184172301Y-109369673D01*
X184172301Y-109369673D02*
X184205634Y-109303006D01*
X184705634Y-110369673D02*
X184705634Y-109969673D01*
X184705634Y-110169673D02*
X184005634Y-110169673D01*
X184005634Y-110169673D02*
X184105634Y-110103006D01*
X184105634Y-110103006D02*
X184172301Y-110036340D01*
X184172301Y-110036340D02*
X184205634Y-109969673D01*
X191374366Y-99104999D02*
X191407700Y-99071666D01*
X191407700Y-99071666D02*
X191441033Y-98971666D01*
X191441033Y-98971666D02*
X191441033Y-98904999D01*
X191441033Y-98904999D02*
X191407700Y-98804999D01*
X191407700Y-98804999D02*
X191341033Y-98738333D01*
X191341033Y-98738333D02*
X191274366Y-98704999D01*
X191274366Y-98704999D02*
X191141033Y-98671666D01*
X191141033Y-98671666D02*
X191041033Y-98671666D01*
X191041033Y-98671666D02*
X190907700Y-98704999D01*
X190907700Y-98704999D02*
X190841033Y-98738333D01*
X190841033Y-98738333D02*
X190774366Y-98804999D01*
X190774366Y-98804999D02*
X190741033Y-98904999D01*
X190741033Y-98904999D02*
X190741033Y-98971666D01*
X190741033Y-98971666D02*
X190774366Y-99071666D01*
X190774366Y-99071666D02*
X190807700Y-99104999D01*
X190741033Y-99738333D02*
X190741033Y-99404999D01*
X190741033Y-99404999D02*
X191074366Y-99371666D01*
X191074366Y-99371666D02*
X191041033Y-99404999D01*
X191041033Y-99404999D02*
X191007700Y-99471666D01*
X191007700Y-99471666D02*
X191007700Y-99638333D01*
X191007700Y-99638333D02*
X191041033Y-99704999D01*
X191041033Y-99704999D02*
X191074366Y-99738333D01*
X191074366Y-99738333D02*
X191141033Y-99771666D01*
X191141033Y-99771666D02*
X191307700Y-99771666D01*
X191307700Y-99771666D02*
X191374366Y-99738333D01*
X191374366Y-99738333D02*
X191407700Y-99704999D01*
X191407700Y-99704999D02*
X191441033Y-99638333D01*
X191441033Y-99638333D02*
X191441033Y-99471666D01*
X191441033Y-99471666D02*
X191407700Y-99404999D01*
X191407700Y-99404999D02*
X191374366Y-99371666D01*
X190974366Y-100371666D02*
X191441033Y-100371666D01*
X190707700Y-100205000D02*
X191207700Y-100038333D01*
X191207700Y-100038333D02*
X191207700Y-100471666D01*
X206200633Y-110524159D02*
X206767300Y-110524159D01*
X206767300Y-110524159D02*
X206833966Y-110557493D01*
X206833966Y-110557493D02*
X206867300Y-110590826D01*
X206867300Y-110590826D02*
X206900633Y-110657493D01*
X206900633Y-110657493D02*
X206900633Y-110790826D01*
X206900633Y-110790826D02*
X206867300Y-110857493D01*
X206867300Y-110857493D02*
X206833966Y-110890826D01*
X206833966Y-110890826D02*
X206767300Y-110924159D01*
X206767300Y-110924159D02*
X206200633Y-110924159D01*
X206900633Y-111624159D02*
X206900633Y-111224159D01*
X206900633Y-111424159D02*
X206200633Y-111424159D01*
X206200633Y-111424159D02*
X206300633Y-111357492D01*
X206300633Y-111357492D02*
X206367300Y-111290826D01*
X206367300Y-111290826D02*
X206400633Y-111224159D01*
X206433966Y-112224159D02*
X206900633Y-112224159D01*
X206167300Y-112057493D02*
X206667300Y-111890826D01*
X206667300Y-111890826D02*
X206667300Y-112324159D01*
X205984450Y-98348333D02*
X205951116Y-98281666D01*
X205951116Y-98281666D02*
X205884450Y-98215000D01*
X205884450Y-98215000D02*
X205784450Y-98115000D01*
X205784450Y-98115000D02*
X205751116Y-98048333D01*
X205751116Y-98048333D02*
X205751116Y-97981666D01*
X205917783Y-98015000D02*
X205884450Y-97948333D01*
X205884450Y-97948333D02*
X205817783Y-97881666D01*
X205817783Y-97881666D02*
X205684450Y-97848333D01*
X205684450Y-97848333D02*
X205451116Y-97848333D01*
X205451116Y-97848333D02*
X205317783Y-97881666D01*
X205317783Y-97881666D02*
X205251116Y-97948333D01*
X205251116Y-97948333D02*
X205217783Y-98015000D01*
X205217783Y-98015000D02*
X205217783Y-98148333D01*
X205217783Y-98148333D02*
X205251116Y-98215000D01*
X205251116Y-98215000D02*
X205317783Y-98281666D01*
X205317783Y-98281666D02*
X205451116Y-98315000D01*
X205451116Y-98315000D02*
X205684450Y-98315000D01*
X205684450Y-98315000D02*
X205817783Y-98281666D01*
X205817783Y-98281666D02*
X205884450Y-98215000D01*
X205884450Y-98215000D02*
X205917783Y-98148333D01*
X205917783Y-98148333D02*
X205917783Y-98015000D01*
X205917783Y-98981666D02*
X205917783Y-98581666D01*
X205917783Y-98781666D02*
X205217783Y-98781666D01*
X205217783Y-98781666D02*
X205317783Y-98714999D01*
X205317783Y-98714999D02*
X205384450Y-98648333D01*
X205384450Y-98648333D02*
X205417783Y-98581666D01*
X190116427Y-106416451D02*
X190116427Y-105716451D01*
X190116427Y-105716451D02*
X189949760Y-105716451D01*
X189949760Y-105716451D02*
X189849760Y-105749784D01*
X189849760Y-105749784D02*
X189783094Y-105816451D01*
X189783094Y-105816451D02*
X189749760Y-105883118D01*
X189749760Y-105883118D02*
X189716427Y-106016451D01*
X189716427Y-106016451D02*
X189716427Y-106116451D01*
X189716427Y-106116451D02*
X189749760Y-106249784D01*
X189749760Y-106249784D02*
X189783094Y-106316451D01*
X189783094Y-106316451D02*
X189849760Y-106383118D01*
X189849760Y-106383118D02*
X189949760Y-106416451D01*
X189949760Y-106416451D02*
X190116427Y-106416451D01*
X189049760Y-106416451D02*
X189449760Y-106416451D01*
X189249760Y-106416451D02*
X189249760Y-105716451D01*
X189249760Y-105716451D02*
X189316427Y-105816451D01*
X189316427Y-105816451D02*
X189383094Y-105883118D01*
X189383094Y-105883118D02*
X189449760Y-105916451D01*
X188449760Y-105716451D02*
X188583093Y-105716451D01*
X188583093Y-105716451D02*
X188649760Y-105749784D01*
X188649760Y-105749784D02*
X188683093Y-105783118D01*
X188683093Y-105783118D02*
X188749760Y-105883118D01*
X188749760Y-105883118D02*
X188783093Y-106016451D01*
X188783093Y-106016451D02*
X188783093Y-106283118D01*
X188783093Y-106283118D02*
X188749760Y-106349784D01*
X188749760Y-106349784D02*
X188716427Y-106383118D01*
X188716427Y-106383118D02*
X188649760Y-106416451D01*
X188649760Y-106416451D02*
X188516427Y-106416451D01*
X188516427Y-106416451D02*
X188449760Y-106383118D01*
X188449760Y-106383118D02*
X188416427Y-106349784D01*
X188416427Y-106349784D02*
X188383093Y-106283118D01*
X188383093Y-106283118D02*
X188383093Y-106116451D01*
X188383093Y-106116451D02*
X188416427Y-106049784D01*
X188416427Y-106049784D02*
X188449760Y-106016451D01*
X188449760Y-106016451D02*
X188516427Y-105983118D01*
X188516427Y-105983118D02*
X188649760Y-105983118D01*
X188649760Y-105983118D02*
X188716427Y-106016451D01*
X188716427Y-106016451D02*
X188749760Y-106049784D01*
X188749760Y-106049784D02*
X188783093Y-106116451D01*
X199894999Y-115324366D02*
X199928332Y-115357700D01*
X199928332Y-115357700D02*
X200028332Y-115391033D01*
X200028332Y-115391033D02*
X200094999Y-115391033D01*
X200094999Y-115391033D02*
X200194999Y-115357700D01*
X200194999Y-115357700D02*
X200261666Y-115291033D01*
X200261666Y-115291033D02*
X200294999Y-115224366D01*
X200294999Y-115224366D02*
X200328332Y-115091033D01*
X200328332Y-115091033D02*
X200328332Y-114991033D01*
X200328332Y-114991033D02*
X200294999Y-114857700D01*
X200294999Y-114857700D02*
X200261666Y-114791033D01*
X200261666Y-114791033D02*
X200194999Y-114724366D01*
X200194999Y-114724366D02*
X200094999Y-114691033D01*
X200094999Y-114691033D02*
X200028332Y-114691033D01*
X200028332Y-114691033D02*
X199928332Y-114724366D01*
X199928332Y-114724366D02*
X199894999Y-114757700D01*
X199661666Y-114691033D02*
X199194999Y-114691033D01*
X199194999Y-114691033D02*
X199494999Y-115391033D01*
X198561665Y-115391033D02*
X198961665Y-115391033D01*
X198761665Y-115391033D02*
X198761665Y-114691033D01*
X198761665Y-114691033D02*
X198828332Y-114791033D01*
X198828332Y-114791033D02*
X198894999Y-114857700D01*
X198894999Y-114857700D02*
X198961665Y-114891033D01*
X194843198Y-116767738D02*
X194843198Y-116067738D01*
X194843198Y-116067738D02*
X194676531Y-116067738D01*
X194676531Y-116067738D02*
X194576531Y-116101071D01*
X194576531Y-116101071D02*
X194509865Y-116167738D01*
X194509865Y-116167738D02*
X194476531Y-116234405D01*
X194476531Y-116234405D02*
X194443198Y-116367738D01*
X194443198Y-116367738D02*
X194443198Y-116467738D01*
X194443198Y-116467738D02*
X194476531Y-116601071D01*
X194476531Y-116601071D02*
X194509865Y-116667738D01*
X194509865Y-116667738D02*
X194576531Y-116734405D01*
X194576531Y-116734405D02*
X194676531Y-116767738D01*
X194676531Y-116767738D02*
X194843198Y-116767738D01*
X194176531Y-116134405D02*
X194143198Y-116101071D01*
X194143198Y-116101071D02*
X194076531Y-116067738D01*
X194076531Y-116067738D02*
X193909865Y-116067738D01*
X193909865Y-116067738D02*
X193843198Y-116101071D01*
X193843198Y-116101071D02*
X193809865Y-116134405D01*
X193809865Y-116134405D02*
X193776531Y-116201071D01*
X193776531Y-116201071D02*
X193776531Y-116267738D01*
X193776531Y-116267738D02*
X193809865Y-116367738D01*
X193809865Y-116367738D02*
X194209865Y-116767738D01*
X194209865Y-116767738D02*
X193776531Y-116767738D01*
X193176531Y-116301071D02*
X193176531Y-116767738D01*
X193343198Y-116034405D02*
X193509864Y-116534405D01*
X193509864Y-116534405D02*
X193076531Y-116534405D01*
X192591427Y-103381451D02*
X192591427Y-102681451D01*
X192591427Y-102681451D02*
X192424760Y-102681451D01*
X192424760Y-102681451D02*
X192324760Y-102714784D01*
X192324760Y-102714784D02*
X192258094Y-102781451D01*
X192258094Y-102781451D02*
X192224760Y-102848118D01*
X192224760Y-102848118D02*
X192191427Y-102981451D01*
X192191427Y-102981451D02*
X192191427Y-103081451D01*
X192191427Y-103081451D02*
X192224760Y-103214784D01*
X192224760Y-103214784D02*
X192258094Y-103281451D01*
X192258094Y-103281451D02*
X192324760Y-103348118D01*
X192324760Y-103348118D02*
X192424760Y-103381451D01*
X192424760Y-103381451D02*
X192591427Y-103381451D01*
X191524760Y-103381451D02*
X191924760Y-103381451D01*
X191724760Y-103381451D02*
X191724760Y-102681451D01*
X191724760Y-102681451D02*
X191791427Y-102781451D01*
X191791427Y-102781451D02*
X191858094Y-102848118D01*
X191858094Y-102848118D02*
X191924760Y-102881451D01*
X190924760Y-102914784D02*
X190924760Y-103381451D01*
X191091427Y-102648118D02*
X191258093Y-103148118D01*
X191258093Y-103148118D02*
X190824760Y-103148118D01*
X181128187Y-112609480D02*
X181361520Y-112276147D01*
X181528187Y-112609480D02*
X181528187Y-111909480D01*
X181528187Y-111909480D02*
X181261520Y-111909480D01*
X181261520Y-111909480D02*
X181194854Y-111942813D01*
X181194854Y-111942813D02*
X181161520Y-111976147D01*
X181161520Y-111976147D02*
X181128187Y-112042813D01*
X181128187Y-112042813D02*
X181128187Y-112142813D01*
X181128187Y-112142813D02*
X181161520Y-112209480D01*
X181161520Y-112209480D02*
X181194854Y-112242813D01*
X181194854Y-112242813D02*
X181261520Y-112276147D01*
X181261520Y-112276147D02*
X181528187Y-112276147D01*
X180461520Y-112609480D02*
X180861520Y-112609480D01*
X180661520Y-112609480D02*
X180661520Y-111909480D01*
X180661520Y-111909480D02*
X180728187Y-112009480D01*
X180728187Y-112009480D02*
X180794854Y-112076147D01*
X180794854Y-112076147D02*
X180861520Y-112109480D01*
X179861520Y-111909480D02*
X179994853Y-111909480D01*
X179994853Y-111909480D02*
X180061520Y-111942813D01*
X180061520Y-111942813D02*
X180094853Y-111976147D01*
X180094853Y-111976147D02*
X180161520Y-112076147D01*
X180161520Y-112076147D02*
X180194853Y-112209480D01*
X180194853Y-112209480D02*
X180194853Y-112476147D01*
X180194853Y-112476147D02*
X180161520Y-112542813D01*
X180161520Y-112542813D02*
X180128187Y-112576147D01*
X180128187Y-112576147D02*
X180061520Y-112609480D01*
X180061520Y-112609480D02*
X179928187Y-112609480D01*
X179928187Y-112609480D02*
X179861520Y-112576147D01*
X179861520Y-112576147D02*
X179828187Y-112542813D01*
X179828187Y-112542813D02*
X179794853Y-112476147D01*
X179794853Y-112476147D02*
X179794853Y-112309480D01*
X179794853Y-112309480D02*
X179828187Y-112242813D01*
X179828187Y-112242813D02*
X179861520Y-112209480D01*
X179861520Y-112209480D02*
X179928187Y-112176147D01*
X179928187Y-112176147D02*
X180061520Y-112176147D01*
X180061520Y-112176147D02*
X180128187Y-112209480D01*
X180128187Y-112209480D02*
X180161520Y-112242813D01*
X180161520Y-112242813D02*
X180194853Y-112309480D01*
X209955000Y-90361033D02*
X210188333Y-90027700D01*
X210355000Y-90361033D02*
X210355000Y-89661033D01*
X210355000Y-89661033D02*
X210088333Y-89661033D01*
X210088333Y-89661033D02*
X210021667Y-89694366D01*
X210021667Y-89694366D02*
X209988333Y-89727700D01*
X209988333Y-89727700D02*
X209955000Y-89794366D01*
X209955000Y-89794366D02*
X209955000Y-89894366D01*
X209955000Y-89894366D02*
X209988333Y-89961033D01*
X209988333Y-89961033D02*
X210021667Y-89994366D01*
X210021667Y-89994366D02*
X210088333Y-90027700D01*
X210088333Y-90027700D02*
X210355000Y-90027700D01*
X209355000Y-89894366D02*
X209355000Y-90361033D01*
X209521667Y-89627700D02*
X209688333Y-90127700D01*
X209688333Y-90127700D02*
X209255000Y-90127700D01*
X208888333Y-89961033D02*
X208955000Y-89927700D01*
X208955000Y-89927700D02*
X208988333Y-89894366D01*
X208988333Y-89894366D02*
X209021666Y-89827700D01*
X209021666Y-89827700D02*
X209021666Y-89794366D01*
X209021666Y-89794366D02*
X208988333Y-89727700D01*
X208988333Y-89727700D02*
X208955000Y-89694366D01*
X208955000Y-89694366D02*
X208888333Y-89661033D01*
X208888333Y-89661033D02*
X208755000Y-89661033D01*
X208755000Y-89661033D02*
X208688333Y-89694366D01*
X208688333Y-89694366D02*
X208655000Y-89727700D01*
X208655000Y-89727700D02*
X208621666Y-89794366D01*
X208621666Y-89794366D02*
X208621666Y-89827700D01*
X208621666Y-89827700D02*
X208655000Y-89894366D01*
X208655000Y-89894366D02*
X208688333Y-89927700D01*
X208688333Y-89927700D02*
X208755000Y-89961033D01*
X208755000Y-89961033D02*
X208888333Y-89961033D01*
X208888333Y-89961033D02*
X208955000Y-89994366D01*
X208955000Y-89994366D02*
X208988333Y-90027700D01*
X208988333Y-90027700D02*
X209021666Y-90094366D01*
X209021666Y-90094366D02*
X209021666Y-90227700D01*
X209021666Y-90227700D02*
X208988333Y-90294366D01*
X208988333Y-90294366D02*
X208955000Y-90327700D01*
X208955000Y-90327700D02*
X208888333Y-90361033D01*
X208888333Y-90361033D02*
X208755000Y-90361033D01*
X208755000Y-90361033D02*
X208688333Y-90327700D01*
X208688333Y-90327700D02*
X208655000Y-90294366D01*
X208655000Y-90294366D02*
X208621666Y-90227700D01*
X208621666Y-90227700D02*
X208621666Y-90094366D01*
X208621666Y-90094366D02*
X208655000Y-90027700D01*
X208655000Y-90027700D02*
X208688333Y-89994366D01*
X208688333Y-89994366D02*
X208755000Y-89961033D01*
X205524187Y-114423724D02*
X205757520Y-114090391D01*
X205924187Y-114423724D02*
X205924187Y-113723724D01*
X205924187Y-113723724D02*
X205657520Y-113723724D01*
X205657520Y-113723724D02*
X205590854Y-113757057D01*
X205590854Y-113757057D02*
X205557520Y-113790391D01*
X205557520Y-113790391D02*
X205524187Y-113857057D01*
X205524187Y-113857057D02*
X205524187Y-113957057D01*
X205524187Y-113957057D02*
X205557520Y-114023724D01*
X205557520Y-114023724D02*
X205590854Y-114057057D01*
X205590854Y-114057057D02*
X205657520Y-114090391D01*
X205657520Y-114090391D02*
X205924187Y-114090391D01*
X204890854Y-113723724D02*
X205224187Y-113723724D01*
X205224187Y-113723724D02*
X205257520Y-114057057D01*
X205257520Y-114057057D02*
X205224187Y-114023724D01*
X205224187Y-114023724D02*
X205157520Y-113990391D01*
X205157520Y-113990391D02*
X204990854Y-113990391D01*
X204990854Y-113990391D02*
X204924187Y-114023724D01*
X204924187Y-114023724D02*
X204890854Y-114057057D01*
X204890854Y-114057057D02*
X204857520Y-114123724D01*
X204857520Y-114123724D02*
X204857520Y-114290391D01*
X204857520Y-114290391D02*
X204890854Y-114357057D01*
X204890854Y-114357057D02*
X204924187Y-114390391D01*
X204924187Y-114390391D02*
X204990854Y-114423724D01*
X204990854Y-114423724D02*
X205157520Y-114423724D01*
X205157520Y-114423724D02*
X205224187Y-114390391D01*
X205224187Y-114390391D02*
X205257520Y-114357057D01*
X204224187Y-113723724D02*
X204557520Y-113723724D01*
X204557520Y-113723724D02*
X204590853Y-114057057D01*
X204590853Y-114057057D02*
X204557520Y-114023724D01*
X204557520Y-114023724D02*
X204490853Y-113990391D01*
X204490853Y-113990391D02*
X204324187Y-113990391D01*
X204324187Y-113990391D02*
X204257520Y-114023724D01*
X204257520Y-114023724D02*
X204224187Y-114057057D01*
X204224187Y-114057057D02*
X204190853Y-114123724D01*
X204190853Y-114123724D02*
X204190853Y-114290391D01*
X204190853Y-114290391D02*
X204224187Y-114357057D01*
X204224187Y-114357057D02*
X204257520Y-114390391D01*
X204257520Y-114390391D02*
X204324187Y-114423724D01*
X204324187Y-114423724D02*
X204490853Y-114423724D01*
X204490853Y-114423724D02*
X204557520Y-114390391D01*
X204557520Y-114390391D02*
X204590853Y-114357057D01*
X182191034Y-83138333D02*
X181857701Y-82905000D01*
X182191034Y-82738333D02*
X181491034Y-82738333D01*
X181491034Y-82738333D02*
X181491034Y-83005000D01*
X181491034Y-83005000D02*
X181524367Y-83071667D01*
X181524367Y-83071667D02*
X181557701Y-83105000D01*
X181557701Y-83105000D02*
X181624367Y-83138333D01*
X181624367Y-83138333D02*
X181724367Y-83138333D01*
X181724367Y-83138333D02*
X181791034Y-83105000D01*
X181791034Y-83105000D02*
X181824367Y-83071667D01*
X181824367Y-83071667D02*
X181857701Y-83005000D01*
X181857701Y-83005000D02*
X181857701Y-82738333D01*
X182191034Y-83838333D02*
X181857701Y-83605000D01*
X182191034Y-83438333D02*
X181491034Y-83438333D01*
X181491034Y-83438333D02*
X181491034Y-83705000D01*
X181491034Y-83705000D02*
X181524367Y-83771667D01*
X181524367Y-83771667D02*
X181557701Y-83805000D01*
X181557701Y-83805000D02*
X181624367Y-83838333D01*
X181624367Y-83838333D02*
X181724367Y-83838333D01*
X181724367Y-83838333D02*
X181791034Y-83805000D01*
X181791034Y-83805000D02*
X181824367Y-83771667D01*
X181824367Y-83771667D02*
X181857701Y-83705000D01*
X181857701Y-83705000D02*
X181857701Y-83438333D01*
X182191034Y-84505000D02*
X182191034Y-84105000D01*
X182191034Y-84305000D02*
X181491034Y-84305000D01*
X181491034Y-84305000D02*
X181591034Y-84238333D01*
X181591034Y-84238333D02*
X181657701Y-84171667D01*
X181657701Y-84171667D02*
X181691034Y-84105000D01*
X183241989Y-103441601D02*
X183241989Y-103488741D01*
X183241989Y-103488741D02*
X183289129Y-103583022D01*
X183289129Y-103583022D02*
X183336270Y-103630162D01*
X183336270Y-103630162D02*
X183430551Y-103677303D01*
X183430551Y-103677303D02*
X183524832Y-103677303D01*
X183524832Y-103677303D02*
X183595542Y-103653733D01*
X183595542Y-103653733D02*
X183713393Y-103583022D01*
X183713393Y-103583022D02*
X183784104Y-103512311D01*
X183784104Y-103512311D02*
X183854815Y-103394460D01*
X183854815Y-103394460D02*
X183878385Y-103323750D01*
X183878385Y-103323750D02*
X183878385Y-103229469D01*
X183878385Y-103229469D02*
X183831245Y-103135188D01*
X183831245Y-103135188D02*
X183784104Y-103088047D01*
X183784104Y-103088047D02*
X183689823Y-103040907D01*
X183689823Y-103040907D02*
X183642683Y-103040907D01*
X183100568Y-102734494D02*
X182770584Y-103064477D01*
X183406981Y-102663783D02*
X183171278Y-103135188D01*
X183171278Y-103135188D02*
X182864865Y-102828775D01*
X183053427Y-102357370D02*
X182747014Y-102050957D01*
X182747014Y-102050957D02*
X182723444Y-102404510D01*
X182723444Y-102404510D02*
X182652733Y-102333800D01*
X182652733Y-102333800D02*
X182582022Y-102310230D01*
X182582022Y-102310230D02*
X182534882Y-102310230D01*
X182534882Y-102310230D02*
X182464171Y-102333800D01*
X182464171Y-102333800D02*
X182346320Y-102451651D01*
X182346320Y-102451651D02*
X182322750Y-102522362D01*
X182322750Y-102522362D02*
X182322750Y-102569502D01*
X182322750Y-102569502D02*
X182346320Y-102640213D01*
X182346320Y-102640213D02*
X182487741Y-102781634D01*
X182487741Y-102781634D02*
X182558452Y-102805204D01*
X182558452Y-102805204D02*
X182605593Y-102805204D01*
X169870892Y-103853372D02*
X170104225Y-103520039D01*
X170270892Y-103853372D02*
X170270892Y-103153372D01*
X170270892Y-103153372D02*
X170004225Y-103153372D01*
X170004225Y-103153372D02*
X169937559Y-103186705D01*
X169937559Y-103186705D02*
X169904225Y-103220039D01*
X169904225Y-103220039D02*
X169870892Y-103286705D01*
X169870892Y-103286705D02*
X169870892Y-103386705D01*
X169870892Y-103386705D02*
X169904225Y-103453372D01*
X169904225Y-103453372D02*
X169937559Y-103486705D01*
X169937559Y-103486705D02*
X170004225Y-103520039D01*
X170004225Y-103520039D02*
X170270892Y-103520039D01*
X169604225Y-103220039D02*
X169570892Y-103186705D01*
X169570892Y-103186705D02*
X169504225Y-103153372D01*
X169504225Y-103153372D02*
X169337559Y-103153372D01*
X169337559Y-103153372D02*
X169270892Y-103186705D01*
X169270892Y-103186705D02*
X169237559Y-103220039D01*
X169237559Y-103220039D02*
X169204225Y-103286705D01*
X169204225Y-103286705D02*
X169204225Y-103353372D01*
X169204225Y-103353372D02*
X169237559Y-103453372D01*
X169237559Y-103453372D02*
X169637559Y-103853372D01*
X169637559Y-103853372D02*
X169204225Y-103853372D01*
X168870892Y-103853372D02*
X168737558Y-103853372D01*
X168737558Y-103853372D02*
X168670892Y-103820039D01*
X168670892Y-103820039D02*
X168637558Y-103786705D01*
X168637558Y-103786705D02*
X168570892Y-103686705D01*
X168570892Y-103686705D02*
X168537558Y-103553372D01*
X168537558Y-103553372D02*
X168537558Y-103286705D01*
X168537558Y-103286705D02*
X168570892Y-103220039D01*
X168570892Y-103220039D02*
X168604225Y-103186705D01*
X168604225Y-103186705D02*
X168670892Y-103153372D01*
X168670892Y-103153372D02*
X168804225Y-103153372D01*
X168804225Y-103153372D02*
X168870892Y-103186705D01*
X168870892Y-103186705D02*
X168904225Y-103220039D01*
X168904225Y-103220039D02*
X168937558Y-103286705D01*
X168937558Y-103286705D02*
X168937558Y-103453372D01*
X168937558Y-103453372D02*
X168904225Y-103520039D01*
X168904225Y-103520039D02*
X168870892Y-103553372D01*
X168870892Y-103553372D02*
X168804225Y-103586705D01*
X168804225Y-103586705D02*
X168670892Y-103586705D01*
X168670892Y-103586705D02*
X168604225Y-103553372D01*
X168604225Y-103553372D02*
X168570892Y-103520039D01*
X168570892Y-103520039D02*
X168537558Y-103453372D01*
X174582538Y-101240462D02*
X174629678Y-101240462D01*
X174629678Y-101240462D02*
X174723959Y-101193322D01*
X174723959Y-101193322D02*
X174771099Y-101146181D01*
X174771099Y-101146181D02*
X174818240Y-101051900D01*
X174818240Y-101051900D02*
X174818240Y-100957619D01*
X174818240Y-100957619D02*
X174794670Y-100886909D01*
X174794670Y-100886909D02*
X174723959Y-100769058D01*
X174723959Y-100769058D02*
X174653248Y-100698347D01*
X174653248Y-100698347D02*
X174535397Y-100627636D01*
X174535397Y-100627636D02*
X174464687Y-100604066D01*
X174464687Y-100604066D02*
X174370406Y-100604066D01*
X174370406Y-100604066D02*
X174276125Y-100651206D01*
X174276125Y-100651206D02*
X174228984Y-100698347D01*
X174228984Y-100698347D02*
X174181844Y-100792628D01*
X174181844Y-100792628D02*
X174181844Y-100839768D01*
X174158274Y-101759007D02*
X174441116Y-101476164D01*
X174299695Y-101617586D02*
X173804720Y-101122611D01*
X173804720Y-101122611D02*
X173922571Y-101146181D01*
X173922571Y-101146181D02*
X174016852Y-101146181D01*
X174016852Y-101146181D02*
X174087563Y-101122611D01*
X173922571Y-101994710D02*
X173828290Y-102088990D01*
X173828290Y-102088990D02*
X173757580Y-102112561D01*
X173757580Y-102112561D02*
X173710439Y-102112561D01*
X173710439Y-102112561D02*
X173592588Y-102088990D01*
X173592588Y-102088990D02*
X173474737Y-102018280D01*
X173474737Y-102018280D02*
X173286175Y-101829718D01*
X173286175Y-101829718D02*
X173262605Y-101759007D01*
X173262605Y-101759007D02*
X173262605Y-101711867D01*
X173262605Y-101711867D02*
X173286175Y-101641156D01*
X173286175Y-101641156D02*
X173380456Y-101546875D01*
X173380456Y-101546875D02*
X173451167Y-101523305D01*
X173451167Y-101523305D02*
X173498307Y-101523305D01*
X173498307Y-101523305D02*
X173569018Y-101546875D01*
X173569018Y-101546875D02*
X173686869Y-101664726D01*
X173686869Y-101664726D02*
X173710439Y-101735437D01*
X173710439Y-101735437D02*
X173710439Y-101782578D01*
X173710439Y-101782578D02*
X173686869Y-101853288D01*
X173686869Y-101853288D02*
X173592588Y-101947569D01*
X173592588Y-101947569D02*
X173521877Y-101971139D01*
X173521877Y-101971139D02*
X173474737Y-101971139D01*
X173474737Y-101971139D02*
X173404026Y-101947569D01*
X192140000Y-93306033D02*
X192373333Y-92972700D01*
X192540000Y-93306033D02*
X192540000Y-92606033D01*
X192540000Y-92606033D02*
X192273333Y-92606033D01*
X192273333Y-92606033D02*
X192206667Y-92639366D01*
X192206667Y-92639366D02*
X192173333Y-92672700D01*
X192173333Y-92672700D02*
X192140000Y-92739366D01*
X192140000Y-92739366D02*
X192140000Y-92839366D01*
X192140000Y-92839366D02*
X192173333Y-92906033D01*
X192173333Y-92906033D02*
X192206667Y-92939366D01*
X192206667Y-92939366D02*
X192273333Y-92972700D01*
X192273333Y-92972700D02*
X192540000Y-92972700D01*
X191906667Y-92606033D02*
X191473333Y-92606033D01*
X191473333Y-92606033D02*
X191706667Y-92872700D01*
X191706667Y-92872700D02*
X191606667Y-92872700D01*
X191606667Y-92872700D02*
X191540000Y-92906033D01*
X191540000Y-92906033D02*
X191506667Y-92939366D01*
X191506667Y-92939366D02*
X191473333Y-93006033D01*
X191473333Y-93006033D02*
X191473333Y-93172700D01*
X191473333Y-93172700D02*
X191506667Y-93239366D01*
X191506667Y-93239366D02*
X191540000Y-93272700D01*
X191540000Y-93272700D02*
X191606667Y-93306033D01*
X191606667Y-93306033D02*
X191806667Y-93306033D01*
X191806667Y-93306033D02*
X191873333Y-93272700D01*
X191873333Y-93272700D02*
X191906667Y-93239366D01*
X191073333Y-92906033D02*
X191140000Y-92872700D01*
X191140000Y-92872700D02*
X191173333Y-92839366D01*
X191173333Y-92839366D02*
X191206666Y-92772700D01*
X191206666Y-92772700D02*
X191206666Y-92739366D01*
X191206666Y-92739366D02*
X191173333Y-92672700D01*
X191173333Y-92672700D02*
X191140000Y-92639366D01*
X191140000Y-92639366D02*
X191073333Y-92606033D01*
X191073333Y-92606033D02*
X190940000Y-92606033D01*
X190940000Y-92606033D02*
X190873333Y-92639366D01*
X190873333Y-92639366D02*
X190840000Y-92672700D01*
X190840000Y-92672700D02*
X190806666Y-92739366D01*
X190806666Y-92739366D02*
X190806666Y-92772700D01*
X190806666Y-92772700D02*
X190840000Y-92839366D01*
X190840000Y-92839366D02*
X190873333Y-92872700D01*
X190873333Y-92872700D02*
X190940000Y-92906033D01*
X190940000Y-92906033D02*
X191073333Y-92906033D01*
X191073333Y-92906033D02*
X191140000Y-92939366D01*
X191140000Y-92939366D02*
X191173333Y-92972700D01*
X191173333Y-92972700D02*
X191206666Y-93039366D01*
X191206666Y-93039366D02*
X191206666Y-93172700D01*
X191206666Y-93172700D02*
X191173333Y-93239366D01*
X191173333Y-93239366D02*
X191140000Y-93272700D01*
X191140000Y-93272700D02*
X191073333Y-93306033D01*
X191073333Y-93306033D02*
X190940000Y-93306033D01*
X190940000Y-93306033D02*
X190873333Y-93272700D01*
X190873333Y-93272700D02*
X190840000Y-93239366D01*
X190840000Y-93239366D02*
X190806666Y-93172700D01*
X190806666Y-93172700D02*
X190806666Y-93039366D01*
X190806666Y-93039366D02*
X190840000Y-92972700D01*
X190840000Y-92972700D02*
X190873333Y-92939366D01*
X190873333Y-92939366D02*
X190940000Y-92906033D01*
X199624366Y-91084999D02*
X199657700Y-91051666D01*
X199657700Y-91051666D02*
X199691033Y-90951666D01*
X199691033Y-90951666D02*
X199691033Y-90884999D01*
X199691033Y-90884999D02*
X199657700Y-90784999D01*
X199657700Y-90784999D02*
X199591033Y-90718333D01*
X199591033Y-90718333D02*
X199524366Y-90684999D01*
X199524366Y-90684999D02*
X199391033Y-90651666D01*
X199391033Y-90651666D02*
X199291033Y-90651666D01*
X199291033Y-90651666D02*
X199157700Y-90684999D01*
X199157700Y-90684999D02*
X199091033Y-90718333D01*
X199091033Y-90718333D02*
X199024366Y-90784999D01*
X199024366Y-90784999D02*
X198991033Y-90884999D01*
X198991033Y-90884999D02*
X198991033Y-90951666D01*
X198991033Y-90951666D02*
X199024366Y-91051666D01*
X199024366Y-91051666D02*
X199057700Y-91084999D01*
X198991033Y-91684999D02*
X198991033Y-91551666D01*
X198991033Y-91551666D02*
X199024366Y-91484999D01*
X199024366Y-91484999D02*
X199057700Y-91451666D01*
X199057700Y-91451666D02*
X199157700Y-91384999D01*
X199157700Y-91384999D02*
X199291033Y-91351666D01*
X199291033Y-91351666D02*
X199557700Y-91351666D01*
X199557700Y-91351666D02*
X199624366Y-91384999D01*
X199624366Y-91384999D02*
X199657700Y-91418333D01*
X199657700Y-91418333D02*
X199691033Y-91484999D01*
X199691033Y-91484999D02*
X199691033Y-91618333D01*
X199691033Y-91618333D02*
X199657700Y-91684999D01*
X199657700Y-91684999D02*
X199624366Y-91718333D01*
X199624366Y-91718333D02*
X199557700Y-91751666D01*
X199557700Y-91751666D02*
X199391033Y-91751666D01*
X199391033Y-91751666D02*
X199324366Y-91718333D01*
X199324366Y-91718333D02*
X199291033Y-91684999D01*
X199291033Y-91684999D02*
X199257700Y-91618333D01*
X199257700Y-91618333D02*
X199257700Y-91484999D01*
X199257700Y-91484999D02*
X199291033Y-91418333D01*
X199291033Y-91418333D02*
X199324366Y-91384999D01*
X199324366Y-91384999D02*
X199391033Y-91351666D01*
X198991033Y-92185000D02*
X198991033Y-92251666D01*
X198991033Y-92251666D02*
X199024366Y-92318333D01*
X199024366Y-92318333D02*
X199057700Y-92351666D01*
X199057700Y-92351666D02*
X199124366Y-92385000D01*
X199124366Y-92385000D02*
X199257700Y-92418333D01*
X199257700Y-92418333D02*
X199424366Y-92418333D01*
X199424366Y-92418333D02*
X199557700Y-92385000D01*
X199557700Y-92385000D02*
X199624366Y-92351666D01*
X199624366Y-92351666D02*
X199657700Y-92318333D01*
X199657700Y-92318333D02*
X199691033Y-92251666D01*
X199691033Y-92251666D02*
X199691033Y-92185000D01*
X199691033Y-92185000D02*
X199657700Y-92118333D01*
X199657700Y-92118333D02*
X199624366Y-92085000D01*
X199624366Y-92085000D02*
X199557700Y-92051666D01*
X199557700Y-92051666D02*
X199424366Y-92018333D01*
X199424366Y-92018333D02*
X199257700Y-92018333D01*
X199257700Y-92018333D02*
X199124366Y-92051666D01*
X199124366Y-92051666D02*
X199057700Y-92085000D01*
X199057700Y-92085000D02*
X199024366Y-92118333D01*
X199024366Y-92118333D02*
X198991033Y-92185000D01*
X193251033Y-83294998D02*
X192917700Y-83061665D01*
X193251033Y-82894998D02*
X192551033Y-82894998D01*
X192551033Y-82894998D02*
X192551033Y-83161665D01*
X192551033Y-83161665D02*
X192584366Y-83228332D01*
X192584366Y-83228332D02*
X192617700Y-83261665D01*
X192617700Y-83261665D02*
X192684366Y-83294998D01*
X192684366Y-83294998D02*
X192784366Y-83294998D01*
X192784366Y-83294998D02*
X192851033Y-83261665D01*
X192851033Y-83261665D02*
X192884366Y-83228332D01*
X192884366Y-83228332D02*
X192917700Y-83161665D01*
X192917700Y-83161665D02*
X192917700Y-82894998D01*
X192617700Y-83561665D02*
X192584366Y-83594998D01*
X192584366Y-83594998D02*
X192551033Y-83661665D01*
X192551033Y-83661665D02*
X192551033Y-83828332D01*
X192551033Y-83828332D02*
X192584366Y-83894998D01*
X192584366Y-83894998D02*
X192617700Y-83928332D01*
X192617700Y-83928332D02*
X192684366Y-83961665D01*
X192684366Y-83961665D02*
X192751033Y-83961665D01*
X192751033Y-83961665D02*
X192851033Y-83928332D01*
X192851033Y-83928332D02*
X193251033Y-83528332D01*
X193251033Y-83528332D02*
X193251033Y-83961665D01*
X192551033Y-84394999D02*
X192551033Y-84461665D01*
X192551033Y-84461665D02*
X192584366Y-84528332D01*
X192584366Y-84528332D02*
X192617700Y-84561665D01*
X192617700Y-84561665D02*
X192684366Y-84594999D01*
X192684366Y-84594999D02*
X192817700Y-84628332D01*
X192817700Y-84628332D02*
X192984366Y-84628332D01*
X192984366Y-84628332D02*
X193117700Y-84594999D01*
X193117700Y-84594999D02*
X193184366Y-84561665D01*
X193184366Y-84561665D02*
X193217700Y-84528332D01*
X193217700Y-84528332D02*
X193251033Y-84461665D01*
X193251033Y-84461665D02*
X193251033Y-84394999D01*
X193251033Y-84394999D02*
X193217700Y-84328332D01*
X193217700Y-84328332D02*
X193184366Y-84294999D01*
X193184366Y-84294999D02*
X193117700Y-84261665D01*
X193117700Y-84261665D02*
X192984366Y-84228332D01*
X192984366Y-84228332D02*
X192817700Y-84228332D01*
X192817700Y-84228332D02*
X192684366Y-84261665D01*
X192684366Y-84261665D02*
X192617700Y-84294999D01*
X192617700Y-84294999D02*
X192584366Y-84328332D01*
X192584366Y-84328332D02*
X192551033Y-84394999D01*
X181365492Y-110562008D02*
X181398826Y-110528675D01*
X181398826Y-110528675D02*
X181432159Y-110428675D01*
X181432159Y-110428675D02*
X181432159Y-110362008D01*
X181432159Y-110362008D02*
X181398826Y-110262008D01*
X181398826Y-110262008D02*
X181332159Y-110195342D01*
X181332159Y-110195342D02*
X181265492Y-110162008D01*
X181265492Y-110162008D02*
X181132159Y-110128675D01*
X181132159Y-110128675D02*
X181032159Y-110128675D01*
X181032159Y-110128675D02*
X180898826Y-110162008D01*
X180898826Y-110162008D02*
X180832159Y-110195342D01*
X180832159Y-110195342D02*
X180765492Y-110262008D01*
X180765492Y-110262008D02*
X180732159Y-110362008D01*
X180732159Y-110362008D02*
X180732159Y-110428675D01*
X180732159Y-110428675D02*
X180765492Y-110528675D01*
X180765492Y-110528675D02*
X180798826Y-110562008D01*
X180732159Y-111162008D02*
X180732159Y-111028675D01*
X180732159Y-111028675D02*
X180765492Y-110962008D01*
X180765492Y-110962008D02*
X180798826Y-110928675D01*
X180798826Y-110928675D02*
X180898826Y-110862008D01*
X180898826Y-110862008D02*
X181032159Y-110828675D01*
X181032159Y-110828675D02*
X181298826Y-110828675D01*
X181298826Y-110828675D02*
X181365492Y-110862008D01*
X181365492Y-110862008D02*
X181398826Y-110895342D01*
X181398826Y-110895342D02*
X181432159Y-110962008D01*
X181432159Y-110962008D02*
X181432159Y-111095342D01*
X181432159Y-111095342D02*
X181398826Y-111162008D01*
X181398826Y-111162008D02*
X181365492Y-111195342D01*
X181365492Y-111195342D02*
X181298826Y-111228675D01*
X181298826Y-111228675D02*
X181132159Y-111228675D01*
X181132159Y-111228675D02*
X181065492Y-111195342D01*
X181065492Y-111195342D02*
X181032159Y-111162008D01*
X181032159Y-111162008D02*
X180998826Y-111095342D01*
X180998826Y-111095342D02*
X180998826Y-110962008D01*
X180998826Y-110962008D02*
X181032159Y-110895342D01*
X181032159Y-110895342D02*
X181065492Y-110862008D01*
X181065492Y-110862008D02*
X181132159Y-110828675D01*
X164715360Y-105624227D02*
X164682026Y-105557560D01*
X164682026Y-105557560D02*
X164615360Y-105490894D01*
X164615360Y-105490894D02*
X164515360Y-105390894D01*
X164515360Y-105390894D02*
X164482026Y-105324227D01*
X164482026Y-105324227D02*
X164482026Y-105257560D01*
X164648693Y-105290894D02*
X164615360Y-105224227D01*
X164615360Y-105224227D02*
X164548693Y-105157560D01*
X164548693Y-105157560D02*
X164415360Y-105124227D01*
X164415360Y-105124227D02*
X164182026Y-105124227D01*
X164182026Y-105124227D02*
X164048693Y-105157560D01*
X164048693Y-105157560D02*
X163982026Y-105224227D01*
X163982026Y-105224227D02*
X163948693Y-105290894D01*
X163948693Y-105290894D02*
X163948693Y-105424227D01*
X163948693Y-105424227D02*
X163982026Y-105490894D01*
X163982026Y-105490894D02*
X164048693Y-105557560D01*
X164048693Y-105557560D02*
X164182026Y-105590894D01*
X164182026Y-105590894D02*
X164415360Y-105590894D01*
X164415360Y-105590894D02*
X164548693Y-105557560D01*
X164548693Y-105557560D02*
X164615360Y-105490894D01*
X164615360Y-105490894D02*
X164648693Y-105424227D01*
X164648693Y-105424227D02*
X164648693Y-105290894D01*
X163948693Y-105824227D02*
X163948693Y-106257560D01*
X163948693Y-106257560D02*
X164215360Y-106024227D01*
X164215360Y-106024227D02*
X164215360Y-106124227D01*
X164215360Y-106124227D02*
X164248693Y-106190893D01*
X164248693Y-106190893D02*
X164282026Y-106224227D01*
X164282026Y-106224227D02*
X164348693Y-106257560D01*
X164348693Y-106257560D02*
X164515360Y-106257560D01*
X164515360Y-106257560D02*
X164582026Y-106224227D01*
X164582026Y-106224227D02*
X164615360Y-106190893D01*
X164615360Y-106190893D02*
X164648693Y-106124227D01*
X164648693Y-106124227D02*
X164648693Y-105924227D01*
X164648693Y-105924227D02*
X164615360Y-105857560D01*
X164615360Y-105857560D02*
X164582026Y-105824227D01*
X187683333Y-85536033D02*
X187683333Y-86102700D01*
X187683333Y-86102700D02*
X187650000Y-86169366D01*
X187650000Y-86169366D02*
X187616666Y-86202700D01*
X187616666Y-86202700D02*
X187550000Y-86236033D01*
X187550000Y-86236033D02*
X187416666Y-86236033D01*
X187416666Y-86236033D02*
X187350000Y-86202700D01*
X187350000Y-86202700D02*
X187316666Y-86169366D01*
X187316666Y-86169366D02*
X187283333Y-86102700D01*
X187283333Y-86102700D02*
X187283333Y-85536033D01*
X186616667Y-85536033D02*
X186950000Y-85536033D01*
X186950000Y-85536033D02*
X186983333Y-85869366D01*
X186983333Y-85869366D02*
X186950000Y-85836033D01*
X186950000Y-85836033D02*
X186883333Y-85802700D01*
X186883333Y-85802700D02*
X186716667Y-85802700D01*
X186716667Y-85802700D02*
X186650000Y-85836033D01*
X186650000Y-85836033D02*
X186616667Y-85869366D01*
X186616667Y-85869366D02*
X186583333Y-85936033D01*
X186583333Y-85936033D02*
X186583333Y-86102700D01*
X186583333Y-86102700D02*
X186616667Y-86169366D01*
X186616667Y-86169366D02*
X186650000Y-86202700D01*
X186650000Y-86202700D02*
X186716667Y-86236033D01*
X186716667Y-86236033D02*
X186883333Y-86236033D01*
X186883333Y-86236033D02*
X186950000Y-86202700D01*
X186950000Y-86202700D02*
X186983333Y-86169366D01*
X179442853Y-110582771D02*
X179476187Y-110549438D01*
X179476187Y-110549438D02*
X179509520Y-110449438D01*
X179509520Y-110449438D02*
X179509520Y-110382771D01*
X179509520Y-110382771D02*
X179476187Y-110282771D01*
X179476187Y-110282771D02*
X179409520Y-110216105D01*
X179409520Y-110216105D02*
X179342853Y-110182771D01*
X179342853Y-110182771D02*
X179209520Y-110149438D01*
X179209520Y-110149438D02*
X179109520Y-110149438D01*
X179109520Y-110149438D02*
X178976187Y-110182771D01*
X178976187Y-110182771D02*
X178909520Y-110216105D01*
X178909520Y-110216105D02*
X178842853Y-110282771D01*
X178842853Y-110282771D02*
X178809520Y-110382771D01*
X178809520Y-110382771D02*
X178809520Y-110449438D01*
X178809520Y-110449438D02*
X178842853Y-110549438D01*
X178842853Y-110549438D02*
X178876187Y-110582771D01*
X179109520Y-110982771D02*
X179076187Y-110916105D01*
X179076187Y-110916105D02*
X179042853Y-110882771D01*
X179042853Y-110882771D02*
X178976187Y-110849438D01*
X178976187Y-110849438D02*
X178942853Y-110849438D01*
X178942853Y-110849438D02*
X178876187Y-110882771D01*
X178876187Y-110882771D02*
X178842853Y-110916105D01*
X178842853Y-110916105D02*
X178809520Y-110982771D01*
X178809520Y-110982771D02*
X178809520Y-111116105D01*
X178809520Y-111116105D02*
X178842853Y-111182771D01*
X178842853Y-111182771D02*
X178876187Y-111216105D01*
X178876187Y-111216105D02*
X178942853Y-111249438D01*
X178942853Y-111249438D02*
X178976187Y-111249438D01*
X178976187Y-111249438D02*
X179042853Y-111216105D01*
X179042853Y-111216105D02*
X179076187Y-111182771D01*
X179076187Y-111182771D02*
X179109520Y-111116105D01*
X179109520Y-111116105D02*
X179109520Y-110982771D01*
X179109520Y-110982771D02*
X179142853Y-110916105D01*
X179142853Y-110916105D02*
X179176187Y-110882771D01*
X179176187Y-110882771D02*
X179242853Y-110849438D01*
X179242853Y-110849438D02*
X179376187Y-110849438D01*
X179376187Y-110849438D02*
X179442853Y-110882771D01*
X179442853Y-110882771D02*
X179476187Y-110916105D01*
X179476187Y-110916105D02*
X179509520Y-110982771D01*
X179509520Y-110982771D02*
X179509520Y-111116105D01*
X179509520Y-111116105D02*
X179476187Y-111182771D01*
X179476187Y-111182771D02*
X179442853Y-111216105D01*
X179442853Y-111216105D02*
X179376187Y-111249438D01*
X179376187Y-111249438D02*
X179242853Y-111249438D01*
X179242853Y-111249438D02*
X179176187Y-111216105D01*
X179176187Y-111216105D02*
X179142853Y-111182771D01*
X179142853Y-111182771D02*
X179109520Y-111116105D01*
X208973724Y-106735810D02*
X208640391Y-106502477D01*
X208973724Y-106335810D02*
X208273724Y-106335810D01*
X208273724Y-106335810D02*
X208273724Y-106602477D01*
X208273724Y-106602477D02*
X208307057Y-106669144D01*
X208307057Y-106669144D02*
X208340391Y-106702477D01*
X208340391Y-106702477D02*
X208407057Y-106735810D01*
X208407057Y-106735810D02*
X208507057Y-106735810D01*
X208507057Y-106735810D02*
X208573724Y-106702477D01*
X208573724Y-106702477D02*
X208607057Y-106669144D01*
X208607057Y-106669144D02*
X208640391Y-106602477D01*
X208640391Y-106602477D02*
X208640391Y-106335810D01*
X208273724Y-107369144D02*
X208273724Y-107035810D01*
X208273724Y-107035810D02*
X208607057Y-107002477D01*
X208607057Y-107002477D02*
X208573724Y-107035810D01*
X208573724Y-107035810D02*
X208540391Y-107102477D01*
X208540391Y-107102477D02*
X208540391Y-107269144D01*
X208540391Y-107269144D02*
X208573724Y-107335810D01*
X208573724Y-107335810D02*
X208607057Y-107369144D01*
X208607057Y-107369144D02*
X208673724Y-107402477D01*
X208673724Y-107402477D02*
X208840391Y-107402477D01*
X208840391Y-107402477D02*
X208907057Y-107369144D01*
X208907057Y-107369144D02*
X208940391Y-107335810D01*
X208940391Y-107335810D02*
X208973724Y-107269144D01*
X208973724Y-107269144D02*
X208973724Y-107102477D01*
X208973724Y-107102477D02*
X208940391Y-107035810D01*
X208940391Y-107035810D02*
X208907057Y-107002477D01*
X208273724Y-108002477D02*
X208273724Y-107869144D01*
X208273724Y-107869144D02*
X208307057Y-107802477D01*
X208307057Y-107802477D02*
X208340391Y-107769144D01*
X208340391Y-107769144D02*
X208440391Y-107702477D01*
X208440391Y-107702477D02*
X208573724Y-107669144D01*
X208573724Y-107669144D02*
X208840391Y-107669144D01*
X208840391Y-107669144D02*
X208907057Y-107702477D01*
X208907057Y-107702477D02*
X208940391Y-107735811D01*
X208940391Y-107735811D02*
X208973724Y-107802477D01*
X208973724Y-107802477D02*
X208973724Y-107935811D01*
X208973724Y-107935811D02*
X208940391Y-108002477D01*
X208940391Y-108002477D02*
X208907057Y-108035811D01*
X208907057Y-108035811D02*
X208840391Y-108069144D01*
X208840391Y-108069144D02*
X208673724Y-108069144D01*
X208673724Y-108069144D02*
X208607057Y-108035811D01*
X208607057Y-108035811D02*
X208573724Y-108002477D01*
X208573724Y-108002477D02*
X208540391Y-107935811D01*
X208540391Y-107935811D02*
X208540391Y-107802477D01*
X208540391Y-107802477D02*
X208573724Y-107735811D01*
X208573724Y-107735811D02*
X208607057Y-107702477D01*
X208607057Y-107702477D02*
X208673724Y-107669144D01*
X184489283Y-89162887D02*
X184536423Y-89162887D01*
X184536423Y-89162887D02*
X184630704Y-89115747D01*
X184630704Y-89115747D02*
X184677844Y-89068606D01*
X184677844Y-89068606D02*
X184724985Y-88974325D01*
X184724985Y-88974325D02*
X184724985Y-88880044D01*
X184724985Y-88880044D02*
X184701415Y-88809334D01*
X184701415Y-88809334D02*
X184630704Y-88691483D01*
X184630704Y-88691483D02*
X184559993Y-88620772D01*
X184559993Y-88620772D02*
X184442142Y-88550061D01*
X184442142Y-88550061D02*
X184371432Y-88526491D01*
X184371432Y-88526491D02*
X184277151Y-88526491D01*
X184277151Y-88526491D02*
X184182870Y-88573631D01*
X184182870Y-88573631D02*
X184135729Y-88620772D01*
X184135729Y-88620772D02*
X184088589Y-88715053D01*
X184088589Y-88715053D02*
X184088589Y-88762193D01*
X183876457Y-88880044D02*
X183570044Y-89186457D01*
X183570044Y-89186457D02*
X183923597Y-89210028D01*
X183923597Y-89210028D02*
X183852887Y-89280738D01*
X183852887Y-89280738D02*
X183829316Y-89351449D01*
X183829316Y-89351449D02*
X183829316Y-89398589D01*
X183829316Y-89398589D02*
X183852887Y-89469300D01*
X183852887Y-89469300D02*
X183970738Y-89587151D01*
X183970738Y-89587151D02*
X184041448Y-89610721D01*
X184041448Y-89610721D02*
X184088589Y-89610721D01*
X184088589Y-89610721D02*
X184159299Y-89587151D01*
X184159299Y-89587151D02*
X184300721Y-89445730D01*
X184300721Y-89445730D02*
X184324291Y-89375019D01*
X184324291Y-89375019D02*
X184324291Y-89327879D01*
X183428622Y-89422160D02*
X183381482Y-89422160D01*
X183381482Y-89422160D02*
X183310771Y-89445730D01*
X183310771Y-89445730D02*
X183192920Y-89563581D01*
X183192920Y-89563581D02*
X183169350Y-89634292D01*
X183169350Y-89634292D02*
X183169350Y-89681432D01*
X183169350Y-89681432D02*
X183192920Y-89752143D01*
X183192920Y-89752143D02*
X183240060Y-89799283D01*
X183240060Y-89799283D02*
X183334341Y-89846424D01*
X183334341Y-89846424D02*
X183900027Y-89846424D01*
X183900027Y-89846424D02*
X183593614Y-90152837D01*
X195273762Y-104679571D02*
X195607095Y-104679571D01*
X195607095Y-104679571D02*
X195607095Y-103979571D01*
X194940428Y-104279571D02*
X195007095Y-104246238D01*
X195007095Y-104246238D02*
X195040428Y-104212904D01*
X195040428Y-104212904D02*
X195073761Y-104146238D01*
X195073761Y-104146238D02*
X195073761Y-104112904D01*
X195073761Y-104112904D02*
X195040428Y-104046238D01*
X195040428Y-104046238D02*
X195007095Y-104012904D01*
X195007095Y-104012904D02*
X194940428Y-103979571D01*
X194940428Y-103979571D02*
X194807095Y-103979571D01*
X194807095Y-103979571D02*
X194740428Y-104012904D01*
X194740428Y-104012904D02*
X194707095Y-104046238D01*
X194707095Y-104046238D02*
X194673761Y-104112904D01*
X194673761Y-104112904D02*
X194673761Y-104146238D01*
X194673761Y-104146238D02*
X194707095Y-104212904D01*
X194707095Y-104212904D02*
X194740428Y-104246238D01*
X194740428Y-104246238D02*
X194807095Y-104279571D01*
X194807095Y-104279571D02*
X194940428Y-104279571D01*
X194940428Y-104279571D02*
X195007095Y-104312904D01*
X195007095Y-104312904D02*
X195040428Y-104346238D01*
X195040428Y-104346238D02*
X195073761Y-104412904D01*
X195073761Y-104412904D02*
X195073761Y-104546238D01*
X195073761Y-104546238D02*
X195040428Y-104612904D01*
X195040428Y-104612904D02*
X195007095Y-104646238D01*
X195007095Y-104646238D02*
X194940428Y-104679571D01*
X194940428Y-104679571D02*
X194807095Y-104679571D01*
X194807095Y-104679571D02*
X194740428Y-104646238D01*
X194740428Y-104646238D02*
X194707095Y-104612904D01*
X194707095Y-104612904D02*
X194673761Y-104546238D01*
X194673761Y-104546238D02*
X194673761Y-104412904D01*
X194673761Y-104412904D02*
X194707095Y-104346238D01*
X194707095Y-104346238D02*
X194740428Y-104312904D01*
X194740428Y-104312904D02*
X194807095Y-104279571D01*
X180587255Y-116754777D02*
X180620589Y-116721444D01*
X180620589Y-116721444D02*
X180653922Y-116621444D01*
X180653922Y-116621444D02*
X180653922Y-116554777D01*
X180653922Y-116554777D02*
X180620589Y-116454777D01*
X180620589Y-116454777D02*
X180553922Y-116388111D01*
X180553922Y-116388111D02*
X180487255Y-116354777D01*
X180487255Y-116354777D02*
X180353922Y-116321444D01*
X180353922Y-116321444D02*
X180253922Y-116321444D01*
X180253922Y-116321444D02*
X180120589Y-116354777D01*
X180120589Y-116354777D02*
X180053922Y-116388111D01*
X180053922Y-116388111D02*
X179987255Y-116454777D01*
X179987255Y-116454777D02*
X179953922Y-116554777D01*
X179953922Y-116554777D02*
X179953922Y-116621444D01*
X179953922Y-116621444D02*
X179987255Y-116721444D01*
X179987255Y-116721444D02*
X180020589Y-116754777D01*
X179953922Y-117388111D02*
X179953922Y-117054777D01*
X179953922Y-117054777D02*
X180287255Y-117021444D01*
X180287255Y-117021444D02*
X180253922Y-117054777D01*
X180253922Y-117054777D02*
X180220589Y-117121444D01*
X180220589Y-117121444D02*
X180220589Y-117288111D01*
X180220589Y-117288111D02*
X180253922Y-117354777D01*
X180253922Y-117354777D02*
X180287255Y-117388111D01*
X180287255Y-117388111D02*
X180353922Y-117421444D01*
X180353922Y-117421444D02*
X180520589Y-117421444D01*
X180520589Y-117421444D02*
X180587255Y-117388111D01*
X180587255Y-117388111D02*
X180620589Y-117354777D01*
X180620589Y-117354777D02*
X180653922Y-117288111D01*
X180653922Y-117288111D02*
X180653922Y-117121444D01*
X180653922Y-117121444D02*
X180620589Y-117054777D01*
X180620589Y-117054777D02*
X180587255Y-117021444D01*
X179953922Y-118054778D02*
X179953922Y-117721444D01*
X179953922Y-117721444D02*
X180287255Y-117688111D01*
X180287255Y-117688111D02*
X180253922Y-117721444D01*
X180253922Y-117721444D02*
X180220589Y-117788111D01*
X180220589Y-117788111D02*
X180220589Y-117954778D01*
X180220589Y-117954778D02*
X180253922Y-118021444D01*
X180253922Y-118021444D02*
X180287255Y-118054778D01*
X180287255Y-118054778D02*
X180353922Y-118088111D01*
X180353922Y-118088111D02*
X180520589Y-118088111D01*
X180520589Y-118088111D02*
X180587255Y-118054778D01*
X180587255Y-118054778D02*
X180620589Y-118021444D01*
X180620589Y-118021444D02*
X180653922Y-117954778D01*
X180653922Y-117954778D02*
X180653922Y-117788111D01*
X180653922Y-117788111D02*
X180620589Y-117721444D01*
X180620589Y-117721444D02*
X180587255Y-117688111D01*
X200005000Y-114244366D02*
X200038333Y-114277700D01*
X200038333Y-114277700D02*
X200138333Y-114311033D01*
X200138333Y-114311033D02*
X200205000Y-114311033D01*
X200205000Y-114311033D02*
X200305000Y-114277700D01*
X200305000Y-114277700D02*
X200371667Y-114211033D01*
X200371667Y-114211033D02*
X200405000Y-114144366D01*
X200405000Y-114144366D02*
X200438333Y-114011033D01*
X200438333Y-114011033D02*
X200438333Y-113911033D01*
X200438333Y-113911033D02*
X200405000Y-113777700D01*
X200405000Y-113777700D02*
X200371667Y-113711033D01*
X200371667Y-113711033D02*
X200305000Y-113644366D01*
X200305000Y-113644366D02*
X200205000Y-113611033D01*
X200205000Y-113611033D02*
X200138333Y-113611033D01*
X200138333Y-113611033D02*
X200038333Y-113644366D01*
X200038333Y-113644366D02*
X200005000Y-113677700D01*
X199771667Y-113611033D02*
X199305000Y-113611033D01*
X199305000Y-113611033D02*
X199605000Y-114311033D01*
X198738333Y-113844366D02*
X198738333Y-114311033D01*
X198905000Y-113577700D02*
X199071666Y-114077700D01*
X199071666Y-114077700D02*
X198638333Y-114077700D01*
X190301033Y-95315000D02*
X189967700Y-95081667D01*
X190301033Y-94915000D02*
X189601033Y-94915000D01*
X189601033Y-94915000D02*
X189601033Y-95181667D01*
X189601033Y-95181667D02*
X189634366Y-95248334D01*
X189634366Y-95248334D02*
X189667700Y-95281667D01*
X189667700Y-95281667D02*
X189734366Y-95315000D01*
X189734366Y-95315000D02*
X189834366Y-95315000D01*
X189834366Y-95315000D02*
X189901033Y-95281667D01*
X189901033Y-95281667D02*
X189934366Y-95248334D01*
X189934366Y-95248334D02*
X189967700Y-95181667D01*
X189967700Y-95181667D02*
X189967700Y-94915000D01*
X189601033Y-95548334D02*
X189601033Y-95981667D01*
X189601033Y-95981667D02*
X189867700Y-95748334D01*
X189867700Y-95748334D02*
X189867700Y-95848334D01*
X189867700Y-95848334D02*
X189901033Y-95915000D01*
X189901033Y-95915000D02*
X189934366Y-95948334D01*
X189934366Y-95948334D02*
X190001033Y-95981667D01*
X190001033Y-95981667D02*
X190167700Y-95981667D01*
X190167700Y-95981667D02*
X190234366Y-95948334D01*
X190234366Y-95948334D02*
X190267700Y-95915000D01*
X190267700Y-95915000D02*
X190301033Y-95848334D01*
X190301033Y-95848334D02*
X190301033Y-95648334D01*
X190301033Y-95648334D02*
X190267700Y-95581667D01*
X190267700Y-95581667D02*
X190234366Y-95548334D01*
X190301033Y-96315001D02*
X190301033Y-96448334D01*
X190301033Y-96448334D02*
X190267700Y-96515001D01*
X190267700Y-96515001D02*
X190234366Y-96548334D01*
X190234366Y-96548334D02*
X190134366Y-96615001D01*
X190134366Y-96615001D02*
X190001033Y-96648334D01*
X190001033Y-96648334D02*
X189734366Y-96648334D01*
X189734366Y-96648334D02*
X189667700Y-96615001D01*
X189667700Y-96615001D02*
X189634366Y-96581667D01*
X189634366Y-96581667D02*
X189601033Y-96515001D01*
X189601033Y-96515001D02*
X189601033Y-96381667D01*
X189601033Y-96381667D02*
X189634366Y-96315001D01*
X189634366Y-96315001D02*
X189667700Y-96281667D01*
X189667700Y-96281667D02*
X189734366Y-96248334D01*
X189734366Y-96248334D02*
X189901033Y-96248334D01*
X189901033Y-96248334D02*
X189967700Y-96281667D01*
X189967700Y-96281667D02*
X190001033Y-96315001D01*
X190001033Y-96315001D02*
X190034366Y-96381667D01*
X190034366Y-96381667D02*
X190034366Y-96515001D01*
X190034366Y-96515001D02*
X190001033Y-96581667D01*
X190001033Y-96581667D02*
X189967700Y-96615001D01*
X189967700Y-96615001D02*
X189901033Y-96648334D01*
X204942305Y-105250220D02*
X205175638Y-104916887D01*
X205342305Y-105250220D02*
X205342305Y-104550220D01*
X205342305Y-104550220D02*
X205075638Y-104550220D01*
X205075638Y-104550220D02*
X205008972Y-104583553D01*
X205008972Y-104583553D02*
X204975638Y-104616887D01*
X204975638Y-104616887D02*
X204942305Y-104683553D01*
X204942305Y-104683553D02*
X204942305Y-104783553D01*
X204942305Y-104783553D02*
X204975638Y-104850220D01*
X204975638Y-104850220D02*
X205008972Y-104883553D01*
X205008972Y-104883553D02*
X205075638Y-104916887D01*
X205075638Y-104916887D02*
X205342305Y-104916887D01*
X204308972Y-104550220D02*
X204642305Y-104550220D01*
X204642305Y-104550220D02*
X204675638Y-104883553D01*
X204675638Y-104883553D02*
X204642305Y-104850220D01*
X204642305Y-104850220D02*
X204575638Y-104816887D01*
X204575638Y-104816887D02*
X204408972Y-104816887D01*
X204408972Y-104816887D02*
X204342305Y-104850220D01*
X204342305Y-104850220D02*
X204308972Y-104883553D01*
X204308972Y-104883553D02*
X204275638Y-104950220D01*
X204275638Y-104950220D02*
X204275638Y-105116887D01*
X204275638Y-105116887D02*
X204308972Y-105183553D01*
X204308972Y-105183553D02*
X204342305Y-105216887D01*
X204342305Y-105216887D02*
X204408972Y-105250220D01*
X204408972Y-105250220D02*
X204575638Y-105250220D01*
X204575638Y-105250220D02*
X204642305Y-105216887D01*
X204642305Y-105216887D02*
X204675638Y-105183553D01*
X204042305Y-104550220D02*
X203608971Y-104550220D01*
X203608971Y-104550220D02*
X203842305Y-104816887D01*
X203842305Y-104816887D02*
X203742305Y-104816887D01*
X203742305Y-104816887D02*
X203675638Y-104850220D01*
X203675638Y-104850220D02*
X203642305Y-104883553D01*
X203642305Y-104883553D02*
X203608971Y-104950220D01*
X203608971Y-104950220D02*
X203608971Y-105116887D01*
X203608971Y-105116887D02*
X203642305Y-105183553D01*
X203642305Y-105183553D02*
X203675638Y-105216887D01*
X203675638Y-105216887D02*
X203742305Y-105250220D01*
X203742305Y-105250220D02*
X203942305Y-105250220D01*
X203942305Y-105250220D02*
X204008971Y-105216887D01*
X204008971Y-105216887D02*
X204042305Y-105183553D01*
X162485000Y-110131033D02*
X162718333Y-109797700D01*
X162885000Y-110131033D02*
X162885000Y-109431033D01*
X162885000Y-109431033D02*
X162618333Y-109431033D01*
X162618333Y-109431033D02*
X162551667Y-109464366D01*
X162551667Y-109464366D02*
X162518333Y-109497700D01*
X162518333Y-109497700D02*
X162485000Y-109564366D01*
X162485000Y-109564366D02*
X162485000Y-109664366D01*
X162485000Y-109664366D02*
X162518333Y-109731033D01*
X162518333Y-109731033D02*
X162551667Y-109764366D01*
X162551667Y-109764366D02*
X162618333Y-109797700D01*
X162618333Y-109797700D02*
X162885000Y-109797700D01*
X162218333Y-109497700D02*
X162185000Y-109464366D01*
X162185000Y-109464366D02*
X162118333Y-109431033D01*
X162118333Y-109431033D02*
X161951667Y-109431033D01*
X161951667Y-109431033D02*
X161885000Y-109464366D01*
X161885000Y-109464366D02*
X161851667Y-109497700D01*
X161851667Y-109497700D02*
X161818333Y-109564366D01*
X161818333Y-109564366D02*
X161818333Y-109631033D01*
X161818333Y-109631033D02*
X161851667Y-109731033D01*
X161851667Y-109731033D02*
X162251667Y-110131033D01*
X162251667Y-110131033D02*
X161818333Y-110131033D01*
X161218333Y-109431033D02*
X161351666Y-109431033D01*
X161351666Y-109431033D02*
X161418333Y-109464366D01*
X161418333Y-109464366D02*
X161451666Y-109497700D01*
X161451666Y-109497700D02*
X161518333Y-109597700D01*
X161518333Y-109597700D02*
X161551666Y-109731033D01*
X161551666Y-109731033D02*
X161551666Y-109997700D01*
X161551666Y-109997700D02*
X161518333Y-110064366D01*
X161518333Y-110064366D02*
X161485000Y-110097700D01*
X161485000Y-110097700D02*
X161418333Y-110131033D01*
X161418333Y-110131033D02*
X161285000Y-110131033D01*
X161285000Y-110131033D02*
X161218333Y-110097700D01*
X161218333Y-110097700D02*
X161185000Y-110064366D01*
X161185000Y-110064366D02*
X161151666Y-109997700D01*
X161151666Y-109997700D02*
X161151666Y-109831033D01*
X161151666Y-109831033D02*
X161185000Y-109764366D01*
X161185000Y-109764366D02*
X161218333Y-109731033D01*
X161218333Y-109731033D02*
X161285000Y-109697700D01*
X161285000Y-109697700D02*
X161418333Y-109697700D01*
X161418333Y-109697700D02*
X161485000Y-109731033D01*
X161485000Y-109731033D02*
X161518333Y-109764366D01*
X161518333Y-109764366D02*
X161551666Y-109831033D01*
X187663518Y-105725762D02*
X187696851Y-105759096D01*
X187696851Y-105759096D02*
X187796851Y-105792429D01*
X187796851Y-105792429D02*
X187863518Y-105792429D01*
X187863518Y-105792429D02*
X187963518Y-105759096D01*
X187963518Y-105759096D02*
X188030185Y-105692429D01*
X188030185Y-105692429D02*
X188063518Y-105625762D01*
X188063518Y-105625762D02*
X188096851Y-105492429D01*
X188096851Y-105492429D02*
X188096851Y-105392429D01*
X188096851Y-105392429D02*
X188063518Y-105259096D01*
X188063518Y-105259096D02*
X188030185Y-105192429D01*
X188030185Y-105192429D02*
X187963518Y-105125762D01*
X187963518Y-105125762D02*
X187863518Y-105092429D01*
X187863518Y-105092429D02*
X187796851Y-105092429D01*
X187796851Y-105092429D02*
X187696851Y-105125762D01*
X187696851Y-105125762D02*
X187663518Y-105159096D01*
X187063518Y-105092429D02*
X187196851Y-105092429D01*
X187196851Y-105092429D02*
X187263518Y-105125762D01*
X187263518Y-105125762D02*
X187296851Y-105159096D01*
X187296851Y-105159096D02*
X187363518Y-105259096D01*
X187363518Y-105259096D02*
X187396851Y-105392429D01*
X187396851Y-105392429D02*
X187396851Y-105659096D01*
X187396851Y-105659096D02*
X187363518Y-105725762D01*
X187363518Y-105725762D02*
X187330185Y-105759096D01*
X187330185Y-105759096D02*
X187263518Y-105792429D01*
X187263518Y-105792429D02*
X187130185Y-105792429D01*
X187130185Y-105792429D02*
X187063518Y-105759096D01*
X187063518Y-105759096D02*
X187030185Y-105725762D01*
X187030185Y-105725762D02*
X186996851Y-105659096D01*
X186996851Y-105659096D02*
X186996851Y-105492429D01*
X186996851Y-105492429D02*
X187030185Y-105425762D01*
X187030185Y-105425762D02*
X187063518Y-105392429D01*
X187063518Y-105392429D02*
X187130185Y-105359096D01*
X187130185Y-105359096D02*
X187263518Y-105359096D01*
X187263518Y-105359096D02*
X187330185Y-105392429D01*
X187330185Y-105392429D02*
X187363518Y-105425762D01*
X187363518Y-105425762D02*
X187396851Y-105492429D01*
X186730184Y-105159096D02*
X186696851Y-105125762D01*
X186696851Y-105125762D02*
X186630184Y-105092429D01*
X186630184Y-105092429D02*
X186463518Y-105092429D01*
X186463518Y-105092429D02*
X186396851Y-105125762D01*
X186396851Y-105125762D02*
X186363518Y-105159096D01*
X186363518Y-105159096D02*
X186330184Y-105225762D01*
X186330184Y-105225762D02*
X186330184Y-105292429D01*
X186330184Y-105292429D02*
X186363518Y-105392429D01*
X186363518Y-105392429D02*
X186763518Y-105792429D01*
X186763518Y-105792429D02*
X186330184Y-105792429D01*
X174864935Y-98895933D02*
X174864935Y-98943073D01*
X174864935Y-98943073D02*
X174912075Y-99037354D01*
X174912075Y-99037354D02*
X174959216Y-99084494D01*
X174959216Y-99084494D02*
X175053497Y-99131635D01*
X175053497Y-99131635D02*
X175147778Y-99131635D01*
X175147778Y-99131635D02*
X175218488Y-99108065D01*
X175218488Y-99108065D02*
X175336339Y-99037354D01*
X175336339Y-99037354D02*
X175407050Y-98966643D01*
X175407050Y-98966643D02*
X175477761Y-98848792D01*
X175477761Y-98848792D02*
X175501331Y-98778082D01*
X175501331Y-98778082D02*
X175501331Y-98683801D01*
X175501331Y-98683801D02*
X175454191Y-98589520D01*
X175454191Y-98589520D02*
X175407050Y-98542379D01*
X175407050Y-98542379D02*
X175312769Y-98495239D01*
X175312769Y-98495239D02*
X175265629Y-98495239D01*
X175077067Y-98306677D02*
X175077067Y-98259537D01*
X175077067Y-98259537D02*
X175053497Y-98188826D01*
X175053497Y-98188826D02*
X174935646Y-98070975D01*
X174935646Y-98070975D02*
X174864935Y-98047405D01*
X174864935Y-98047405D02*
X174817794Y-98047405D01*
X174817794Y-98047405D02*
X174747084Y-98070975D01*
X174747084Y-98070975D02*
X174699943Y-98118115D01*
X174699943Y-98118115D02*
X174652803Y-98212396D01*
X174652803Y-98212396D02*
X174652803Y-98778082D01*
X174652803Y-98778082D02*
X174346390Y-98471669D01*
X174417100Y-97552430D02*
X174511381Y-97646710D01*
X174511381Y-97646710D02*
X174534952Y-97717421D01*
X174534952Y-97717421D02*
X174534952Y-97764562D01*
X174534952Y-97764562D02*
X174511381Y-97882413D01*
X174511381Y-97882413D02*
X174440671Y-98000264D01*
X174440671Y-98000264D02*
X174252109Y-98188826D01*
X174252109Y-98188826D02*
X174181398Y-98212396D01*
X174181398Y-98212396D02*
X174134258Y-98212396D01*
X174134258Y-98212396D02*
X174063547Y-98188826D01*
X174063547Y-98188826D02*
X173969266Y-98094545D01*
X173969266Y-98094545D02*
X173945696Y-98023834D01*
X173945696Y-98023834D02*
X173945696Y-97976694D01*
X173945696Y-97976694D02*
X173969266Y-97905983D01*
X173969266Y-97905983D02*
X174087117Y-97788132D01*
X174087117Y-97788132D02*
X174157828Y-97764562D01*
X174157828Y-97764562D02*
X174204968Y-97764562D01*
X174204968Y-97764562D02*
X174275679Y-97788132D01*
X174275679Y-97788132D02*
X174369960Y-97882413D01*
X174369960Y-97882413D02*
X174393530Y-97953123D01*
X174393530Y-97953123D02*
X174393530Y-98000264D01*
X174393530Y-98000264D02*
X174369960Y-98070975D01*
X181209209Y-108794425D02*
X181444911Y-108558723D01*
X181444911Y-108558723D02*
X180949936Y-108063748D01*
X180784945Y-109218689D02*
X181067787Y-108935846D01*
X180926366Y-109077268D02*
X180431391Y-108582293D01*
X180431391Y-108582293D02*
X180549242Y-108605863D01*
X180549242Y-108605863D02*
X180643523Y-108605863D01*
X180643523Y-108605863D02*
X180714234Y-108582293D01*
X203916667Y-103077782D02*
X203916667Y-102377782D01*
X203916667Y-102377782D02*
X203750000Y-102377782D01*
X203750000Y-102377782D02*
X203650000Y-102411115D01*
X203650000Y-102411115D02*
X203583334Y-102477782D01*
X203583334Y-102477782D02*
X203550000Y-102544449D01*
X203550000Y-102544449D02*
X203516667Y-102677782D01*
X203516667Y-102677782D02*
X203516667Y-102777782D01*
X203516667Y-102777782D02*
X203550000Y-102911115D01*
X203550000Y-102911115D02*
X203583334Y-102977782D01*
X203583334Y-102977782D02*
X203650000Y-103044449D01*
X203650000Y-103044449D02*
X203750000Y-103077782D01*
X203750000Y-103077782D02*
X203916667Y-103077782D01*
X202850000Y-103077782D02*
X203250000Y-103077782D01*
X203050000Y-103077782D02*
X203050000Y-102377782D01*
X203050000Y-102377782D02*
X203116667Y-102477782D01*
X203116667Y-102477782D02*
X203183334Y-102544449D01*
X203183334Y-102544449D02*
X203250000Y-102577782D01*
X198188333Y-83564366D02*
X198421666Y-83564366D01*
X198421666Y-83931033D02*
X198421666Y-83231033D01*
X198421666Y-83231033D02*
X198088333Y-83231033D01*
X197521666Y-83464366D02*
X197521666Y-83931033D01*
X197688333Y-83197700D02*
X197854999Y-83697700D01*
X197854999Y-83697700D02*
X197421666Y-83697700D01*
X187219749Y-111678503D02*
X187453082Y-111345170D01*
X187619749Y-111678503D02*
X187619749Y-110978503D01*
X187619749Y-110978503D02*
X187353082Y-110978503D01*
X187353082Y-110978503D02*
X187286416Y-111011836D01*
X187286416Y-111011836D02*
X187253082Y-111045170D01*
X187253082Y-111045170D02*
X187219749Y-111111836D01*
X187219749Y-111111836D02*
X187219749Y-111211836D01*
X187219749Y-111211836D02*
X187253082Y-111278503D01*
X187253082Y-111278503D02*
X187286416Y-111311836D01*
X187286416Y-111311836D02*
X187353082Y-111345170D01*
X187353082Y-111345170D02*
X187619749Y-111345170D01*
X186586416Y-110978503D02*
X186919749Y-110978503D01*
X186919749Y-110978503D02*
X186953082Y-111311836D01*
X186953082Y-111311836D02*
X186919749Y-111278503D01*
X186919749Y-111278503D02*
X186853082Y-111245170D01*
X186853082Y-111245170D02*
X186686416Y-111245170D01*
X186686416Y-111245170D02*
X186619749Y-111278503D01*
X186619749Y-111278503D02*
X186586416Y-111311836D01*
X186586416Y-111311836D02*
X186553082Y-111378503D01*
X186553082Y-111378503D02*
X186553082Y-111545170D01*
X186553082Y-111545170D02*
X186586416Y-111611836D01*
X186586416Y-111611836D02*
X186619749Y-111645170D01*
X186619749Y-111645170D02*
X186686416Y-111678503D01*
X186686416Y-111678503D02*
X186853082Y-111678503D01*
X186853082Y-111678503D02*
X186919749Y-111645170D01*
X186919749Y-111645170D02*
X186953082Y-111611836D01*
X186119749Y-110978503D02*
X186053082Y-110978503D01*
X186053082Y-110978503D02*
X185986415Y-111011836D01*
X185986415Y-111011836D02*
X185953082Y-111045170D01*
X185953082Y-111045170D02*
X185919749Y-111111836D01*
X185919749Y-111111836D02*
X185886415Y-111245170D01*
X185886415Y-111245170D02*
X185886415Y-111411836D01*
X185886415Y-111411836D02*
X185919749Y-111545170D01*
X185919749Y-111545170D02*
X185953082Y-111611836D01*
X185953082Y-111611836D02*
X185986415Y-111645170D01*
X185986415Y-111645170D02*
X186053082Y-111678503D01*
X186053082Y-111678503D02*
X186119749Y-111678503D01*
X186119749Y-111678503D02*
X186186415Y-111645170D01*
X186186415Y-111645170D02*
X186219749Y-111611836D01*
X186219749Y-111611836D02*
X186253082Y-111545170D01*
X186253082Y-111545170D02*
X186286415Y-111411836D01*
X186286415Y-111411836D02*
X186286415Y-111245170D01*
X186286415Y-111245170D02*
X186253082Y-111111836D01*
X186253082Y-111111836D02*
X186219749Y-111045170D01*
X186219749Y-111045170D02*
X186186415Y-111011836D01*
X186186415Y-111011836D02*
X186119749Y-110978503D01*
X194491666Y-88666033D02*
X194491666Y-87966033D01*
X194491666Y-87966033D02*
X194324999Y-87966033D01*
X194324999Y-87966033D02*
X194224999Y-87999366D01*
X194224999Y-87999366D02*
X194158333Y-88066033D01*
X194158333Y-88066033D02*
X194124999Y-88132700D01*
X194124999Y-88132700D02*
X194091666Y-88266033D01*
X194091666Y-88266033D02*
X194091666Y-88366033D01*
X194091666Y-88366033D02*
X194124999Y-88499366D01*
X194124999Y-88499366D02*
X194158333Y-88566033D01*
X194158333Y-88566033D02*
X194224999Y-88632700D01*
X194224999Y-88632700D02*
X194324999Y-88666033D01*
X194324999Y-88666033D02*
X194491666Y-88666033D01*
X193758333Y-88666033D02*
X193624999Y-88666033D01*
X193624999Y-88666033D02*
X193558333Y-88632700D01*
X193558333Y-88632700D02*
X193524999Y-88599366D01*
X193524999Y-88599366D02*
X193458333Y-88499366D01*
X193458333Y-88499366D02*
X193424999Y-88366033D01*
X193424999Y-88366033D02*
X193424999Y-88099366D01*
X193424999Y-88099366D02*
X193458333Y-88032700D01*
X193458333Y-88032700D02*
X193491666Y-87999366D01*
X193491666Y-87999366D02*
X193558333Y-87966033D01*
X193558333Y-87966033D02*
X193691666Y-87966033D01*
X193691666Y-87966033D02*
X193758333Y-87999366D01*
X193758333Y-87999366D02*
X193791666Y-88032700D01*
X193791666Y-88032700D02*
X193824999Y-88099366D01*
X193824999Y-88099366D02*
X193824999Y-88266033D01*
X193824999Y-88266033D02*
X193791666Y-88332700D01*
X193791666Y-88332700D02*
X193758333Y-88366033D01*
X193758333Y-88366033D02*
X193691666Y-88399366D01*
X193691666Y-88399366D02*
X193558333Y-88399366D01*
X193558333Y-88399366D02*
X193491666Y-88366033D01*
X193491666Y-88366033D02*
X193458333Y-88332700D01*
X193458333Y-88332700D02*
X193424999Y-88266033D01*
X196704916Y-104671033D02*
X196938249Y-104337700D01*
X197104916Y-104671033D02*
X197104916Y-103971033D01*
X197104916Y-103971033D02*
X196838249Y-103971033D01*
X196838249Y-103971033D02*
X196771583Y-104004366D01*
X196771583Y-104004366D02*
X196738249Y-104037700D01*
X196738249Y-104037700D02*
X196704916Y-104104366D01*
X196704916Y-104104366D02*
X196704916Y-104204366D01*
X196704916Y-104204366D02*
X196738249Y-104271033D01*
X196738249Y-104271033D02*
X196771583Y-104304366D01*
X196771583Y-104304366D02*
X196838249Y-104337700D01*
X196838249Y-104337700D02*
X197104916Y-104337700D01*
X196038249Y-104671033D02*
X196438249Y-104671033D01*
X196238249Y-104671033D02*
X196238249Y-103971033D01*
X196238249Y-103971033D02*
X196304916Y-104071033D01*
X196304916Y-104071033D02*
X196371583Y-104137700D01*
X196371583Y-104137700D02*
X196438249Y-104171033D01*
X207921845Y-108882308D02*
X207588512Y-108648975D01*
X207921845Y-108482308D02*
X207221845Y-108482308D01*
X207221845Y-108482308D02*
X207221845Y-108748975D01*
X207221845Y-108748975D02*
X207255178Y-108815642D01*
X207255178Y-108815642D02*
X207288512Y-108848975D01*
X207288512Y-108848975D02*
X207355178Y-108882308D01*
X207355178Y-108882308D02*
X207455178Y-108882308D01*
X207455178Y-108882308D02*
X207521845Y-108848975D01*
X207521845Y-108848975D02*
X207555178Y-108815642D01*
X207555178Y-108815642D02*
X207588512Y-108748975D01*
X207588512Y-108748975D02*
X207588512Y-108482308D01*
X207221845Y-109515642D02*
X207221845Y-109182308D01*
X207221845Y-109182308D02*
X207555178Y-109148975D01*
X207555178Y-109148975D02*
X207521845Y-109182308D01*
X207521845Y-109182308D02*
X207488512Y-109248975D01*
X207488512Y-109248975D02*
X207488512Y-109415642D01*
X207488512Y-109415642D02*
X207521845Y-109482308D01*
X207521845Y-109482308D02*
X207555178Y-109515642D01*
X207555178Y-109515642D02*
X207621845Y-109548975D01*
X207621845Y-109548975D02*
X207788512Y-109548975D01*
X207788512Y-109548975D02*
X207855178Y-109515642D01*
X207855178Y-109515642D02*
X207888512Y-109482308D01*
X207888512Y-109482308D02*
X207921845Y-109415642D01*
X207921845Y-109415642D02*
X207921845Y-109248975D01*
X207921845Y-109248975D02*
X207888512Y-109182308D01*
X207888512Y-109182308D02*
X207855178Y-109148975D01*
X207455178Y-110148975D02*
X207921845Y-110148975D01*
X207188512Y-109982309D02*
X207688512Y-109815642D01*
X207688512Y-109815642D02*
X207688512Y-110248975D01*
X165709107Y-102348692D02*
X165942440Y-102015359D01*
X166109107Y-102348692D02*
X166109107Y-101648692D01*
X166109107Y-101648692D02*
X165842440Y-101648692D01*
X165842440Y-101648692D02*
X165775774Y-101682025D01*
X165775774Y-101682025D02*
X165742440Y-101715359D01*
X165742440Y-101715359D02*
X165709107Y-101782025D01*
X165709107Y-101782025D02*
X165709107Y-101882025D01*
X165709107Y-101882025D02*
X165742440Y-101948692D01*
X165742440Y-101948692D02*
X165775774Y-101982025D01*
X165775774Y-101982025D02*
X165842440Y-102015359D01*
X165842440Y-102015359D02*
X166109107Y-102015359D01*
X165475774Y-101648692D02*
X165042440Y-101648692D01*
X165042440Y-101648692D02*
X165275774Y-101915359D01*
X165275774Y-101915359D02*
X165175774Y-101915359D01*
X165175774Y-101915359D02*
X165109107Y-101948692D01*
X165109107Y-101948692D02*
X165075774Y-101982025D01*
X165075774Y-101982025D02*
X165042440Y-102048692D01*
X165042440Y-102048692D02*
X165042440Y-102215359D01*
X165042440Y-102215359D02*
X165075774Y-102282025D01*
X165075774Y-102282025D02*
X165109107Y-102315359D01*
X165109107Y-102315359D02*
X165175774Y-102348692D01*
X165175774Y-102348692D02*
X165375774Y-102348692D01*
X165375774Y-102348692D02*
X165442440Y-102315359D01*
X165442440Y-102315359D02*
X165475774Y-102282025D01*
X164609107Y-101648692D02*
X164542440Y-101648692D01*
X164542440Y-101648692D02*
X164475773Y-101682025D01*
X164475773Y-101682025D02*
X164442440Y-101715359D01*
X164442440Y-101715359D02*
X164409107Y-101782025D01*
X164409107Y-101782025D02*
X164375773Y-101915359D01*
X164375773Y-101915359D02*
X164375773Y-102082025D01*
X164375773Y-102082025D02*
X164409107Y-102215359D01*
X164409107Y-102215359D02*
X164442440Y-102282025D01*
X164442440Y-102282025D02*
X164475773Y-102315359D01*
X164475773Y-102315359D02*
X164542440Y-102348692D01*
X164542440Y-102348692D02*
X164609107Y-102348692D01*
X164609107Y-102348692D02*
X164675773Y-102315359D01*
X164675773Y-102315359D02*
X164709107Y-102282025D01*
X164709107Y-102282025D02*
X164742440Y-102215359D01*
X164742440Y-102215359D02*
X164775773Y-102082025D01*
X164775773Y-102082025D02*
X164775773Y-101915359D01*
X164775773Y-101915359D02*
X164742440Y-101782025D01*
X164742440Y-101782025D02*
X164709107Y-101715359D01*
X164709107Y-101715359D02*
X164675773Y-101682025D01*
X164675773Y-101682025D02*
X164609107Y-101648692D01*
X175085789Y-95635080D02*
X175085789Y-95682220D01*
X175085789Y-95682220D02*
X175132929Y-95776501D01*
X175132929Y-95776501D02*
X175180070Y-95823641D01*
X175180070Y-95823641D02*
X175274351Y-95870782D01*
X175274351Y-95870782D02*
X175368632Y-95870782D01*
X175368632Y-95870782D02*
X175439342Y-95847212D01*
X175439342Y-95847212D02*
X175557193Y-95776501D01*
X175557193Y-95776501D02*
X175627904Y-95705790D01*
X175627904Y-95705790D02*
X175698615Y-95587939D01*
X175698615Y-95587939D02*
X175722185Y-95517229D01*
X175722185Y-95517229D02*
X175722185Y-95422948D01*
X175722185Y-95422948D02*
X175675045Y-95328667D01*
X175675045Y-95328667D02*
X175627904Y-95281526D01*
X175627904Y-95281526D02*
X175533623Y-95234386D01*
X175533623Y-95234386D02*
X175486483Y-95234386D01*
X175297921Y-95045824D02*
X175297921Y-94998684D01*
X175297921Y-94998684D02*
X175274351Y-94927973D01*
X175274351Y-94927973D02*
X175156500Y-94810122D01*
X175156500Y-94810122D02*
X175085789Y-94786552D01*
X175085789Y-94786552D02*
X175038648Y-94786552D01*
X175038648Y-94786552D02*
X174967938Y-94810122D01*
X174967938Y-94810122D02*
X174920797Y-94857262D01*
X174920797Y-94857262D02*
X174873657Y-94951543D01*
X174873657Y-94951543D02*
X174873657Y-95517229D01*
X174873657Y-95517229D02*
X174567244Y-95210816D01*
X174614384Y-94268006D02*
X174850086Y-94503709D01*
X174850086Y-94503709D02*
X174637954Y-94762981D01*
X174637954Y-94762981D02*
X174637954Y-94715841D01*
X174637954Y-94715841D02*
X174614384Y-94645130D01*
X174614384Y-94645130D02*
X174496533Y-94527279D01*
X174496533Y-94527279D02*
X174425822Y-94503709D01*
X174425822Y-94503709D02*
X174378682Y-94503709D01*
X174378682Y-94503709D02*
X174307971Y-94527279D01*
X174307971Y-94527279D02*
X174190120Y-94645130D01*
X174190120Y-94645130D02*
X174166550Y-94715841D01*
X174166550Y-94715841D02*
X174166550Y-94762981D01*
X174166550Y-94762981D02*
X174190120Y-94833692D01*
X174190120Y-94833692D02*
X174307971Y-94951543D01*
X174307971Y-94951543D02*
X174378682Y-94975113D01*
X174378682Y-94975113D02*
X174425822Y-94975113D01*
X197200575Y-116778056D02*
X197433908Y-116778056D01*
X197433908Y-117144723D02*
X197433908Y-116444723D01*
X197433908Y-116444723D02*
X197100575Y-116444723D01*
X196467241Y-117144723D02*
X196867241Y-117144723D01*
X196667241Y-117144723D02*
X196667241Y-116444723D01*
X196667241Y-116444723D02*
X196733908Y-116544723D01*
X196733908Y-116544723D02*
X196800575Y-116611390D01*
X196800575Y-116611390D02*
X196867241Y-116644723D01*
X196033908Y-116444723D02*
X195967241Y-116444723D01*
X195967241Y-116444723D02*
X195900574Y-116478056D01*
X195900574Y-116478056D02*
X195867241Y-116511390D01*
X195867241Y-116511390D02*
X195833908Y-116578056D01*
X195833908Y-116578056D02*
X195800574Y-116711390D01*
X195800574Y-116711390D02*
X195800574Y-116878056D01*
X195800574Y-116878056D02*
X195833908Y-117011390D01*
X195833908Y-117011390D02*
X195867241Y-117078056D01*
X195867241Y-117078056D02*
X195900574Y-117111390D01*
X195900574Y-117111390D02*
X195967241Y-117144723D01*
X195967241Y-117144723D02*
X196033908Y-117144723D01*
X196033908Y-117144723D02*
X196100574Y-117111390D01*
X196100574Y-117111390D02*
X196133908Y-117078056D01*
X196133908Y-117078056D02*
X196167241Y-117011390D01*
X196167241Y-117011390D02*
X196200574Y-116878056D01*
X196200574Y-116878056D02*
X196200574Y-116711390D01*
X196200574Y-116711390D02*
X196167241Y-116578056D01*
X196167241Y-116578056D02*
X196133908Y-116511390D01*
X196133908Y-116511390D02*
X196100574Y-116478056D01*
X196100574Y-116478056D02*
X196033908Y-116444723D01*
X167600869Y-99995726D02*
X167667536Y-99962392D01*
X167667536Y-99962392D02*
X167734203Y-99895726D01*
X167734203Y-99895726D02*
X167834203Y-99795726D01*
X167834203Y-99795726D02*
X167900869Y-99762392D01*
X167900869Y-99762392D02*
X167967536Y-99762392D01*
X167934203Y-99929059D02*
X168000869Y-99895726D01*
X168000869Y-99895726D02*
X168067536Y-99829059D01*
X168067536Y-99829059D02*
X168100869Y-99695726D01*
X168100869Y-99695726D02*
X168100869Y-99462392D01*
X168100869Y-99462392D02*
X168067536Y-99329059D01*
X168067536Y-99329059D02*
X168000869Y-99262392D01*
X168000869Y-99262392D02*
X167934203Y-99229059D01*
X167934203Y-99229059D02*
X167800869Y-99229059D01*
X167800869Y-99229059D02*
X167734203Y-99262392D01*
X167734203Y-99262392D02*
X167667536Y-99329059D01*
X167667536Y-99329059D02*
X167634203Y-99462392D01*
X167634203Y-99462392D02*
X167634203Y-99695726D01*
X167634203Y-99695726D02*
X167667536Y-99829059D01*
X167667536Y-99829059D02*
X167734203Y-99895726D01*
X167734203Y-99895726D02*
X167800869Y-99929059D01*
X167800869Y-99929059D02*
X167934203Y-99929059D01*
X167367536Y-99295726D02*
X167334203Y-99262392D01*
X167334203Y-99262392D02*
X167267536Y-99229059D01*
X167267536Y-99229059D02*
X167100870Y-99229059D01*
X167100870Y-99229059D02*
X167034203Y-99262392D01*
X167034203Y-99262392D02*
X167000870Y-99295726D01*
X167000870Y-99295726D02*
X166967536Y-99362392D01*
X166967536Y-99362392D02*
X166967536Y-99429059D01*
X166967536Y-99429059D02*
X167000870Y-99529059D01*
X167000870Y-99529059D02*
X167400870Y-99929059D01*
X167400870Y-99929059D02*
X166967536Y-99929059D01*
X186335200Y-100245517D02*
X186335200Y-100292657D01*
X186335200Y-100292657D02*
X186382340Y-100386938D01*
X186382340Y-100386938D02*
X186429481Y-100434078D01*
X186429481Y-100434078D02*
X186523762Y-100481219D01*
X186523762Y-100481219D02*
X186618043Y-100481219D01*
X186618043Y-100481219D02*
X186688753Y-100457649D01*
X186688753Y-100457649D02*
X186806604Y-100386938D01*
X186806604Y-100386938D02*
X186877315Y-100316227D01*
X186877315Y-100316227D02*
X186948026Y-100198376D01*
X186948026Y-100198376D02*
X186971596Y-100127666D01*
X186971596Y-100127666D02*
X186971596Y-100033385D01*
X186971596Y-100033385D02*
X186924456Y-99939104D01*
X186924456Y-99939104D02*
X186877315Y-99891963D01*
X186877315Y-99891963D02*
X186783034Y-99844823D01*
X186783034Y-99844823D02*
X186735894Y-99844823D01*
X186547332Y-99656261D02*
X186547332Y-99609121D01*
X186547332Y-99609121D02*
X186523762Y-99538410D01*
X186523762Y-99538410D02*
X186405911Y-99420559D01*
X186405911Y-99420559D02*
X186335200Y-99396989D01*
X186335200Y-99396989D02*
X186288059Y-99396989D01*
X186288059Y-99396989D02*
X186217349Y-99420559D01*
X186217349Y-99420559D02*
X186170208Y-99467699D01*
X186170208Y-99467699D02*
X186123068Y-99561980D01*
X186123068Y-99561980D02*
X186123068Y-100127666D01*
X186123068Y-100127666D02*
X185816655Y-99821253D01*
X186075927Y-99184856D02*
X186075927Y-99137716D01*
X186075927Y-99137716D02*
X186052357Y-99067005D01*
X186052357Y-99067005D02*
X185934506Y-98949154D01*
X185934506Y-98949154D02*
X185863795Y-98925584D01*
X185863795Y-98925584D02*
X185816655Y-98925584D01*
X185816655Y-98925584D02*
X185745944Y-98949154D01*
X185745944Y-98949154D02*
X185698804Y-98996294D01*
X185698804Y-98996294D02*
X185651663Y-99090575D01*
X185651663Y-99090575D02*
X185651663Y-99656261D01*
X185651663Y-99656261D02*
X185345250Y-99349848D01*
X179047259Y-116754777D02*
X179080593Y-116721444D01*
X179080593Y-116721444D02*
X179113926Y-116621444D01*
X179113926Y-116621444D02*
X179113926Y-116554777D01*
X179113926Y-116554777D02*
X179080593Y-116454777D01*
X179080593Y-116454777D02*
X179013926Y-116388111D01*
X179013926Y-116388111D02*
X178947259Y-116354777D01*
X178947259Y-116354777D02*
X178813926Y-116321444D01*
X178813926Y-116321444D02*
X178713926Y-116321444D01*
X178713926Y-116321444D02*
X178580593Y-116354777D01*
X178580593Y-116354777D02*
X178513926Y-116388111D01*
X178513926Y-116388111D02*
X178447259Y-116454777D01*
X178447259Y-116454777D02*
X178413926Y-116554777D01*
X178413926Y-116554777D02*
X178413926Y-116621444D01*
X178413926Y-116621444D02*
X178447259Y-116721444D01*
X178447259Y-116721444D02*
X178480593Y-116754777D01*
X178413926Y-117354777D02*
X178413926Y-117221444D01*
X178413926Y-117221444D02*
X178447259Y-117154777D01*
X178447259Y-117154777D02*
X178480593Y-117121444D01*
X178480593Y-117121444D02*
X178580593Y-117054777D01*
X178580593Y-117054777D02*
X178713926Y-117021444D01*
X178713926Y-117021444D02*
X178980593Y-117021444D01*
X178980593Y-117021444D02*
X179047259Y-117054777D01*
X179047259Y-117054777D02*
X179080593Y-117088111D01*
X179080593Y-117088111D02*
X179113926Y-117154777D01*
X179113926Y-117154777D02*
X179113926Y-117288111D01*
X179113926Y-117288111D02*
X179080593Y-117354777D01*
X179080593Y-117354777D02*
X179047259Y-117388111D01*
X179047259Y-117388111D02*
X178980593Y-117421444D01*
X178980593Y-117421444D02*
X178813926Y-117421444D01*
X178813926Y-117421444D02*
X178747259Y-117388111D01*
X178747259Y-117388111D02*
X178713926Y-117354777D01*
X178713926Y-117354777D02*
X178680593Y-117288111D01*
X178680593Y-117288111D02*
X178680593Y-117154777D01*
X178680593Y-117154777D02*
X178713926Y-117088111D01*
X178713926Y-117088111D02*
X178747259Y-117054777D01*
X178747259Y-117054777D02*
X178813926Y-117021444D01*
X178647259Y-118021444D02*
X179113926Y-118021444D01*
X178380593Y-117854778D02*
X178880593Y-117688111D01*
X178880593Y-117688111D02*
X178880593Y-118121444D01*
X194641665Y-95537700D02*
X194708332Y-95504366D01*
X194708332Y-95504366D02*
X194774999Y-95437700D01*
X194774999Y-95437700D02*
X194874999Y-95337700D01*
X194874999Y-95337700D02*
X194941665Y-95304366D01*
X194941665Y-95304366D02*
X195008332Y-95304366D01*
X194974999Y-95471033D02*
X195041665Y-95437700D01*
X195041665Y-95437700D02*
X195108332Y-95371033D01*
X195108332Y-95371033D02*
X195141665Y-95237700D01*
X195141665Y-95237700D02*
X195141665Y-95004366D01*
X195141665Y-95004366D02*
X195108332Y-94871033D01*
X195108332Y-94871033D02*
X195041665Y-94804366D01*
X195041665Y-94804366D02*
X194974999Y-94771033D01*
X194974999Y-94771033D02*
X194841665Y-94771033D01*
X194841665Y-94771033D02*
X194774999Y-94804366D01*
X194774999Y-94804366D02*
X194708332Y-94871033D01*
X194708332Y-94871033D02*
X194674999Y-95004366D01*
X194674999Y-95004366D02*
X194674999Y-95237700D01*
X194674999Y-95237700D02*
X194708332Y-95371033D01*
X194708332Y-95371033D02*
X194774999Y-95437700D01*
X194774999Y-95437700D02*
X194841665Y-95471033D01*
X194841665Y-95471033D02*
X194974999Y-95471033D01*
X194074999Y-95004366D02*
X194074999Y-95471033D01*
X194241666Y-94737700D02*
X194408332Y-95237700D01*
X194408332Y-95237700D02*
X193974999Y-95237700D01*
X191871676Y-109564187D02*
X191905010Y-109530854D01*
X191905010Y-109530854D02*
X191938343Y-109430854D01*
X191938343Y-109430854D02*
X191938343Y-109364187D01*
X191938343Y-109364187D02*
X191905010Y-109264187D01*
X191905010Y-109264187D02*
X191838343Y-109197521D01*
X191838343Y-109197521D02*
X191771676Y-109164187D01*
X191771676Y-109164187D02*
X191638343Y-109130854D01*
X191638343Y-109130854D02*
X191538343Y-109130854D01*
X191538343Y-109130854D02*
X191405010Y-109164187D01*
X191405010Y-109164187D02*
X191338343Y-109197521D01*
X191338343Y-109197521D02*
X191271676Y-109264187D01*
X191271676Y-109264187D02*
X191238343Y-109364187D01*
X191238343Y-109364187D02*
X191238343Y-109430854D01*
X191238343Y-109430854D02*
X191271676Y-109530854D01*
X191271676Y-109530854D02*
X191305010Y-109564187D01*
X191238343Y-109797521D02*
X191238343Y-110264187D01*
X191238343Y-110264187D02*
X191938343Y-109964187D01*
X191305010Y-110497521D02*
X191271676Y-110530854D01*
X191271676Y-110530854D02*
X191238343Y-110597521D01*
X191238343Y-110597521D02*
X191238343Y-110764188D01*
X191238343Y-110764188D02*
X191271676Y-110830854D01*
X191271676Y-110830854D02*
X191305010Y-110864188D01*
X191305010Y-110864188D02*
X191371676Y-110897521D01*
X191371676Y-110897521D02*
X191438343Y-110897521D01*
X191438343Y-110897521D02*
X191538343Y-110864188D01*
X191538343Y-110864188D02*
X191938343Y-110464188D01*
X191938343Y-110464188D02*
X191938343Y-110897521D01*
X183920812Y-102762778D02*
X183920812Y-102809918D01*
X183920812Y-102809918D02*
X183967952Y-102904199D01*
X183967952Y-102904199D02*
X184015093Y-102951339D01*
X184015093Y-102951339D02*
X184109374Y-102998480D01*
X184109374Y-102998480D02*
X184203655Y-102998480D01*
X184203655Y-102998480D02*
X184274365Y-102974910D01*
X184274365Y-102974910D02*
X184392216Y-102904199D01*
X184392216Y-102904199D02*
X184462927Y-102833488D01*
X184462927Y-102833488D02*
X184533638Y-102715637D01*
X184533638Y-102715637D02*
X184557208Y-102644927D01*
X184557208Y-102644927D02*
X184557208Y-102550646D01*
X184557208Y-102550646D02*
X184510068Y-102456365D01*
X184510068Y-102456365D02*
X184462927Y-102409224D01*
X184462927Y-102409224D02*
X184368646Y-102362084D01*
X184368646Y-102362084D02*
X184321506Y-102362084D01*
X183779391Y-102055671D02*
X183449407Y-102385654D01*
X184085804Y-101984960D02*
X183850101Y-102456365D01*
X183850101Y-102456365D02*
X183543688Y-102149952D01*
X183449407Y-101395704D02*
X183685109Y-101631407D01*
X183685109Y-101631407D02*
X183472977Y-101890679D01*
X183472977Y-101890679D02*
X183472977Y-101843539D01*
X183472977Y-101843539D02*
X183449407Y-101772828D01*
X183449407Y-101772828D02*
X183331556Y-101654977D01*
X183331556Y-101654977D02*
X183260845Y-101631407D01*
X183260845Y-101631407D02*
X183213705Y-101631407D01*
X183213705Y-101631407D02*
X183142994Y-101654977D01*
X183142994Y-101654977D02*
X183025143Y-101772828D01*
X183025143Y-101772828D02*
X183001573Y-101843539D01*
X183001573Y-101843539D02*
X183001573Y-101890679D01*
X183001573Y-101890679D02*
X183025143Y-101961390D01*
X183025143Y-101961390D02*
X183142994Y-102079241D01*
X183142994Y-102079241D02*
X183213705Y-102102811D01*
X183213705Y-102102811D02*
X183260845Y-102102811D01*
X183827611Y-88527037D02*
X183756900Y-88126343D01*
X184110454Y-88244194D02*
X183615479Y-87749219D01*
X183615479Y-87749219D02*
X183426917Y-87937781D01*
X183426917Y-87937781D02*
X183403347Y-88008492D01*
X183403347Y-88008492D02*
X183403347Y-88055632D01*
X183403347Y-88055632D02*
X183426917Y-88126343D01*
X183426917Y-88126343D02*
X183497628Y-88197053D01*
X183497628Y-88197053D02*
X183568339Y-88220624D01*
X183568339Y-88220624D02*
X183615479Y-88220624D01*
X183615479Y-88220624D02*
X183686190Y-88197053D01*
X183686190Y-88197053D02*
X183874752Y-88008492D01*
X183356207Y-88998441D02*
X183639049Y-88715598D01*
X183497628Y-88857020D02*
X183002653Y-88362045D01*
X183002653Y-88362045D02*
X183120504Y-88385615D01*
X183120504Y-88385615D02*
X183214785Y-88385615D01*
X183214785Y-88385615D02*
X183285496Y-88362045D01*
X183120504Y-89234144D02*
X183026223Y-89328424D01*
X183026223Y-89328424D02*
X182955513Y-89351995D01*
X182955513Y-89351995D02*
X182908372Y-89351995D01*
X182908372Y-89351995D02*
X182790521Y-89328424D01*
X182790521Y-89328424D02*
X182672670Y-89257714D01*
X182672670Y-89257714D02*
X182484108Y-89069152D01*
X182484108Y-89069152D02*
X182460538Y-88998441D01*
X182460538Y-88998441D02*
X182460538Y-88951301D01*
X182460538Y-88951301D02*
X182484108Y-88880590D01*
X182484108Y-88880590D02*
X182578389Y-88786309D01*
X182578389Y-88786309D02*
X182649100Y-88762739D01*
X182649100Y-88762739D02*
X182696240Y-88762739D01*
X182696240Y-88762739D02*
X182766951Y-88786309D01*
X182766951Y-88786309D02*
X182884802Y-88904160D01*
X182884802Y-88904160D02*
X182908372Y-88974871D01*
X182908372Y-88974871D02*
X182908372Y-89022012D01*
X182908372Y-89022012D02*
X182884802Y-89092722D01*
X182884802Y-89092722D02*
X182790521Y-89187003D01*
X182790521Y-89187003D02*
X182719810Y-89210573D01*
X182719810Y-89210573D02*
X182672670Y-89210573D01*
X182672670Y-89210573D02*
X182601959Y-89187003D01*
X186084119Y-94002194D02*
X186131259Y-94002194D01*
X186131259Y-94002194D02*
X186225540Y-93955054D01*
X186225540Y-93955054D02*
X186272680Y-93907913D01*
X186272680Y-93907913D02*
X186319821Y-93813632D01*
X186319821Y-93813632D02*
X186319821Y-93719351D01*
X186319821Y-93719351D02*
X186296251Y-93648641D01*
X186296251Y-93648641D02*
X186225540Y-93530790D01*
X186225540Y-93530790D02*
X186154829Y-93460079D01*
X186154829Y-93460079D02*
X186036978Y-93389368D01*
X186036978Y-93389368D02*
X185966268Y-93365798D01*
X185966268Y-93365798D02*
X185871987Y-93365798D01*
X185871987Y-93365798D02*
X185777706Y-93412938D01*
X185777706Y-93412938D02*
X185730565Y-93460079D01*
X185730565Y-93460079D02*
X185683425Y-93554360D01*
X185683425Y-93554360D02*
X185683425Y-93601500D01*
X185494863Y-93790062D02*
X185447723Y-93790062D01*
X185447723Y-93790062D02*
X185377012Y-93813632D01*
X185377012Y-93813632D02*
X185259161Y-93931483D01*
X185259161Y-93931483D02*
X185235591Y-94002194D01*
X185235591Y-94002194D02*
X185235591Y-94049335D01*
X185235591Y-94049335D02*
X185259161Y-94120045D01*
X185259161Y-94120045D02*
X185306301Y-94167186D01*
X185306301Y-94167186D02*
X185400582Y-94214326D01*
X185400582Y-94214326D02*
X185966268Y-94214326D01*
X185966268Y-94214326D02*
X185659855Y-94520739D01*
X184999888Y-94190756D02*
X184693475Y-94497169D01*
X184693475Y-94497169D02*
X185047028Y-94520739D01*
X185047028Y-94520739D02*
X184976318Y-94591450D01*
X184976318Y-94591450D02*
X184952748Y-94662161D01*
X184952748Y-94662161D02*
X184952748Y-94709301D01*
X184952748Y-94709301D02*
X184976318Y-94780012D01*
X184976318Y-94780012D02*
X185094169Y-94897863D01*
X185094169Y-94897863D02*
X185164880Y-94921433D01*
X185164880Y-94921433D02*
X185212020Y-94921433D01*
X185212020Y-94921433D02*
X185282731Y-94897863D01*
X185282731Y-94897863D02*
X185424152Y-94756442D01*
X185424152Y-94756442D02*
X185447722Y-94685731D01*
X185447722Y-94685731D02*
X185447722Y-94638590D01*
X172599632Y-93742525D02*
X172528921Y-93341831D01*
X172882475Y-93459682D02*
X172387500Y-92964707D01*
X172387500Y-92964707D02*
X172198938Y-93153269D01*
X172198938Y-93153269D02*
X172175368Y-93223980D01*
X172175368Y-93223980D02*
X172175368Y-93271120D01*
X172175368Y-93271120D02*
X172198938Y-93341831D01*
X172198938Y-93341831D02*
X172269649Y-93412541D01*
X172269649Y-93412541D02*
X172340360Y-93436112D01*
X172340360Y-93436112D02*
X172387500Y-93436112D01*
X172387500Y-93436112D02*
X172458211Y-93412541D01*
X172458211Y-93412541D02*
X172646773Y-93223980D01*
X171939666Y-93412541D02*
X171633253Y-93718954D01*
X171633253Y-93718954D02*
X171986806Y-93742525D01*
X171986806Y-93742525D02*
X171916096Y-93813235D01*
X171916096Y-93813235D02*
X171892525Y-93883946D01*
X171892525Y-93883946D02*
X171892525Y-93931086D01*
X171892525Y-93931086D02*
X171916096Y-94001797D01*
X171916096Y-94001797D02*
X172033947Y-94119648D01*
X172033947Y-94119648D02*
X172104657Y-94143218D01*
X172104657Y-94143218D02*
X172151798Y-94143218D01*
X172151798Y-94143218D02*
X172222508Y-94119648D01*
X172222508Y-94119648D02*
X172363930Y-93978227D01*
X172363930Y-93978227D02*
X172387500Y-93907516D01*
X172387500Y-93907516D02*
X172387500Y-93860376D01*
X171208989Y-94143219D02*
X171303269Y-94048938D01*
X171303269Y-94048938D02*
X171373980Y-94025367D01*
X171373980Y-94025367D02*
X171421121Y-94025367D01*
X171421121Y-94025367D02*
X171538972Y-94048938D01*
X171538972Y-94048938D02*
X171656823Y-94119648D01*
X171656823Y-94119648D02*
X171845385Y-94308210D01*
X171845385Y-94308210D02*
X171868955Y-94378921D01*
X171868955Y-94378921D02*
X171868955Y-94426061D01*
X171868955Y-94426061D02*
X171845385Y-94496772D01*
X171845385Y-94496772D02*
X171751104Y-94591053D01*
X171751104Y-94591053D02*
X171680393Y-94614623D01*
X171680393Y-94614623D02*
X171633253Y-94614623D01*
X171633253Y-94614623D02*
X171562542Y-94591053D01*
X171562542Y-94591053D02*
X171444691Y-94473202D01*
X171444691Y-94473202D02*
X171421121Y-94402491D01*
X171421121Y-94402491D02*
X171421121Y-94355351D01*
X171421121Y-94355351D02*
X171444691Y-94284640D01*
X171444691Y-94284640D02*
X171538972Y-94190359D01*
X171538972Y-94190359D02*
X171609682Y-94166789D01*
X171609682Y-94166789D02*
X171656823Y-94166789D01*
X171656823Y-94166789D02*
X171727534Y-94190359D01*
X176496536Y-103174460D02*
X176543676Y-103174460D01*
X176543676Y-103174460D02*
X176637957Y-103127320D01*
X176637957Y-103127320D02*
X176685097Y-103080179D01*
X176685097Y-103080179D02*
X176732238Y-102985898D01*
X176732238Y-102985898D02*
X176732238Y-102891617D01*
X176732238Y-102891617D02*
X176708668Y-102820907D01*
X176708668Y-102820907D02*
X176637957Y-102703056D01*
X176637957Y-102703056D02*
X176567246Y-102632345D01*
X176567246Y-102632345D02*
X176449395Y-102561634D01*
X176449395Y-102561634D02*
X176378685Y-102538064D01*
X176378685Y-102538064D02*
X176284404Y-102538064D01*
X176284404Y-102538064D02*
X176190123Y-102585204D01*
X176190123Y-102585204D02*
X176142982Y-102632345D01*
X176142982Y-102632345D02*
X176095842Y-102726626D01*
X176095842Y-102726626D02*
X176095842Y-102773766D01*
X175907280Y-102962328D02*
X175860140Y-102962328D01*
X175860140Y-102962328D02*
X175789429Y-102985898D01*
X175789429Y-102985898D02*
X175671578Y-103103749D01*
X175671578Y-103103749D02*
X175648008Y-103174460D01*
X175648008Y-103174460D02*
X175648008Y-103221601D01*
X175648008Y-103221601D02*
X175671578Y-103292311D01*
X175671578Y-103292311D02*
X175718718Y-103339452D01*
X175718718Y-103339452D02*
X175812999Y-103386592D01*
X175812999Y-103386592D02*
X176378685Y-103386592D01*
X176378685Y-103386592D02*
X176072272Y-103693005D01*
X175600867Y-104164410D02*
X175883710Y-103881567D01*
X175742288Y-104022988D02*
X175247313Y-103528014D01*
X175247313Y-103528014D02*
X175365165Y-103551584D01*
X175365165Y-103551584D02*
X175459445Y-103551584D01*
X175459445Y-103551584D02*
X175530156Y-103528014D01*
X190281032Y-98224999D02*
X189947699Y-97991666D01*
X190281032Y-97824999D02*
X189581032Y-97824999D01*
X189581032Y-97824999D02*
X189581032Y-98091666D01*
X189581032Y-98091666D02*
X189614365Y-98158333D01*
X189614365Y-98158333D02*
X189647699Y-98191666D01*
X189647699Y-98191666D02*
X189714365Y-98224999D01*
X189714365Y-98224999D02*
X189814365Y-98224999D01*
X189814365Y-98224999D02*
X189881032Y-98191666D01*
X189881032Y-98191666D02*
X189914365Y-98158333D01*
X189914365Y-98158333D02*
X189947699Y-98091666D01*
X189947699Y-98091666D02*
X189947699Y-97824999D01*
X189814365Y-98824999D02*
X190281032Y-98824999D01*
X189547699Y-98658333D02*
X190047699Y-98491666D01*
X190047699Y-98491666D02*
X190047699Y-98924999D01*
X189581032Y-99325000D02*
X189581032Y-99391666D01*
X189581032Y-99391666D02*
X189614365Y-99458333D01*
X189614365Y-99458333D02*
X189647699Y-99491666D01*
X189647699Y-99491666D02*
X189714365Y-99525000D01*
X189714365Y-99525000D02*
X189847699Y-99558333D01*
X189847699Y-99558333D02*
X190014365Y-99558333D01*
X190014365Y-99558333D02*
X190147699Y-99525000D01*
X190147699Y-99525000D02*
X190214365Y-99491666D01*
X190214365Y-99491666D02*
X190247699Y-99458333D01*
X190247699Y-99458333D02*
X190281032Y-99391666D01*
X190281032Y-99391666D02*
X190281032Y-99325000D01*
X190281032Y-99325000D02*
X190247699Y-99258333D01*
X190247699Y-99258333D02*
X190214365Y-99225000D01*
X190214365Y-99225000D02*
X190147699Y-99191666D01*
X190147699Y-99191666D02*
X190014365Y-99158333D01*
X190014365Y-99158333D02*
X189847699Y-99158333D01*
X189847699Y-99158333D02*
X189714365Y-99191666D01*
X189714365Y-99191666D02*
X189647699Y-99225000D01*
X189647699Y-99225000D02*
X189614365Y-99258333D01*
X189614365Y-99258333D02*
X189581032Y-99325000D01*
X192488093Y-106364783D02*
X192721426Y-106364783D01*
X192721426Y-106731450D02*
X192721426Y-106031450D01*
X192721426Y-106031450D02*
X192388093Y-106031450D01*
X191754759Y-106731450D02*
X192154759Y-106731450D01*
X191954759Y-106731450D02*
X191954759Y-106031450D01*
X191954759Y-106031450D02*
X192021426Y-106131450D01*
X192021426Y-106131450D02*
X192088093Y-106198117D01*
X192088093Y-106198117D02*
X192154759Y-106231450D01*
X191154759Y-106264783D02*
X191154759Y-106731450D01*
X191321426Y-105998117D02*
X191488092Y-106498117D01*
X191488092Y-106498117D02*
X191054759Y-106498117D01*
X196867242Y-118298056D02*
X197100575Y-118298056D01*
X197100575Y-118664723D02*
X197100575Y-117964723D01*
X197100575Y-117964723D02*
X196767242Y-117964723D01*
X196467242Y-118664723D02*
X196333908Y-118664723D01*
X196333908Y-118664723D02*
X196267242Y-118631390D01*
X196267242Y-118631390D02*
X196233908Y-118598056D01*
X196233908Y-118598056D02*
X196167242Y-118498056D01*
X196167242Y-118498056D02*
X196133908Y-118364723D01*
X196133908Y-118364723D02*
X196133908Y-118098056D01*
X196133908Y-118098056D02*
X196167242Y-118031390D01*
X196167242Y-118031390D02*
X196200575Y-117998056D01*
X196200575Y-117998056D02*
X196267242Y-117964723D01*
X196267242Y-117964723D02*
X196400575Y-117964723D01*
X196400575Y-117964723D02*
X196467242Y-117998056D01*
X196467242Y-117998056D02*
X196500575Y-118031390D01*
X196500575Y-118031390D02*
X196533908Y-118098056D01*
X196533908Y-118098056D02*
X196533908Y-118264723D01*
X196533908Y-118264723D02*
X196500575Y-118331390D01*
X196500575Y-118331390D02*
X196467242Y-118364723D01*
X196467242Y-118364723D02*
X196400575Y-118398056D01*
X196400575Y-118398056D02*
X196267242Y-118398056D01*
X196267242Y-118398056D02*
X196200575Y-118364723D01*
X196200575Y-118364723D02*
X196167242Y-118331390D01*
X196167242Y-118331390D02*
X196133908Y-118264723D01*
X175855684Y-102483141D02*
X175902824Y-102483141D01*
X175902824Y-102483141D02*
X175997105Y-102436001D01*
X175997105Y-102436001D02*
X176044245Y-102388860D01*
X176044245Y-102388860D02*
X176091386Y-102294579D01*
X176091386Y-102294579D02*
X176091386Y-102200298D01*
X176091386Y-102200298D02*
X176067816Y-102129588D01*
X176067816Y-102129588D02*
X175997105Y-102011737D01*
X175997105Y-102011737D02*
X175926394Y-101941026D01*
X175926394Y-101941026D02*
X175808543Y-101870315D01*
X175808543Y-101870315D02*
X175737833Y-101846745D01*
X175737833Y-101846745D02*
X175643552Y-101846745D01*
X175643552Y-101846745D02*
X175549271Y-101893885D01*
X175549271Y-101893885D02*
X175502130Y-101941026D01*
X175502130Y-101941026D02*
X175454990Y-102035307D01*
X175454990Y-102035307D02*
X175454990Y-102082447D01*
X175266428Y-102271009D02*
X175219288Y-102271009D01*
X175219288Y-102271009D02*
X175148577Y-102294579D01*
X175148577Y-102294579D02*
X175030726Y-102412430D01*
X175030726Y-102412430D02*
X175007156Y-102483141D01*
X175007156Y-102483141D02*
X175007156Y-102530282D01*
X175007156Y-102530282D02*
X175030726Y-102600992D01*
X175030726Y-102600992D02*
X175077866Y-102648133D01*
X175077866Y-102648133D02*
X175172147Y-102695273D01*
X175172147Y-102695273D02*
X175737833Y-102695273D01*
X175737833Y-102695273D02*
X175431420Y-103001686D01*
X174630032Y-102813124D02*
X174582891Y-102860265D01*
X174582891Y-102860265D02*
X174559321Y-102930976D01*
X174559321Y-102930976D02*
X174559321Y-102978116D01*
X174559321Y-102978116D02*
X174582891Y-103048827D01*
X174582891Y-103048827D02*
X174653602Y-103166678D01*
X174653602Y-103166678D02*
X174771453Y-103284529D01*
X174771453Y-103284529D02*
X174889304Y-103355240D01*
X174889304Y-103355240D02*
X174960015Y-103378810D01*
X174960015Y-103378810D02*
X175007155Y-103378810D01*
X175007155Y-103378810D02*
X175077866Y-103355240D01*
X175077866Y-103355240D02*
X175125006Y-103308099D01*
X175125006Y-103308099D02*
X175148577Y-103237389D01*
X175148577Y-103237389D02*
X175148577Y-103190248D01*
X175148577Y-103190248D02*
X175125006Y-103119537D01*
X175125006Y-103119537D02*
X175054296Y-103001686D01*
X175054296Y-103001686D02*
X174936445Y-102883835D01*
X174936445Y-102883835D02*
X174818593Y-102813124D01*
X174818593Y-102813124D02*
X174747883Y-102789554D01*
X174747883Y-102789554D02*
X174700742Y-102789554D01*
X174700742Y-102789554D02*
X174630032Y-102813124D01*
X206441033Y-84555000D02*
X205741033Y-84555000D01*
X205741033Y-84555000D02*
X205741033Y-84721667D01*
X205741033Y-84721667D02*
X205774366Y-84821667D01*
X205774366Y-84821667D02*
X205841033Y-84888334D01*
X205841033Y-84888334D02*
X205907700Y-84921667D01*
X205907700Y-84921667D02*
X206041033Y-84955000D01*
X206041033Y-84955000D02*
X206141033Y-84955000D01*
X206141033Y-84955000D02*
X206274366Y-84921667D01*
X206274366Y-84921667D02*
X206341033Y-84888334D01*
X206341033Y-84888334D02*
X206407700Y-84821667D01*
X206407700Y-84821667D02*
X206441033Y-84721667D01*
X206441033Y-84721667D02*
X206441033Y-84555000D01*
X205807700Y-85221667D02*
X205774366Y-85255000D01*
X205774366Y-85255000D02*
X205741033Y-85321667D01*
X205741033Y-85321667D02*
X205741033Y-85488334D01*
X205741033Y-85488334D02*
X205774366Y-85555000D01*
X205774366Y-85555000D02*
X205807700Y-85588334D01*
X205807700Y-85588334D02*
X205874366Y-85621667D01*
X205874366Y-85621667D02*
X205941033Y-85621667D01*
X205941033Y-85621667D02*
X206041033Y-85588334D01*
X206041033Y-85588334D02*
X206441033Y-85188334D01*
X206441033Y-85188334D02*
X206441033Y-85621667D01*
X205741033Y-86255001D02*
X205741033Y-85921667D01*
X205741033Y-85921667D02*
X206074366Y-85888334D01*
X206074366Y-85888334D02*
X206041033Y-85921667D01*
X206041033Y-85921667D02*
X206007700Y-85988334D01*
X206007700Y-85988334D02*
X206007700Y-86155001D01*
X206007700Y-86155001D02*
X206041033Y-86221667D01*
X206041033Y-86221667D02*
X206074366Y-86255001D01*
X206074366Y-86255001D02*
X206141033Y-86288334D01*
X206141033Y-86288334D02*
X206307700Y-86288334D01*
X206307700Y-86288334D02*
X206374366Y-86255001D01*
X206374366Y-86255001D02*
X206407700Y-86221667D01*
X206407700Y-86221667D02*
X206441033Y-86155001D01*
X206441033Y-86155001D02*
X206441033Y-85988334D01*
X206441033Y-85988334D02*
X206407700Y-85921667D01*
X206407700Y-85921667D02*
X206374366Y-85888334D01*
X200055000Y-113264365D02*
X200088333Y-113297699D01*
X200088333Y-113297699D02*
X200188333Y-113331032D01*
X200188333Y-113331032D02*
X200255000Y-113331032D01*
X200255000Y-113331032D02*
X200355000Y-113297699D01*
X200355000Y-113297699D02*
X200421667Y-113231032D01*
X200421667Y-113231032D02*
X200455000Y-113164365D01*
X200455000Y-113164365D02*
X200488333Y-113031032D01*
X200488333Y-113031032D02*
X200488333Y-112931032D01*
X200488333Y-112931032D02*
X200455000Y-112797699D01*
X200455000Y-112797699D02*
X200421667Y-112731032D01*
X200421667Y-112731032D02*
X200355000Y-112664365D01*
X200355000Y-112664365D02*
X200255000Y-112631032D01*
X200255000Y-112631032D02*
X200188333Y-112631032D01*
X200188333Y-112631032D02*
X200088333Y-112664365D01*
X200088333Y-112664365D02*
X200055000Y-112697699D01*
X199821667Y-112631032D02*
X199355000Y-112631032D01*
X199355000Y-112631032D02*
X199655000Y-113331032D01*
X198955000Y-112631032D02*
X198888333Y-112631032D01*
X198888333Y-112631032D02*
X198821666Y-112664365D01*
X198821666Y-112664365D02*
X198788333Y-112697699D01*
X198788333Y-112697699D02*
X198755000Y-112764365D01*
X198755000Y-112764365D02*
X198721666Y-112897699D01*
X198721666Y-112897699D02*
X198721666Y-113064365D01*
X198721666Y-113064365D02*
X198755000Y-113197699D01*
X198755000Y-113197699D02*
X198788333Y-113264365D01*
X198788333Y-113264365D02*
X198821666Y-113297699D01*
X198821666Y-113297699D02*
X198888333Y-113331032D01*
X198888333Y-113331032D02*
X198955000Y-113331032D01*
X198955000Y-113331032D02*
X199021666Y-113297699D01*
X199021666Y-113297699D02*
X199055000Y-113264365D01*
X199055000Y-113264365D02*
X199088333Y-113197699D01*
X199088333Y-113197699D02*
X199121666Y-113064365D01*
X199121666Y-113064365D02*
X199121666Y-112897699D01*
X199121666Y-112897699D02*
X199088333Y-112764365D01*
X199088333Y-112764365D02*
X199055000Y-112697699D01*
X199055000Y-112697699D02*
X199021666Y-112664365D01*
X199021666Y-112664365D02*
X198955000Y-112631032D01*
X198198333Y-85054366D02*
X198431666Y-85054366D01*
X198431666Y-85421033D02*
X198431666Y-84721033D01*
X198431666Y-84721033D02*
X198098333Y-84721033D01*
X197898333Y-84721033D02*
X197464999Y-84721033D01*
X197464999Y-84721033D02*
X197698333Y-84987700D01*
X197698333Y-84987700D02*
X197598333Y-84987700D01*
X197598333Y-84987700D02*
X197531666Y-85021033D01*
X197531666Y-85021033D02*
X197498333Y-85054366D01*
X197498333Y-85054366D02*
X197464999Y-85121033D01*
X197464999Y-85121033D02*
X197464999Y-85287700D01*
X197464999Y-85287700D02*
X197498333Y-85354366D01*
X197498333Y-85354366D02*
X197531666Y-85387700D01*
X197531666Y-85387700D02*
X197598333Y-85421033D01*
X197598333Y-85421033D02*
X197798333Y-85421033D01*
X197798333Y-85421033D02*
X197864999Y-85387700D01*
X197864999Y-85387700D02*
X197898333Y-85354366D01*
X192488095Y-107354782D02*
X192721428Y-107354782D01*
X192721428Y-107721449D02*
X192721428Y-107021449D01*
X192721428Y-107021449D02*
X192388095Y-107021449D01*
X191754761Y-107721449D02*
X192154761Y-107721449D01*
X191954761Y-107721449D02*
X191954761Y-107021449D01*
X191954761Y-107021449D02*
X192021428Y-107121449D01*
X192021428Y-107121449D02*
X192088095Y-107188116D01*
X192088095Y-107188116D02*
X192154761Y-107221449D01*
X191521428Y-107021449D02*
X191088094Y-107021449D01*
X191088094Y-107021449D02*
X191321428Y-107288116D01*
X191321428Y-107288116D02*
X191221428Y-107288116D01*
X191221428Y-107288116D02*
X191154761Y-107321449D01*
X191154761Y-107321449D02*
X191121428Y-107354782D01*
X191121428Y-107354782D02*
X191088094Y-107421449D01*
X191088094Y-107421449D02*
X191088094Y-107588116D01*
X191088094Y-107588116D02*
X191121428Y-107654782D01*
X191121428Y-107654782D02*
X191154761Y-107688116D01*
X191154761Y-107688116D02*
X191221428Y-107721449D01*
X191221428Y-107721449D02*
X191421428Y-107721449D01*
X191421428Y-107721449D02*
X191488094Y-107688116D01*
X191488094Y-107688116D02*
X191521428Y-107654782D01*
X198198417Y-104691033D02*
X198431750Y-104357700D01*
X198598417Y-104691033D02*
X198598417Y-103991033D01*
X198598417Y-103991033D02*
X198331750Y-103991033D01*
X198331750Y-103991033D02*
X198265084Y-104024366D01*
X198265084Y-104024366D02*
X198231750Y-104057700D01*
X198231750Y-104057700D02*
X198198417Y-104124366D01*
X198198417Y-104124366D02*
X198198417Y-104224366D01*
X198198417Y-104224366D02*
X198231750Y-104291033D01*
X198231750Y-104291033D02*
X198265084Y-104324366D01*
X198265084Y-104324366D02*
X198331750Y-104357700D01*
X198331750Y-104357700D02*
X198598417Y-104357700D01*
X197965084Y-103991033D02*
X197531750Y-103991033D01*
X197531750Y-103991033D02*
X197765084Y-104257700D01*
X197765084Y-104257700D02*
X197665084Y-104257700D01*
X197665084Y-104257700D02*
X197598417Y-104291033D01*
X197598417Y-104291033D02*
X197565084Y-104324366D01*
X197565084Y-104324366D02*
X197531750Y-104391033D01*
X197531750Y-104391033D02*
X197531750Y-104557700D01*
X197531750Y-104557700D02*
X197565084Y-104624366D01*
X197565084Y-104624366D02*
X197598417Y-104657700D01*
X197598417Y-104657700D02*
X197665084Y-104691033D01*
X197665084Y-104691033D02*
X197865084Y-104691033D01*
X197865084Y-104691033D02*
X197931750Y-104657700D01*
X197931750Y-104657700D02*
X197965084Y-104624366D01*
X207854366Y-106734999D02*
X207887700Y-106701666D01*
X207887700Y-106701666D02*
X207921033Y-106601666D01*
X207921033Y-106601666D02*
X207921033Y-106534999D01*
X207921033Y-106534999D02*
X207887700Y-106434999D01*
X207887700Y-106434999D02*
X207821033Y-106368333D01*
X207821033Y-106368333D02*
X207754366Y-106334999D01*
X207754366Y-106334999D02*
X207621033Y-106301666D01*
X207621033Y-106301666D02*
X207521033Y-106301666D01*
X207521033Y-106301666D02*
X207387700Y-106334999D01*
X207387700Y-106334999D02*
X207321033Y-106368333D01*
X207321033Y-106368333D02*
X207254366Y-106434999D01*
X207254366Y-106434999D02*
X207221033Y-106534999D01*
X207221033Y-106534999D02*
X207221033Y-106601666D01*
X207221033Y-106601666D02*
X207254366Y-106701666D01*
X207254366Y-106701666D02*
X207287700Y-106734999D01*
X207221033Y-107334999D02*
X207221033Y-107201666D01*
X207221033Y-107201666D02*
X207254366Y-107134999D01*
X207254366Y-107134999D02*
X207287700Y-107101666D01*
X207287700Y-107101666D02*
X207387700Y-107034999D01*
X207387700Y-107034999D02*
X207521033Y-107001666D01*
X207521033Y-107001666D02*
X207787700Y-107001666D01*
X207787700Y-107001666D02*
X207854366Y-107034999D01*
X207854366Y-107034999D02*
X207887700Y-107068333D01*
X207887700Y-107068333D02*
X207921033Y-107134999D01*
X207921033Y-107134999D02*
X207921033Y-107268333D01*
X207921033Y-107268333D02*
X207887700Y-107334999D01*
X207887700Y-107334999D02*
X207854366Y-107368333D01*
X207854366Y-107368333D02*
X207787700Y-107401666D01*
X207787700Y-107401666D02*
X207621033Y-107401666D01*
X207621033Y-107401666D02*
X207554366Y-107368333D01*
X207554366Y-107368333D02*
X207521033Y-107334999D01*
X207521033Y-107334999D02*
X207487700Y-107268333D01*
X207487700Y-107268333D02*
X207487700Y-107134999D01*
X207487700Y-107134999D02*
X207521033Y-107068333D01*
X207521033Y-107068333D02*
X207554366Y-107034999D01*
X207554366Y-107034999D02*
X207621033Y-107001666D01*
X207221033Y-107635000D02*
X207221033Y-108101666D01*
X207221033Y-108101666D02*
X207921033Y-107801666D01*
X194227059Y-109545810D02*
X194260393Y-109512477D01*
X194260393Y-109512477D02*
X194293726Y-109412477D01*
X194293726Y-109412477D02*
X194293726Y-109345810D01*
X194293726Y-109345810D02*
X194260393Y-109245810D01*
X194260393Y-109245810D02*
X194193726Y-109179144D01*
X194193726Y-109179144D02*
X194127059Y-109145810D01*
X194127059Y-109145810D02*
X193993726Y-109112477D01*
X193993726Y-109112477D02*
X193893726Y-109112477D01*
X193893726Y-109112477D02*
X193760393Y-109145810D01*
X193760393Y-109145810D02*
X193693726Y-109179144D01*
X193693726Y-109179144D02*
X193627059Y-109245810D01*
X193627059Y-109245810D02*
X193593726Y-109345810D01*
X193593726Y-109345810D02*
X193593726Y-109412477D01*
X193593726Y-109412477D02*
X193627059Y-109512477D01*
X193627059Y-109512477D02*
X193660393Y-109545810D01*
X193593726Y-109779144D02*
X193593726Y-110245810D01*
X193593726Y-110245810D02*
X194293726Y-109945810D01*
X193593726Y-110445811D02*
X193593726Y-110879144D01*
X193593726Y-110879144D02*
X193860393Y-110645811D01*
X193860393Y-110645811D02*
X193860393Y-110745811D01*
X193860393Y-110745811D02*
X193893726Y-110812477D01*
X193893726Y-110812477D02*
X193927059Y-110845811D01*
X193927059Y-110845811D02*
X193993726Y-110879144D01*
X193993726Y-110879144D02*
X194160393Y-110879144D01*
X194160393Y-110879144D02*
X194227059Y-110845811D01*
X194227059Y-110845811D02*
X194260393Y-110812477D01*
X194260393Y-110812477D02*
X194293726Y-110745811D01*
X194293726Y-110745811D02*
X194293726Y-110545811D01*
X194293726Y-110545811D02*
X194260393Y-110479144D01*
X194260393Y-110479144D02*
X194227059Y-110445811D01*
X180398020Y-110562008D02*
X180431354Y-110528675D01*
X180431354Y-110528675D02*
X180464687Y-110428675D01*
X180464687Y-110428675D02*
X180464687Y-110362008D01*
X180464687Y-110362008D02*
X180431354Y-110262008D01*
X180431354Y-110262008D02*
X180364687Y-110195342D01*
X180364687Y-110195342D02*
X180298020Y-110162008D01*
X180298020Y-110162008D02*
X180164687Y-110128675D01*
X180164687Y-110128675D02*
X180064687Y-110128675D01*
X180064687Y-110128675D02*
X179931354Y-110162008D01*
X179931354Y-110162008D02*
X179864687Y-110195342D01*
X179864687Y-110195342D02*
X179798020Y-110262008D01*
X179798020Y-110262008D02*
X179764687Y-110362008D01*
X179764687Y-110362008D02*
X179764687Y-110428675D01*
X179764687Y-110428675D02*
X179798020Y-110528675D01*
X179798020Y-110528675D02*
X179831354Y-110562008D01*
X179764687Y-111195342D02*
X179764687Y-110862008D01*
X179764687Y-110862008D02*
X180098020Y-110828675D01*
X180098020Y-110828675D02*
X180064687Y-110862008D01*
X180064687Y-110862008D02*
X180031354Y-110928675D01*
X180031354Y-110928675D02*
X180031354Y-111095342D01*
X180031354Y-111095342D02*
X180064687Y-111162008D01*
X180064687Y-111162008D02*
X180098020Y-111195342D01*
X180098020Y-111195342D02*
X180164687Y-111228675D01*
X180164687Y-111228675D02*
X180331354Y-111228675D01*
X180331354Y-111228675D02*
X180398020Y-111195342D01*
X180398020Y-111195342D02*
X180431354Y-111162008D01*
X180431354Y-111162008D02*
X180464687Y-111095342D01*
X180464687Y-111095342D02*
X180464687Y-110928675D01*
X180464687Y-110928675D02*
X180431354Y-110862008D01*
X180431354Y-110862008D02*
X180398020Y-110828675D01*
%TO.C,L6*%
D13*
X188080467Y-115640736D02*
X191500467Y-115640736D01*
X191500467Y-112620736D02*
X188080467Y-112620736D01*
X187670467Y-114910736D02*
X187340466Y-115150736D01*
X187340467Y-114670736D01*
X187670467Y-114910736D01*
G36*
X187670467Y-114910736D02*
G01*
X187340466Y-115150736D01*
X187340467Y-114670736D01*
X187670467Y-114910736D01*
G37*
%TO.C,L4*%
X210096208Y-91809606D02*
X210096208Y-88389606D01*
X207076208Y-88389606D02*
X207076208Y-91809606D01*
X209606208Y-92549607D02*
X209126208Y-92549606D01*
X209366208Y-92219606D01*
X209606208Y-92549607D01*
G36*
X209606208Y-92549607D02*
G01*
X209126208Y-92549606D01*
X209366208Y-92219606D01*
X209606208Y-92549607D01*
G37*
%TO.C,R15*%
X174855662Y-111700390D02*
X174381148Y-111700390D01*
X174855662Y-110655390D02*
X174381148Y-110655390D01*
%TO.C,C66*%
X172696031Y-114782025D02*
X172696031Y-114500865D01*
X171676031Y-114782025D02*
X171676031Y-114500865D01*
%TO.C,D10*%
X168570893Y-104142341D02*
X168570893Y-106802341D01*
X168570893Y-104142341D02*
X170270893Y-104142341D01*
X170270893Y-104142341D02*
X170270893Y-106802341D01*
%TO.C,R5*%
X176228394Y-106909142D02*
X176445675Y-107126423D01*
X175690993Y-107446543D02*
X175908274Y-107663824D01*
%TO.C,C65*%
X177797892Y-114732175D02*
X177797892Y-114451015D01*
X176777892Y-114732175D02*
X176777892Y-114451015D01*
%TO.C,C4*%
X177083044Y-106416237D02*
X176930541Y-106263734D01*
X176573927Y-106925354D02*
X176421424Y-106772851D01*
%TO.C,U13*%
X173190000Y-113055000D02*
X173190000Y-114875000D01*
X173240000Y-113055000D02*
X173190000Y-113055000D01*
X176310000Y-113055000D02*
X176260000Y-113055000D01*
X173190000Y-114875000D02*
X173240000Y-114875000D01*
X176260000Y-114875000D02*
X176310000Y-114875000D01*
X176310000Y-114875000D02*
X176310000Y-113055000D01*
X173240000Y-112515000D02*
X172910000Y-112755000D01*
X172910000Y-112275000D01*
X173240000Y-112515000D01*
G36*
X173240000Y-112515000D02*
G01*
X172910000Y-112755000D01*
X172910000Y-112275000D01*
X173240000Y-112515000D01*
G37*
%TO.C,C36*%
X173644770Y-106742379D02*
X173492267Y-106589876D01*
X174153887Y-106233262D02*
X174001384Y-106080759D01*
%TO.C,U9*%
X201530000Y-89995000D02*
X201530000Y-90220000D01*
X201530000Y-92990000D02*
X201530000Y-93215000D01*
X201530000Y-93215000D02*
X204750000Y-93215000D01*
X204750000Y-89995000D02*
X201530000Y-89995000D01*
X204750000Y-90220000D02*
X204750000Y-89995000D01*
X204750000Y-93215000D02*
X204750000Y-92990000D01*
X201000000Y-92585000D02*
X200670000Y-92825000D01*
X200670000Y-92345000D01*
X201000000Y-92585000D01*
G36*
X201000000Y-92585000D02*
G01*
X200670000Y-92825000D01*
X200670000Y-92345000D01*
X201000000Y-92585000D01*
G37*
%TO.C,C38*%
X172915810Y-97506693D02*
X172763307Y-97354190D01*
X172406693Y-98015810D02*
X172254190Y-97863307D01*
%TO.C,R31*%
X161791359Y-107985000D02*
X162098641Y-107985000D01*
X161791359Y-107225000D02*
X162098641Y-107225000D01*
%TO.C,C75*%
X165815093Y-109925041D02*
X167237597Y-109925041D01*
X165815093Y-108105041D02*
X167237597Y-108105041D01*
%TO.C,C11*%
X182670638Y-93830058D02*
X182518135Y-93982561D01*
X182161521Y-93320941D02*
X182009018Y-93473444D01*
%TO.C,C42*%
X181290308Y-92449054D02*
X181137805Y-92601557D01*
X180781191Y-91939937D02*
X180628688Y-92092440D01*
%TO.C,C68*%
X166305046Y-112012402D02*
X166305046Y-113434906D01*
X164485046Y-112012402D02*
X164485046Y-113434906D01*
%TO.C,C35*%
X172170099Y-104101190D02*
X172017596Y-103948687D01*
X171660982Y-104610307D02*
X171508479Y-104457804D01*
%TO.C,C10*%
X181984744Y-93144165D02*
X181832241Y-93296668D01*
X181475627Y-92635048D02*
X181323124Y-92787551D01*
%TO.C,C52*%
X197575000Y-97982836D02*
X197575000Y-97767164D01*
X196855000Y-97982836D02*
X196855000Y-97767164D01*
%TO.C,C56*%
X206285000Y-89867164D02*
X206285000Y-90082836D01*
X205565000Y-89867164D02*
X205565000Y-90082836D01*
%TO.C,C37*%
X175998886Y-94178262D02*
X175846383Y-94025759D01*
X175489769Y-94687379D02*
X175337266Y-94534876D01*
%TO.C,R28*%
X168227131Y-94365917D02*
X168227131Y-94673199D01*
X167467131Y-94365917D02*
X167467131Y-94673199D01*
%TO.C,L2*%
X171242524Y-116084347D02*
X171242524Y-111664347D01*
X171242524Y-111664347D02*
X170542524Y-111664347D01*
X170542524Y-116084347D02*
X171242524Y-116084347D01*
X167522524Y-111664347D02*
X166822524Y-111664347D01*
X166822524Y-116084347D02*
X167522524Y-116084347D01*
X166822524Y-111664347D02*
X166822524Y-116084347D01*
%TO.C,R32*%
X161791359Y-108995001D02*
X162098641Y-108995001D01*
X161791359Y-108235001D02*
X162098641Y-108235001D01*
%TO.C,C18*%
X183870059Y-95341642D02*
X184022562Y-95189139D01*
X183360942Y-94832525D02*
X183513445Y-94680022D01*
%TO.C,R24*%
X169337574Y-95805859D02*
X169337574Y-95498577D01*
X168577574Y-95805859D02*
X168577574Y-95498577D01*
%TO.C,C27*%
X183191236Y-94662820D02*
X183343739Y-94510317D01*
X182682119Y-94153703D02*
X182834622Y-94001200D01*
%TO.C,U6*%
X169873395Y-93168711D02*
X169392562Y-93649544D01*
X169300639Y-93076787D01*
X169873395Y-93168711D01*
G36*
X169873395Y-93168711D02*
G01*
X169392562Y-93649544D01*
X169300639Y-93076787D01*
X169873395Y-93168711D01*
G37*
X173974614Y-88770507D02*
X173783696Y-88579588D01*
X170262304Y-85058196D02*
X170071385Y-84867278D01*
X170071385Y-92673736D02*
X173974614Y-88770507D01*
X170071385Y-84867278D02*
X166168156Y-88770507D01*
X169880466Y-92482818D02*
X170071385Y-92673736D01*
X166168156Y-88770507D02*
X166359074Y-88961426D01*
%TO.C,C34*%
X180604414Y-91763163D02*
X180451911Y-91915666D01*
X180095297Y-91254046D02*
X179942794Y-91406549D01*
%TO.C,U11*%
X185229602Y-107859673D02*
X185229602Y-111079673D01*
X185229602Y-111079673D02*
X185454602Y-111079673D01*
X185454602Y-107859673D02*
X185229602Y-107859673D01*
X188224602Y-111079673D02*
X188449602Y-111079673D01*
X188449602Y-107859673D02*
X188224602Y-107859673D01*
X188449602Y-111079673D02*
X188449602Y-107859673D01*
X185859604Y-107329673D02*
X185619601Y-106999673D01*
X186099602Y-106999673D01*
X185859604Y-107329673D01*
G36*
X185859604Y-107329673D02*
G01*
X185619601Y-106999673D01*
X186099602Y-106999673D01*
X185859604Y-107329673D01*
G37*
%TO.C,C54*%
X197575000Y-99667164D02*
X197575000Y-99882836D01*
X196855000Y-99667164D02*
X196855000Y-99882836D01*
%TO.C,U14*%
X202964601Y-108140826D02*
X202724601Y-107810826D01*
X203204601Y-107810826D01*
X202964601Y-108140826D01*
G36*
X202964601Y-108140826D02*
G01*
X202724601Y-107810826D01*
X203204601Y-107810826D01*
X202964601Y-108140826D01*
G37*
X205849602Y-111890826D02*
X205849602Y-108670826D01*
X202579600Y-108670826D02*
X202579600Y-111890826D01*
%TO.C,Q1*%
X204941750Y-101305000D02*
X204611751Y-101065000D01*
X204941750Y-100825000D01*
X204941750Y-101305000D01*
G36*
X204941750Y-101305000D02*
G01*
X204611751Y-101065000D01*
X204941750Y-100825000D01*
X204941750Y-101305000D01*
G37*
X204841750Y-94625000D02*
X204841750Y-100555000D01*
X199341750Y-101425000D02*
X199341750Y-94625000D01*
X199341750Y-94625000D02*
X204841750Y-94625000D01*
%TO.C,D16*%
X191241427Y-106785418D02*
X192601427Y-106785418D01*
X191241427Y-107585418D02*
X192601427Y-107585418D01*
X192601427Y-106785418D02*
X192601427Y-107585418D01*
%TO.C,C71*%
X201884419Y-114245000D02*
X202165579Y-114245000D01*
X201884419Y-115265000D02*
X202165579Y-115265000D01*
%TO.C,D24*%
X193083198Y-112491705D02*
X193083198Y-112541705D01*
X193083198Y-113661705D02*
X193083198Y-114441705D01*
X193083198Y-115561705D02*
X193083198Y-115611705D01*
X193083198Y-115611705D02*
X194903198Y-115611705D01*
X194903198Y-112491705D02*
X193083198Y-112491705D01*
X194903198Y-113491705D02*
X194903198Y-112491705D01*
X194903198Y-115611705D02*
X194903198Y-114611705D01*
X192543198Y-114431705D02*
X192303198Y-114101705D01*
X192783198Y-114101705D01*
X192543198Y-114431705D01*
G36*
X192543198Y-114431705D02*
G01*
X192303198Y-114101705D01*
X192783198Y-114101705D01*
X192543198Y-114431705D01*
G37*
%TO.C,D14*%
X191241427Y-103865418D02*
X192601427Y-103865418D01*
X191241427Y-104665418D02*
X192601427Y-104665418D01*
X192601427Y-103865418D02*
X192601427Y-104665418D01*
%TO.C,R16*%
X178435444Y-111760947D02*
X177960930Y-111760947D01*
X178435444Y-112805947D02*
X177960930Y-112805947D01*
%TO.C,R48*%
X205555000Y-91701359D02*
X205555000Y-92008641D01*
X206315000Y-91701359D02*
X206315000Y-92008641D01*
%TO.C,R55*%
X204920546Y-112557691D02*
X205227828Y-112557691D01*
X204920546Y-113317691D02*
X205227828Y-113317691D01*
%TO.C,RR1*%
X183508642Y-83245000D02*
X183201360Y-83245000D01*
X183508642Y-84005000D02*
X183201360Y-84005000D01*
%TO.C,C43*%
X181407266Y-104592156D02*
X181559769Y-104744659D01*
X181916383Y-104083039D02*
X182068886Y-104235542D01*
%TO.C,R29*%
X167017251Y-102817339D02*
X167324533Y-102817339D01*
X167017251Y-103577339D02*
X167324533Y-103577339D01*
%TO.C,C19*%
X172936957Y-100383781D02*
X173089460Y-100231278D01*
X173446074Y-100892898D02*
X173598577Y-100740395D01*
%TO.C,R38*%
X191843641Y-93780000D02*
X191536359Y-93780000D01*
X191843641Y-94540000D02*
X191536359Y-94540000D01*
%TO.C,C60*%
X200175000Y-91427164D02*
X200175000Y-91642836D01*
X200895000Y-91427164D02*
X200895000Y-91642836D01*
%TO.C,R20*%
X191081360Y-83425000D02*
X191388642Y-83425000D01*
X191081360Y-84185000D02*
X191388642Y-84185000D01*
%TO.C,C6*%
X177823626Y-109782834D02*
X177976129Y-109630331D01*
X178332743Y-110291951D02*
X178485246Y-110139448D01*
%TO.C,Q3*%
X165172660Y-104930894D02*
X165172660Y-106450894D01*
X165172660Y-106450894D02*
X166172660Y-106450894D01*
X165222660Y-104930894D02*
X165172660Y-104930894D01*
X167122660Y-104930894D02*
X166342660Y-104930894D01*
X167292660Y-106450894D02*
X168292660Y-106450894D01*
X168292660Y-104930894D02*
X168242660Y-104930894D01*
X168292660Y-106450894D02*
X168292660Y-104930894D01*
X166682660Y-104630894D02*
X166352660Y-104390894D01*
X166682660Y-104150894D01*
X166682660Y-104630894D01*
G36*
X166682660Y-104630894D02*
G01*
X166352660Y-104390894D01*
X166682660Y-104150894D01*
X166682660Y-104630894D01*
G37*
%TO.C,U5*%
X186240000Y-81960000D02*
X186240000Y-82010000D01*
X186240000Y-85030000D02*
X186240000Y-85080000D01*
X186240000Y-85080000D02*
X188060000Y-85080000D01*
X188060000Y-81960000D02*
X186240000Y-81960000D01*
X188060000Y-82010000D02*
X188060000Y-81960000D01*
X188060000Y-85080000D02*
X188060000Y-85030000D01*
X185940000Y-85360000D02*
X185460000Y-85360000D01*
X185700000Y-85030000D01*
X185940000Y-85360000D01*
G36*
X185940000Y-85360000D02*
G01*
X185460000Y-85360000D01*
X185700000Y-85030000D01*
X185940000Y-85360000D01*
G37*
%TO.C,C8*%
X176449433Y-108438004D02*
X176601936Y-108285501D01*
X176958550Y-108947121D02*
X177111053Y-108794618D01*
%TO.C,R56*%
X205647691Y-106952170D02*
X205647691Y-107259452D01*
X206407691Y-106952170D02*
X206407691Y-107259452D01*
%TO.C,C32*%
X185126693Y-90354190D02*
X184974190Y-90506693D01*
X185635810Y-90863307D02*
X185483307Y-91015810D01*
%TO.C,L8*%
X194277095Y-105153538D02*
X194277095Y-106553538D01*
X194277095Y-110573538D02*
X194277095Y-111973538D01*
X194277095Y-111973538D02*
X201297095Y-111973538D01*
X201297095Y-105153538D02*
X194277095Y-105153538D01*
X201297095Y-106553538D02*
X201297095Y-105153538D01*
X201297095Y-111973538D02*
X201297095Y-110573538D01*
%TO.C,C55*%
X179847889Y-114732175D02*
X179847889Y-114451015D01*
X180867889Y-114732175D02*
X180867889Y-114451015D01*
%TO.C,C74*%
X201894420Y-112725000D02*
X202175580Y-112725000D01*
X201894420Y-113745000D02*
X202175580Y-113745000D01*
%TO.C,R39*%
X190515000Y-95838642D02*
X190515000Y-95531360D01*
X191275000Y-95838642D02*
X191275000Y-95531360D01*
%TO.C,R53*%
X204635946Y-105684187D02*
X204328664Y-105684187D01*
X204635946Y-106444187D02*
X204328664Y-106444187D01*
%TO.C,R26*%
X161781359Y-106235000D02*
X162088641Y-106235000D01*
X161781359Y-106995000D02*
X162088641Y-106995000D01*
%TO.C,C62*%
X187321354Y-106276396D02*
X187105682Y-106276396D01*
X187321354Y-106996396D02*
X187105682Y-106996396D01*
%TO.C,C26*%
X172942500Y-97179469D02*
X173095003Y-97331972D01*
X173451617Y-96670352D02*
X173604120Y-96822855D01*
%TO.C,L1*%
X178484053Y-106603728D02*
X178853520Y-106234261D01*
X180053830Y-108173505D02*
X180423297Y-107804038D01*
%TO.C,D1*%
X202610001Y-101981750D02*
X199950001Y-101981750D01*
X202610001Y-101981750D02*
X202610001Y-103681750D01*
X202610001Y-103681750D02*
X199950001Y-103681750D01*
%TO.C,F4*%
X200477779Y-83165000D02*
X200152221Y-83165000D01*
X200477779Y-84185000D02*
X200152221Y-84185000D01*
%TO.C,R50*%
X186923390Y-112152470D02*
X186616108Y-112152470D01*
X186923390Y-112912470D02*
X186616108Y-112912470D01*
%TO.C,D9*%
X192805000Y-87460001D02*
X190145000Y-87460000D01*
X192805000Y-87460001D02*
X192805000Y-89160001D01*
X192805000Y-89160001D02*
X190145000Y-89160002D01*
%TO.C,R1*%
X199831891Y-103915000D02*
X199524609Y-103915000D01*
X199831891Y-104675000D02*
X199524609Y-104675000D01*
%TO.C,R54*%
X206055812Y-109485950D02*
X206055812Y-109178668D01*
X206815812Y-109485950D02*
X206815812Y-109178668D01*
%TO.C,R30*%
X165412748Y-102822659D02*
X165105466Y-102822659D01*
X165412748Y-103582659D02*
X165105466Y-103582659D01*
%TO.C,C25*%
X176143353Y-93688616D02*
X176295856Y-93841119D01*
X176652470Y-93179499D02*
X176804973Y-93332002D01*
%TO.C,F10*%
X196471128Y-114888690D02*
X196796688Y-114888690D01*
X196471128Y-115908690D02*
X196796688Y-115908690D01*
%TO.C,Q2*%
X166774203Y-95653026D02*
X166774203Y-95703026D01*
X166774203Y-96823026D02*
X166774203Y-97603026D01*
X166774203Y-98723026D02*
X166774203Y-98773026D01*
X166774203Y-98773026D02*
X168294203Y-98773026D01*
X168294203Y-95653026D02*
X166774203Y-95653026D01*
X168294203Y-96653026D02*
X168294203Y-95653026D01*
X168294203Y-98773026D02*
X168294203Y-97773026D01*
X166234203Y-97593026D02*
X165994203Y-97263026D01*
X166474203Y-97263026D01*
X166234203Y-97593026D01*
G36*
X166234203Y-97593026D02*
G01*
X165994203Y-97263026D01*
X166474203Y-97263026D01*
X166234203Y-97593026D01*
G37*
%TO.C,C22*%
X185194780Y-100902044D02*
X185042277Y-100749541D01*
X185703897Y-100392927D02*
X185551394Y-100240424D01*
%TO.C,C64*%
X178307893Y-114732176D02*
X178307893Y-114451016D01*
X179327893Y-114732176D02*
X179327893Y-114451016D01*
%TO.C,Q4*%
X195334999Y-91195000D02*
X193814999Y-91195000D01*
X193814999Y-91195000D02*
X193814999Y-91245000D01*
X195334999Y-92195000D02*
X195334999Y-91195000D01*
X193814999Y-92365000D02*
X193814999Y-93145000D01*
X193814999Y-94265000D02*
X193814999Y-94315000D01*
X195334999Y-94315000D02*
X195334999Y-93315000D01*
X193814999Y-94315000D02*
X195334999Y-94315000D01*
X193274999Y-93135000D02*
X193034999Y-92805000D01*
X193514999Y-92805000D01*
X193274999Y-93135000D01*
G36*
X193274999Y-93135000D02*
G01*
X193034999Y-92805000D01*
X193514999Y-92805000D01*
X193274999Y-93135000D01*
G37*
%TO.C,C72*%
X188862309Y-110725440D02*
X188862309Y-109302936D01*
X190682309Y-110725440D02*
X190682309Y-109302936D01*
%TO.C,C45*%
X182086089Y-103913333D02*
X182238592Y-104065836D01*
X182595206Y-103404216D02*
X182747709Y-103556719D01*
%TO.C,R19*%
X184443199Y-89631740D02*
X184225918Y-89849021D01*
X184980600Y-90169141D02*
X184763319Y-90386422D01*
%TO.C,C23*%
X185271529Y-96733498D02*
X185119026Y-96886001D01*
X185780646Y-97242615D02*
X185628143Y-97395118D01*
%TO.C,R36*%
X170853309Y-92849879D02*
X171070590Y-92632598D01*
X171390710Y-93387280D02*
X171607991Y-93169999D01*
%TO.C,C21*%
X177090955Y-104487780D02*
X177243458Y-104335277D01*
X177600072Y-104996897D02*
X177752575Y-104844394D01*
%TO.C,R40*%
X194405000Y-99542064D02*
X194405000Y-98087936D01*
X196225000Y-99542064D02*
X196225000Y-98087936D01*
%TO.C,F9*%
X196471129Y-116408690D02*
X196796689Y-116408690D01*
X196471129Y-117428690D02*
X196796689Y-117428690D01*
%TO.C,C20*%
X176410103Y-103796460D02*
X176562606Y-103643957D01*
X176919220Y-104305577D02*
X177071723Y-104153074D01*
%TO.C,D25*%
X202165000Y-84495001D02*
X202165000Y-86315001D01*
X202165000Y-86315001D02*
X202215000Y-86315001D01*
X203165000Y-84495001D02*
X202165000Y-84495001D01*
X203335000Y-86315001D02*
X204115000Y-86315001D01*
X205235000Y-86315001D02*
X205285000Y-86315001D01*
X205285000Y-84495001D02*
X204285000Y-84495001D01*
X205285000Y-86315001D02*
X205285000Y-84495001D01*
X204105000Y-86855001D02*
X203775000Y-87095001D01*
X203775000Y-86615001D01*
X204105000Y-86855001D01*
G36*
X204105000Y-86855001D02*
G01*
X203775000Y-87095001D01*
X203775000Y-86615001D01*
X204105000Y-86855001D01*
G37*
%TO.C,C70*%
X201645001Y-111447164D02*
X201645001Y-111662836D01*
X202365001Y-111447164D02*
X202365001Y-111662836D01*
%TO.C,F3*%
X200487779Y-84655000D02*
X200162221Y-84655000D01*
X200487779Y-85675000D02*
X200162221Y-85675000D01*
%TO.C,R3*%
X201755392Y-103905000D02*
X201448110Y-103905000D01*
X201755392Y-104665000D02*
X201448110Y-104665000D01*
%TO.C,C67*%
X203985580Y-106865000D02*
X203704420Y-106865000D01*
X203985580Y-107885000D02*
X203704420Y-107885000D01*
%TO.C,C73*%
X191217692Y-110707063D02*
X191217692Y-109284559D01*
X193037692Y-110707063D02*
X193037692Y-109284559D01*
%TO.C,C5*%
X177139520Y-109098728D02*
X177292023Y-108946225D01*
X177648637Y-109607845D02*
X177801140Y-109455342D01*
%TD*%
M02*
