M48
; DRILL file KiCad 10.0.1-1-gbb48a3fe96 date 2026-08-02T19:48:27
; FORMAT={-:-/ absolute / metric / decimal}
; #@! TF.CreationDate,2026-08-02T19:48:27+08:00
; #@! TF.GenerationSoftware,Kicad,Pcbnew,10.0.1-1-gbb48a3fe96
; #@! TF.FileFunction,Plated,1,4,PTH
FMAT,2
METRIC
; #@! TA.AperFunction,Plated,PTH,ViaDrill
T1C0.300
; #@! TA.AperFunction,Plated,PTH,ComponentDrill
T2C0.600
; #@! TA.AperFunction,Plated,PTH,ViaDrill
T3C0.700
; #@! TA.AperFunction,Plated,PTH,ComponentDrill
T4C0.700
; #@! TA.AperFunction,Plated,PTH,ComponentDrill
T5C1.000
; #@! TA.AperFunction,Plated,PTH,ComponentDrill
T6C2.700
%
G90
G05
T1
X157.39Y-111.972
X157.39Y-113.806
X157.39Y-115.64
X157.45Y-100.942
X157.45Y-102.776
X157.45Y-104.61
X157.78Y-90.47
X157.82Y-83.01
X158.18Y-113.05
X158.19Y-113.89
X158.43Y-90.47
X158.47Y-83.01
X158.83Y-113.05
X158.84Y-113.89
X159.1Y-90.47
X159.14Y-83.01
X159.5Y-113.05
X159.51Y-113.89
X159.7Y-79.34
X159.83Y-90.47
X159.87Y-83.01
X160.23Y-113.05
X160.24Y-113.89
X160.312Y-117.99
X160.81Y-114.88
X160.81Y-115.53
X160.81Y-116.2
X160.81Y-116.93
X161.04Y-113.03
X161.23Y-113.93
X161.52Y-86.24
X161.534Y-79.34
X161.65Y-114.87
X161.65Y-115.52
X161.65Y-116.19
X161.65Y-116.92
X161.69Y-113.03
X161.853Y-117.99
X161.88Y-113.93
X162.36Y-113.03
X162.47Y-114.87
X162.47Y-115.52
X162.47Y-116.19
X162.47Y-116.92
X162.55Y-113.93
X162.91Y-86.23
X163.28Y-113.93
X163.33Y-114.87
X163.33Y-115.52
X163.33Y-116.19
X163.33Y-116.92
X163.368Y-79.34
X163.394Y-117.99
X163.84Y-107.5
X164.59Y-88.39
X164.6Y-87.49
X164.78Y-103.91
X164.935Y-117.99
X165.06Y-109.07
X165.07Y-109.98
X165.15Y-80.29
X165.15Y-80.96
X165.15Y-81.61
X165.15Y-115.94
X165.15Y-116.59
X165.15Y-117.26
X165.203Y-79.34
X165.26Y-87.48
X165.26Y-88.39
X165.43Y-109.56
X165.44Y-110.57
X165.46Y-97.12
X165.6Y-113.8
X165.66Y-94.07
X165.7Y-109.03
X165.79Y-109.99
X166.07Y-110.58
X166.255Y-109.605
X166.26Y-109.05
X166.476Y-117.99
X167.02Y-83.34
X167.037Y-79.34
X167.04Y-84.57
X167.237Y-89.752
X168.017Y-117.99
X168.06Y-112.18
X168.12Y-101.7
X168.38Y-89.17
X168.6Y-88.146
X168.7Y-102.29
X168.871Y-79.34
X168.9Y-111.58
X168.9Y-112.2
X169.3Y-106.75
X169.38Y-95.18
X169.5Y-111.01
X169.5Y-113.58
X169.5Y-114.31
X169.54Y-102.66
X169.558Y-117.99
X169.56Y-110.46
X169.67Y-95.86
X169.67Y-104.01
X169.85Y-111.58
X169.86Y-112.19
X170.21Y-111.01
X170.23Y-110.44
X170.28Y-89.66
X170.29Y-88.76
X170.554Y-108.989
X170.58Y-111.53
X170.59Y-112.2
X170.705Y-79.34
X170.91Y-110.46
X170.92Y-111.04
X170.95Y-88.75
X170.95Y-89.66
X171.09Y-114.05
X171.099Y-117.99
X171.12Y-113.53
X171.225Y-109.626
X171.27Y-111.58
X171.479Y-91.644
X171.58Y-88.75
X171.6Y-89.66
X171.81Y-96.94
X171.811Y-103.618
X171.952Y-92.878
X172.018Y-110.415
X172.21Y-88.75
X172.23Y-89.67
X172.54Y-79.34
X172.6Y-101.27
X172.63Y-80.23
X172.63Y-80.9
X172.63Y-81.63
X172.64Y-117.38
X172.64Y-117.99
X172.91Y-111.32
X173.16Y-98.26
X173.3Y-96.46
X173.742Y-105.832
X173.92Y-97.55
X173.92Y-99.92
X174.374Y-79.34
X174.51Y-87.37
X175.11Y-114.0
X175.42Y-93.66
X176.051Y-93.623
X176.074Y-107.749
X176.09Y-104.83
X176.19Y-83.75
X176.19Y-84.41
X176.208Y-79.34
X176.31Y-95.06
X176.434Y-85.016
X176.627Y-85.98
X176.635Y-83.245
X176.8Y-113.72
X176.9Y-92.21
X176.945Y-86.675
X177.08Y-115.72
X177.095Y-82.785
X177.137Y-88.839
X177.16Y-105.73
X177.28Y-94.14
X177.3Y-103.47
X177.505Y-91.343
X177.56Y-113.3
X177.575Y-82.305
X177.62Y-86.86
X177.731Y-92.006
X177.79Y-106.7
X177.97Y-104.09
X178.05Y-79.34
X178.06Y-115.71
X178.065Y-81.815
X178.093Y-91.226
X178.387Y-90.58
X178.39Y-86.86
X178.56Y-81.38
X178.941Y-89.719
X179.2Y-113.42
X179.31Y-86.85
X179.39Y-81.38
X179.559Y-91.969
X179.877Y-79.34
X179.98Y-113.4
X180.125Y-86.915
X180.19Y-81.38
X180.2Y-92.63
X180.21Y-117.82
X180.23Y-93.64
X180.34Y-88.23
X180.54Y-87.52
X180.715Y-83.44
X180.715Y-84.12
X180.745Y-81.735
X180.81Y-106.73
X180.84Y-113.4
X180.87Y-114.92
X180.89Y-84.62
X180.934Y-82.26
X181.01Y-91.55
X181.18Y-103.56
X181.21Y-115.69
X181.27Y-85.0
X181.35Y-93.8
X181.39Y-114.91
X181.55Y-85.59
X181.56Y-114.32
X181.71Y-109.7
X181.711Y-79.34
X181.77Y-103.13
X181.835Y-86.145
X181.95Y-94.44
X182.18Y-87.63
X182.19Y-105.09
X182.22Y-86.82
X182.41Y-92.9
X182.42Y-95.08
X182.659Y-88.429
X182.67Y-118.01
X182.75Y-110.41
X183.1Y-95.68
X183.31Y-89.73
X183.32Y-109.75
X183.384Y-93.601
X183.42Y-87.99
X183.545Y-79.34
X183.73Y-117.21
X183.775Y-85.56
X183.835Y-117.89
X184.033Y-106.391
X184.04Y-90.61
X184.09Y-109.05
X184.11Y-83.75
X184.46Y-117.89
X184.596Y-106.843
X184.73Y-108.37
X184.75Y-97.53
X184.82Y-99.9
X185.164Y-117.89
X185.379Y-79.34
X185.41Y-117.225
X185.62Y-83.58
X185.88Y-107.43
X185.91Y-101.19
X185.96Y-109.9
X185.97Y-109.04
X186.11Y-96.33
X186.35Y-87.82
X186.38Y-83.57
X186.43Y-118.01
X186.71Y-109.04
X186.71Y-109.92
X187.038Y-85.353
X187.213Y-79.34
X187.445Y-86.91
X187.49Y-109.04
X187.5Y-109.92
X187.564Y-111.66
X187.771Y-107.399
X187.89Y-103.62
X188.27Y-104.79
X188.37Y-94.35
X188.37Y-118.01
X188.54Y-102.166
X188.61Y-103.65
X188.69Y-85.22
X188.81Y-104.21
X188.97Y-83.54
X189.0Y-104.8
X189.048Y-79.34
X189.16Y-94.43
X189.16Y-108.09
X189.16Y-108.81
X189.16Y-109.68
X189.17Y-107.13
X189.266Y-95.526
X189.3Y-103.66
X189.405Y-117.215
X189.46Y-104.23
X189.475Y-87.665
X189.652Y-117.89
X189.88Y-108.09
X189.88Y-108.81
X189.88Y-109.68
X190.11Y-103.69
X190.21Y-117.89
X190.41Y-111.26
X190.55Y-111.94
X190.56Y-86.85
X190.73Y-108.09
X190.73Y-108.81
X190.73Y-109.68
X190.865Y-117.89
X190.882Y-79.34
X191.035Y-117.195
X191.07Y-111.26
X191.14Y-111.92
X191.7Y-108.09
X191.7Y-108.81
X191.7Y-109.68
X191.72Y-111.26
X191.82Y-111.92
X192.02Y-118.01
X192.16Y-91.08
X192.43Y-107.26
X192.58Y-108.09
X192.58Y-108.82
X192.58Y-109.69
X192.63Y-88.43
X192.716Y-79.34
X192.76Y-106.75
X193.112Y-106.264
X193.38Y-110.95
X193.48Y-86.69
X193.66Y-89.92
X193.84Y-99.332
X193.86Y-89.29
X193.94Y-92.44
X194.03Y-110.95
X194.13Y-86.69
X194.14Y-80.4
X194.14Y-81.07
X194.14Y-81.8
X194.55Y-79.34
X194.7Y-110.95
X194.78Y-91.61
X194.8Y-86.69
X195.16Y-79.54
X195.16Y-80.19
X195.16Y-80.86
X195.16Y-81.59
X195.28Y-112.87
X195.28Y-113.59
X195.28Y-114.23
X195.43Y-110.95
X195.45Y-82.91
X195.53Y-86.69
X195.84Y-82.27
X195.982Y-113.467
X195.99Y-98.65
X196.0Y-79.54
X196.0Y-80.19
X196.0Y-80.86
X196.0Y-81.59
X196.17Y-82.84
X196.68Y-93.16
X196.77Y-97.15
X196.89Y-99.59
X196.9Y-79.55
X196.9Y-80.2
X196.9Y-80.87
X196.9Y-81.6
X196.94Y-100.51
X197.089Y-98.075
X197.235Y-113.58
X197.27Y-82.87
X197.5Y-94.64
X197.74Y-79.55
X197.74Y-80.2
X197.74Y-80.87
X197.74Y-81.6
X198.03Y-113.52
X198.03Y-114.18
X198.219Y-79.34
X199.09Y-80.4
X199.09Y-81.07
X199.09Y-81.8
X199.53Y-116.11
X199.53Y-116.76
X199.53Y-117.43
X199.53Y-118.16
X199.54Y-90.975
X199.825Y-91.942
X200.053Y-79.34
X200.35Y-86.44
X200.37Y-88.95
X200.37Y-89.82
X200.4Y-98.55
X200.41Y-97.54
X200.42Y-96.3
X200.43Y-95.19
X200.523Y-105.196
X200.73Y-116.11
X200.73Y-116.76
X200.73Y-117.43
X200.73Y-118.16
X200.76Y-113.63
X200.77Y-114.43
X201.06Y-88.95
X201.07Y-89.82
X201.19Y-112.33
X201.23Y-80.41
X201.23Y-81.08
X201.23Y-81.81
X201.62Y-116.11
X201.62Y-116.76
X201.62Y-117.43
X201.62Y-118.16
X201.733Y-98.55
X201.743Y-97.54
X201.75Y-88.95
X201.753Y-96.3
X201.76Y-89.83
X201.763Y-95.19
X201.887Y-79.34
X202.42Y-116.11
X202.42Y-116.76
X202.42Y-117.43
X202.42Y-118.16
X202.52Y-80.18
X202.52Y-80.83
X202.52Y-81.5
X202.52Y-82.23
X202.88Y-91.595
X203.067Y-98.55
X203.077Y-97.54
X203.087Y-96.3
X203.097Y-95.19
X203.213Y-87.657
X203.31Y-116.11
X203.31Y-116.76
X203.31Y-117.43
X203.31Y-118.16
X203.36Y-80.18
X203.36Y-80.83
X203.36Y-81.5
X203.36Y-82.23
X203.36Y-110.725
X203.722Y-79.34
X204.15Y-116.11
X204.15Y-116.76
X204.15Y-117.43
X204.15Y-118.16
X204.2Y-80.17
X204.2Y-80.82
X204.2Y-81.49
X204.2Y-82.22
X204.335Y-110.725
X204.4Y-98.55
X204.41Y-97.54
X204.42Y-96.3
X204.429Y-109.949
X204.43Y-95.19
X204.855Y-87.5
X205.01Y-92.63
X205.01Y-113.56
X205.04Y-80.17
X205.04Y-80.82
X205.04Y-81.49
X205.04Y-82.22
X205.04Y-116.11
X205.04Y-116.76
X205.04Y-117.43
X205.04Y-118.16
X205.05Y-109.855
X205.08Y-110.725
X205.556Y-79.34
X205.77Y-116.11
X205.77Y-116.76
X205.77Y-117.43
X205.77Y-118.16
X206.17Y-80.4
X206.17Y-81.07
X206.17Y-81.8
X206.43Y-90.51
X206.56Y-116.11
X206.56Y-116.76
X206.56Y-117.43
X206.56Y-118.16
X207.39Y-79.34
X207.49Y-106.105
X207.505Y-107.25
X208.085Y-88.62
X208.98Y-104.8
X209.88Y-88.49
T3
X172.119Y-106.749
X173.332Y-107.817
T4
X159.072Y-105.058
X159.072Y-106.328
X159.072Y-107.598
X159.072Y-108.868
X159.072Y-110.138
X160.342Y-105.058
X160.342Y-106.328
X160.342Y-107.598
X160.342Y-108.868
X160.342Y-110.138
T5
X158.535Y-99.435
X158.545Y-94.135
X158.545Y-96.675
X161.075Y-99.435
X161.115Y-94.135
X161.115Y-96.675
X163.615Y-94.135
X163.615Y-96.675
X163.615Y-99.435
T6
X207.945Y-96.315
X207.945Y-101.315
T2
G00X182.875Y-81.84
M15
G01X182.875Y-81.04
M16
G05
G00X182.875Y-86.17
M15
G01X182.875Y-85.07
M16
G05
G00X191.515Y-81.84
M15
G01X191.515Y-81.04
M16
G05
G00X191.515Y-86.17
M15
G01X191.515Y-85.07
M16
G05
M30
