%TF.GenerationSoftware,KiCad,Pcbnew,10.0.1-1-gbb48a3fe96*%
%TF.CreationDate,2026-08-02T19:48:24+08:00*%
%TF.ProjectId,HPM5361___,48504d35-3336-4313-9ba7-7f2e6b696361,rev?*%
%TF.SameCoordinates,Original*%
%TF.FileFunction,Soldermask,Top*%
%TF.FilePolarity,Negative*%
%FSLAX46Y46*%
G04 Gerber Fmt 4.6, Leading zero omitted, Abs format (unit mm)*
G04 Created by KiCad (PCBNEW 10.0.1-1-gbb48a3fe96) date 2026-08-02 19:48:24*
%MOMM*%
%LPD*%
G01*
G04 APERTURE LIST*
G04 Aperture macros list*
%AMRoundRect*
0 Rectangle with rounded corners*
0 $1 Rounding radius*
0 $2 $3 $4 $5 $6 $7 $8 $9 X,Y pos of 4 corners*
0 Add a 4 corners polygon primitive as box body*
4,1,4,$2,$3,$4,$5,$6,$7,$8,$9,$2,$3,0*
0 Add four circle primitives for the rounded corners*
1,1,$1+$1,$2,$3*
1,1,$1+$1,$4,$5*
1,1,$1+$1,$6,$7*
1,1,$1+$1,$8,$9*
0 Add four rect primitives between the rounded corners*
20,1,$1+$1,$2,$3,$4,$5,0*
20,1,$1+$1,$4,$5,$6,$7,0*
20,1,$1+$1,$6,$7,$8,$9,0*
20,1,$1+$1,$8,$9,$2,$3,0*%
%AMRotRect*
0 Rectangle, with rotation*
0 The origin of the aperture is its center*
0 $1 length*
0 $2 width*
0 $3 Rotation angle, in degrees counterclockwise*
0 Add horizontal line*
21,1,$1,$2,0,0,$3*%
G04 Aperture macros list end*
%ADD10RoundRect,0.212500X0.262500X-0.212500X0.262500X0.212500X-0.262500X0.212500X-0.262500X-0.212500X0*%
%ADD11RoundRect,0.218750X0.256250X-0.218750X0.256250X0.218750X-0.256250X0.218750X-0.256250X-0.218750X0*%
%ADD12RoundRect,0.135000X-0.035355X0.226274X-0.226274X0.035355X0.035355X-0.226274X0.226274X-0.035355X0*%
%ADD13RoundRect,0.135000X0.035355X-0.226274X0.226274X-0.035355X-0.035355X0.226274X-0.226274X0.035355X0*%
%ADD14RoundRect,0.140000X-0.219203X-0.021213X-0.021213X-0.219203X0.219203X0.021213X0.021213X0.219203X0*%
%ADD15RoundRect,0.200000X-0.550000X-0.200000X0.550000X-0.200000X0.550000X0.200000X-0.550000X0.200000X0*%
%ADD16RoundRect,0.140000X0.021213X-0.219203X0.219203X-0.021213X-0.021213X0.219203X-0.219203X0.021213X0*%
%ADD17RoundRect,0.062500X0.038891X0.127279X-0.127279X-0.038891X-0.038891X-0.127279X0.127279X0.038891X0*%
%ADD18RoundRect,0.147500X-0.017678X0.226274X-0.226274X0.017678X0.017678X-0.226274X0.226274X-0.017678X0*%
%ADD19RoundRect,0.075000X0.459619X-0.565685X0.565685X-0.459619X-0.459619X0.565685X-0.565685X0.459619X0*%
%ADD20RoundRect,0.075000X-0.459619X-0.565685X0.565685X0.459619X0.459619X0.565685X-0.565685X-0.459619X0*%
%ADD21RoundRect,0.135000X0.135000X0.185000X-0.135000X0.185000X-0.135000X-0.185000X0.135000X-0.185000X0*%
%ADD22RoundRect,0.075000X0.075000X-0.362500X0.075000X0.362500X-0.075000X0.362500X-0.075000X-0.362500X0*%
%ADD23R,2.400000X1.600000*%
%ADD24RoundRect,0.140000X-0.021213X0.219203X-0.219203X0.021213X0.021213X-0.219203X0.219203X-0.021213X0*%
%ADD25RoundRect,0.140000X0.219203X0.021213X0.021213X0.219203X-0.219203X-0.021213X-0.021213X-0.219203X0*%
%ADD26RoundRect,0.140000X0.170000X-0.140000X0.170000X0.140000X-0.170000X0.140000X-0.170000X-0.140000X0*%
%ADD27RotRect,1.700000X0.700000X45.000000*%
%ADD28RoundRect,0.075000X-0.075000X0.350000X-0.075000X-0.350000X0.075000X-0.350000X0.075000X0.350000X0*%
%ADD29RoundRect,0.087500X0.225000X-0.087500X0.225000X0.087500X-0.225000X0.087500X-0.225000X-0.087500X0*%
%ADD30RoundRect,0.087500X0.087500X-0.225000X0.087500X0.225000X-0.087500X0.225000X-0.087500X-0.225000X0*%
%ADD31RoundRect,0.140000X-0.140000X-0.170000X0.140000X-0.170000X0.140000X0.170000X-0.140000X0.170000X0*%
%ADD32RoundRect,0.135000X-0.135000X-0.185000X0.135000X-0.185000X0.135000X0.185000X-0.135000X0.185000X0*%
%ADD33RoundRect,0.135000X0.185000X-0.135000X0.185000X0.135000X-0.185000X0.135000X-0.185000X-0.135000X0*%
%ADD34C,1.050000*%
%ADD35R,1.050000X1.050000*%
%ADD36RoundRect,0.225000X-0.425000X-0.225000X0.425000X-0.225000X0.425000X0.225000X-0.425000X0.225000X0*%
%ADD37RoundRect,0.150000X-0.150000X-0.750000X0.150000X-0.750000X0.150000X0.750000X-0.150000X0.750000X0*%
%ADD38RoundRect,0.187500X-0.187500X-0.712500X0.187500X-0.712500X0.187500X0.712500X-0.187500X0.712500X0*%
%ADD39C,0.900000*%
%ADD40C,1.700000*%
%ADD41R,1.700000X1.700000*%
%ADD42O,1.000000X1.800000*%
%ADD43O,1.000000X2.100000*%
%ADD44RoundRect,0.150000X0.150000X0.425000X-0.150000X0.425000X-0.150000X-0.425000X0.150000X-0.425000X0*%
%ADD45RoundRect,0.075000X0.075000X0.500000X-0.075000X0.500000X-0.075000X-0.500000X0.075000X-0.500000X0*%
%ADD46C,0.650000*%
%ADD47RoundRect,0.150000X-0.150000X-0.700000X0.150000X-0.700000X0.150000X0.700000X-0.150000X0.700000X0*%
%ADD48RoundRect,0.250000X-0.250000X-1.150000X0.250000X-1.150000X0.250000X1.150000X-0.250000X1.150000X0*%
%ADD49RoundRect,0.760000X1.140000X-1.140000X1.140000X1.140000X-1.140000X1.140000X-1.140000X-1.140000X0*%
%ADD50C,3.800000*%
%ADD51RoundRect,0.218750X-0.256250X0.218750X-0.256250X-0.218750X0.256250X-0.218750X0.256250X0.218750X0*%
%ADD52RoundRect,0.150000X0.512500X0.150000X-0.512500X0.150000X-0.512500X-0.150000X0.512500X-0.150000X0*%
%ADD53RoundRect,0.147500X0.172500X-0.147500X0.172500X0.147500X-0.172500X0.147500X-0.172500X-0.147500X0*%
%ADD54RoundRect,0.150000X0.700000X-0.150000X0.700000X0.150000X-0.700000X0.150000X-0.700000X-0.150000X0*%
%ADD55RoundRect,0.250000X1.150000X-0.250000X1.150000X0.250000X-1.150000X0.250000X-1.150000X-0.250000X0*%
%ADD56RoundRect,0.062500X-0.117500X-0.062500X0.117500X-0.062500X0.117500X0.062500X-0.117500X0.062500X0*%
%ADD57RoundRect,0.062500X0.062500X-0.117500X0.062500X0.117500X-0.062500X0.117500X-0.062500X-0.117500X0*%
%ADD58RoundRect,0.150000X-0.150000X0.512500X-0.150000X-0.512500X0.150000X-0.512500X0.150000X0.512500X0*%
%ADD59RoundRect,0.147500X-0.147500X-0.172500X0.147500X-0.172500X0.147500X0.172500X-0.147500X0.172500X0*%
%ADD60RoundRect,0.147500X0.147500X0.172500X-0.147500X0.172500X-0.147500X-0.172500X0.147500X-0.172500X0*%
%ADD61RoundRect,0.135000X-0.185000X0.135000X-0.185000X-0.135000X0.185000X-0.135000X0.185000X0.135000X0*%
%ADD62RoundRect,0.062500X0.117500X0.062500X-0.117500X0.062500X-0.117500X-0.062500X0.117500X-0.062500X0*%
%ADD63RoundRect,0.250000X-0.900000X1.000000X-0.900000X-1.000000X0.900000X-1.000000X0.900000X1.000000X0*%
%ADD64RoundRect,0.218750X0.218750X0.256250X-0.218750X0.256250X-0.218750X-0.256250X0.218750X-0.256250X0*%
%ADD65RoundRect,0.140000X0.140000X0.170000X-0.140000X0.170000X-0.140000X-0.170000X0.140000X-0.170000X0*%
%ADD66RoundRect,0.250000X-0.053033X-0.406586X0.406586X0.053033X0.053033X0.406586X-0.406586X-0.053033X0*%
%ADD67RoundRect,0.150000X0.150000X0.700000X-0.150000X0.700000X-0.150000X-0.700000X0.150000X-0.700000X0*%
%ADD68RoundRect,0.250000X0.250000X1.150000X-0.250000X1.150000X-0.250000X-1.150000X0.250000X-1.150000X0*%
%ADD69RoundRect,0.250000X0.650000X-0.325000X0.650000X0.325000X-0.650000X0.325000X-0.650000X-0.325000X0*%
%ADD70RoundRect,0.200000X-0.275000X0.200000X-0.275000X-0.200000X0.275000X-0.200000X0.275000X0.200000X0*%
G04 APERTURE END LIST*
D10*
%TO.C,L7*%
X203580000Y-90825000D03*
X205130000Y-90825000D03*
X205130000Y-87975000D03*
X203580000Y-87975000D03*
%TD*%
D11*
%TO.C,D2*%
X209995000Y-109767500D03*
X209995000Y-108192500D03*
%TD*%
D10*
%TO.C,L5*%
X203540963Y-108919150D03*
X205090963Y-108919150D03*
X205090963Y-106069150D03*
X203540963Y-106069150D03*
%TD*%
D12*
%TO.C,R21*%
X172203371Y-110095025D03*
X172924619Y-109373777D03*
%TD*%
D13*
%TO.C,R27*%
X172220943Y-108674954D03*
X171499695Y-109396202D03*
%TD*%
D14*
%TO.C,C48*%
X170019290Y-103447415D03*
X170698112Y-104126237D03*
%TD*%
D15*
%TO.C,D13*%
X179437746Y-115811127D03*
X179437746Y-117591127D03*
X176157746Y-117591127D03*
X176157746Y-115811127D03*
%TD*%
D16*
%TO.C,C44*%
X175724228Y-108907452D03*
X175045406Y-109586274D03*
%TD*%
%TO.C,C46*%
X176410122Y-109593345D03*
X175731300Y-110272167D03*
%TD*%
D17*
%TO.C,D18*%
X174908993Y-110992390D03*
X174315023Y-111586360D03*
%TD*%
D18*
%TO.C,F12*%
X175492358Y-113110176D03*
X176178252Y-112424282D03*
%TD*%
%TO.C,F11*%
X174792320Y-112410140D03*
X175478214Y-111724246D03*
%TD*%
D17*
%TO.C,D20*%
X176940464Y-113003859D03*
X176346494Y-113597829D03*
%TD*%
D12*
%TO.C,R23*%
X173638294Y-110070736D03*
X172917046Y-110791984D03*
%TD*%
%TO.C,R25*%
X171492268Y-107985274D03*
X170771020Y-108706522D03*
%TD*%
D19*
%TO.C,U3*%
X169670214Y-97635596D03*
X170023767Y-97282043D03*
X170377321Y-96928489D03*
X170730874Y-96574936D03*
X171084427Y-96221383D03*
X171437981Y-95867829D03*
X171791534Y-95514276D03*
X172145088Y-95160722D03*
X172498641Y-94807169D03*
X172852194Y-94453616D03*
X173205748Y-94100062D03*
X173559301Y-93746509D03*
X173912854Y-93392955D03*
X174266408Y-93039402D03*
X174619961Y-92685849D03*
X174973515Y-92332295D03*
X175327068Y-91978742D03*
X175680621Y-91625189D03*
X176034175Y-91271635D03*
X176387728Y-90918082D03*
X176741282Y-90564528D03*
X177094835Y-90210975D03*
X177448388Y-89857422D03*
X177801942Y-89503868D03*
X178155495Y-89150315D03*
D20*
X180524303Y-89150315D03*
X180877856Y-89503868D03*
X181231410Y-89857422D03*
X181584963Y-90210975D03*
X181938516Y-90564528D03*
X182292070Y-90918082D03*
X182645623Y-91271635D03*
X182999177Y-91625189D03*
X183352730Y-91978742D03*
X183706283Y-92332295D03*
X184059837Y-92685849D03*
X184413390Y-93039402D03*
X184766944Y-93392955D03*
X185120497Y-93746509D03*
X185474050Y-94100062D03*
X185827604Y-94453616D03*
X186181157Y-94807169D03*
X186534710Y-95160722D03*
X186888264Y-95514276D03*
X187241817Y-95867829D03*
X187595371Y-96221383D03*
X187948924Y-96574936D03*
X188302477Y-96928489D03*
X188656031Y-97282043D03*
X189009584Y-97635596D03*
D19*
X189009584Y-100004404D03*
X188656031Y-100357957D03*
X188302477Y-100711511D03*
X187948924Y-101065064D03*
X187595371Y-101418617D03*
X187241817Y-101772171D03*
X186888264Y-102125724D03*
X186534710Y-102479278D03*
X186181157Y-102832831D03*
X185827604Y-103186384D03*
X185474050Y-103539938D03*
X185120497Y-103893491D03*
X184766944Y-104247045D03*
X184413390Y-104600598D03*
X184059837Y-104954151D03*
X183706283Y-105307705D03*
X183352730Y-105661258D03*
X182999177Y-106014811D03*
X182645623Y-106368365D03*
X182292070Y-106721918D03*
X181938516Y-107075472D03*
X181584963Y-107429025D03*
X181231410Y-107782578D03*
X180877856Y-108136132D03*
X180524303Y-108489685D03*
D20*
X178155495Y-108489685D03*
X177801942Y-108136132D03*
X177448388Y-107782578D03*
X177094835Y-107429025D03*
X176741282Y-107075472D03*
X176387728Y-106721918D03*
X176034175Y-106368365D03*
X175680621Y-106014811D03*
X175327068Y-105661258D03*
X174973515Y-105307705D03*
X174619961Y-104954151D03*
X174266408Y-104600598D03*
X173912854Y-104247045D03*
X173559301Y-103893491D03*
X173205748Y-103539938D03*
X172852194Y-103186384D03*
X172498641Y-102832831D03*
X172145088Y-102479278D03*
X171791534Y-102125724D03*
X171437981Y-101772171D03*
X171084427Y-101418617D03*
X170730874Y-101065064D03*
X170377321Y-100711511D03*
X170023767Y-100357957D03*
X169670214Y-100004404D03*
%TD*%
D21*
%TO.C,R34*%
X189115001Y-113005000D03*
X190134999Y-113005000D03*
%TD*%
D22*
%TO.C,U7*%
X170196325Y-90607744D03*
X170846325Y-90607744D03*
X171496325Y-90607744D03*
X172146325Y-90607744D03*
X172146325Y-87732744D03*
X171496325Y-87732744D03*
X170846325Y-87732744D03*
X170196325Y-87732744D03*
D23*
X171171325Y-89170244D03*
%TD*%
D24*
%TO.C,C40*%
X188418163Y-94783639D03*
X189096985Y-94104817D03*
%TD*%
D25*
%TO.C,C7*%
X183186031Y-108026361D03*
X183864853Y-108705183D03*
%TD*%
%TO.C,C9*%
X183878995Y-107347538D03*
X184557817Y-108026360D03*
%TD*%
D26*
%TO.C,C53*%
X168925000Y-87845000D03*
X168925000Y-88805000D03*
%TD*%
D16*
%TO.C,C49*%
X175294411Y-87175589D03*
X174615589Y-87854411D03*
%TD*%
D27*
%TO.C,MLT-1*%
X164418879Y-106644303D03*
X170146443Y-105866485D03*
X166893752Y-109119176D03*
%TD*%
D28*
%TO.C,U10*%
X202036619Y-106060833D03*
X201386619Y-106060833D03*
X200736619Y-106060833D03*
X200086619Y-106060833D03*
X200086619Y-108960833D03*
X200736619Y-108960833D03*
X201386619Y-108960833D03*
X202036619Y-108960833D03*
D23*
X201061619Y-107510833D03*
%TD*%
D29*
%TO.C,U8*%
X194577500Y-99324999D03*
X194577500Y-98825000D03*
X194577500Y-98325001D03*
D30*
X194740000Y-97662499D03*
X195240000Y-97662500D03*
X195740000Y-97662500D03*
X196240000Y-97662499D03*
D29*
X196402500Y-98325001D03*
X196402500Y-98825000D03*
X196402500Y-99324999D03*
D30*
X196240000Y-99987501D03*
X195740000Y-99987500D03*
X195240000Y-99987500D03*
X194740000Y-99987501D03*
%TD*%
D31*
%TO.C,C58*%
X187351483Y-112033616D03*
X186391483Y-112033616D03*
%TD*%
D32*
%TO.C,R22*%
X185609141Y-112989143D03*
X184589143Y-112989143D03*
%TD*%
D25*
%TO.C,C39*%
X187500086Y-103665858D03*
X188178908Y-104344680D03*
%TD*%
D14*
%TO.C,C41*%
X182507660Y-110049827D03*
X181828838Y-109371005D03*
%TD*%
D33*
%TO.C,R35*%
X168915000Y-89715001D03*
X168915000Y-90734999D03*
%TD*%
D28*
%TO.C,U12*%
X202040000Y-88000001D03*
X201390000Y-88000001D03*
X200740000Y-88000001D03*
X200090000Y-88000001D03*
X200090000Y-90900001D03*
X200740000Y-90900001D03*
X201390000Y-90900001D03*
X202040000Y-90900001D03*
D23*
X201065000Y-89450001D03*
%TD*%
D34*
%TO.C,J2*%
X159072000Y-110138001D03*
X159072000Y-108868001D03*
X159072000Y-107598001D03*
X159072000Y-106328001D03*
X159072000Y-105058001D03*
X160342000Y-105058001D03*
X160342000Y-106328001D03*
X160342000Y-107598001D03*
X160342000Y-108868001D03*
D35*
X160342000Y-110138001D03*
%TD*%
D14*
%TO.C,C33*%
X183186482Y-109371005D03*
X182507660Y-108692183D03*
%TD*%
D26*
%TO.C,C59*%
X200155000Y-92065000D03*
X200155000Y-93025000D03*
%TD*%
D31*
%TO.C,C57*%
X200055000Y-110365000D03*
X199095000Y-110365000D03*
%TD*%
D36*
%TO.C,KEY2*%
X192080000Y-118170000D03*
X188380000Y-118170000D03*
D37*
X190230000Y-116220000D03*
D38*
X191455000Y-116220000D03*
X189005000Y-116220000D03*
D39*
X192355000Y-117120000D03*
X188105000Y-117120000D03*
%TD*%
D36*
%TO.C,KEY1*%
X186415000Y-118165000D03*
X182715000Y-118165000D03*
D37*
X184565000Y-116215000D03*
D38*
X185790000Y-116215000D03*
X183340000Y-116215000D03*
D39*
X186690000Y-117115000D03*
X182440000Y-117115000D03*
%TD*%
D40*
%TO.C,J3*%
X158535001Y-99435000D03*
X161075000Y-99435000D03*
D41*
X163615000Y-99435000D03*
%TD*%
D42*
%TO.C,J1*%
X182875000Y-81440000D03*
D43*
X182875000Y-85620000D03*
D42*
X191515000Y-81440000D03*
D43*
X191515000Y-85620000D03*
D44*
X190395000Y-86195000D03*
X189595000Y-86195000D03*
D45*
X188945000Y-86195000D03*
X187945000Y-86195000D03*
X186445000Y-86195000D03*
X185445000Y-86195000D03*
D44*
X184795000Y-86195000D03*
X183995000Y-86195000D03*
X183995000Y-86195000D03*
X184795000Y-86195000D03*
D45*
X185945000Y-86194999D03*
X186945000Y-86195000D03*
X187445000Y-86195000D03*
X188445000Y-86194999D03*
D44*
X189595000Y-86195000D03*
X190395000Y-86195000D03*
D46*
X184305000Y-85120000D03*
X190085000Y-85120000D03*
%TD*%
D47*
%TO.C,H6*%
X203050000Y-84125000D03*
X204300000Y-84125000D03*
D48*
X201200000Y-80775000D03*
X206150000Y-80775000D03*
%TD*%
D49*
%TO.C,XT1*%
X207945000Y-101315000D03*
D50*
X207945000Y-96315000D03*
%TD*%
D16*
%TO.C,C24*%
X183617752Y-90026720D03*
X184296574Y-89347898D03*
%TD*%
D51*
%TO.C,F7*%
X208286750Y-109890453D03*
X208286750Y-111465455D03*
%TD*%
D32*
%TO.C,R51*%
X201075000Y-92105000D03*
X202095000Y-92105000D03*
%TD*%
D52*
%TO.C,D15*%
X167222499Y-87984999D03*
X167222499Y-86085001D03*
X164947499Y-87035000D03*
%TD*%
D14*
%TO.C,C30*%
X180035686Y-82239843D03*
X180714508Y-82918665D03*
%TD*%
D53*
%TO.C,F23*%
X173070686Y-86150000D03*
X173070686Y-85180000D03*
%TD*%
D54*
%TO.C,H3*%
X162165000Y-88590000D03*
X162165000Y-87340000D03*
X162165000Y-86090000D03*
X162165000Y-84840000D03*
D55*
X158815000Y-90440000D03*
X158815000Y-82990000D03*
%TD*%
D56*
%TO.C,D12*%
X191808337Y-91194460D03*
X190968337Y-91194460D03*
%TD*%
D57*
%TO.C,D19*%
X174985000Y-85325000D03*
X174985000Y-86165000D03*
%TD*%
D58*
%TO.C,D22*%
X209894999Y-87867500D03*
X207995001Y-87867500D03*
X208945000Y-90142500D03*
%TD*%
D59*
%TO.C,F20*%
X162690000Y-111045000D03*
X163660000Y-111045000D03*
%TD*%
D13*
%TO.C,R6*%
X179759914Y-85909726D03*
X180481162Y-85188478D03*
%TD*%
D47*
%TO.C,H5*%
X167010000Y-83965000D03*
X168260000Y-83965000D03*
X169510000Y-83965000D03*
X170760000Y-83965000D03*
D48*
X165160000Y-80615000D03*
X172610000Y-80615000D03*
%TD*%
D54*
%TO.C,H2*%
X197835000Y-109065000D03*
X197835000Y-107815000D03*
X197835000Y-106565000D03*
D55*
X194485000Y-110915001D03*
X194485000Y-104714999D03*
%TD*%
D60*
%TO.C,F19*%
X167000000Y-95095000D03*
X166030000Y-95095000D03*
%TD*%
D11*
%TO.C,F5*%
X209728250Y-86202501D03*
X209728250Y-84627499D03*
%TD*%
D51*
%TO.C,F8*%
X206761750Y-109880453D03*
X206761750Y-111455455D03*
%TD*%
D61*
%TO.C,R37*%
X168955000Y-85915001D03*
X168955000Y-86934999D03*
%TD*%
D59*
%TO.C,F15*%
X190919328Y-93117267D03*
X191889328Y-93117267D03*
%TD*%
D31*
%TO.C,C63*%
X200555000Y-86825000D03*
X201515000Y-86825000D03*
%TD*%
D62*
%TO.C,D27*%
X166150000Y-97015000D03*
X166990000Y-97015000D03*
%TD*%
D54*
%TO.C,H1*%
X197835000Y-91025000D03*
X197835000Y-89775000D03*
X197835000Y-88525000D03*
D55*
X194485000Y-92875001D03*
X194485000Y-86674999D03*
%TD*%
D62*
%TO.C,D29*%
X162935000Y-113005000D03*
X163775000Y-113005000D03*
%TD*%
D63*
%TO.C,D31*%
X202235000Y-96669999D03*
X202235000Y-100970001D03*
%TD*%
D32*
%TO.C,R49*%
X200955000Y-110175000D03*
X201975000Y-110175000D03*
%TD*%
D41*
%TO.C,J7*%
X163615000Y-94135000D03*
D40*
X163615000Y-96675000D03*
%TD*%
D31*
%TO.C,C47*%
X184599142Y-113969142D03*
X185559142Y-113969142D03*
%TD*%
D58*
%TO.C,D23*%
X208494999Y-105897500D03*
X206595001Y-105897500D03*
X207545000Y-108172500D03*
%TD*%
D64*
%TO.C,F2*%
X165892501Y-89547964D03*
X164317499Y-89547964D03*
%TD*%
D59*
%TO.C,F16*%
X190868753Y-92144532D03*
X191838753Y-92144532D03*
%TD*%
D65*
%TO.C,C51*%
X190085000Y-113975000D03*
X189125000Y-113975000D03*
%TD*%
D56*
%TO.C,D11*%
X191869327Y-94097269D03*
X191029327Y-94097269D03*
%TD*%
D41*
%TO.C,J4*%
X161115000Y-94135000D03*
D40*
X161115000Y-96675000D03*
%TD*%
D11*
%TO.C,F6*%
X208213927Y-86199879D03*
X208213927Y-84624877D03*
%TD*%
D33*
%TO.C,R33*%
X178815085Y-112783543D03*
X178815085Y-111763545D03*
%TD*%
D59*
%TO.C,F21*%
X162690000Y-112045000D03*
X163660000Y-112045000D03*
%TD*%
D41*
%TO.C,J5*%
X158545000Y-94135000D03*
D40*
X158545000Y-96675000D03*
%TD*%
D66*
%TO.C,Y1*%
X178469444Y-85107160D03*
X179706881Y-83869723D03*
X178716932Y-82879774D03*
X177479495Y-84117211D03*
%TD*%
D60*
%TO.C,F18*%
X167010000Y-96045000D03*
X166040000Y-96045000D03*
%TD*%
D57*
%TO.C,D21*%
X172095000Y-85325000D03*
X172095000Y-86165000D03*
%TD*%
D67*
%TO.C,H7*%
X204300000Y-113515000D03*
X203050000Y-113515000D03*
D68*
X206150000Y-116865000D03*
X201200000Y-116865000D03*
%TD*%
D62*
%TO.C,D30*%
X162925000Y-110105000D03*
X163765000Y-110105000D03*
%TD*%
D26*
%TO.C,C50*%
X179782156Y-112752331D03*
X179782156Y-111792331D03*
%TD*%
D47*
%TO.C,H9*%
X195980000Y-84125000D03*
X197230000Y-84125000D03*
D48*
X194130000Y-80775000D03*
X199080000Y-80775000D03*
%TD*%
D14*
%TO.C,C31*%
X176846633Y-85428895D03*
X177525455Y-86107717D03*
%TD*%
D69*
%TO.C,C69*%
X191045382Y-111405001D03*
X191045382Y-108454999D03*
%TD*%
D53*
%TO.C,F22*%
X174060686Y-86160001D03*
X174060686Y-85190001D03*
%TD*%
D67*
%TO.C,H4*%
X170760000Y-113625000D03*
X169510000Y-113625000D03*
X168260000Y-113625000D03*
X167010000Y-113625000D03*
D68*
X172610000Y-116975000D03*
X165160000Y-116975000D03*
%TD*%
D64*
%TO.C,F1*%
X165892502Y-91067964D03*
X164317500Y-91067964D03*
%TD*%
D62*
%TO.C,D26*%
X166110000Y-94105000D03*
X166950000Y-94105000D03*
%TD*%
D67*
%TO.C,H8*%
X197230000Y-113515000D03*
X195980000Y-113515000D03*
D68*
X199080000Y-116865000D03*
X194130000Y-116865000D03*
%TD*%
D31*
%TO.C,C61*%
X200605000Y-104805000D03*
X201565000Y-104805000D03*
%TD*%
D70*
%TO.C,R4*%
X210000000Y-105190000D03*
X210000000Y-106840000D03*
%TD*%
M02*
