%TF.GenerationSoftware,KiCad,Pcbnew,10.0.1-1-gbb48a3fe96*%
%TF.CreationDate,2026-08-02T19:48:24+08:00*%
%TF.ProjectId,HPM5361___,48504d35-3336-4313-9ba7-7f2e6b696361,rev?*%
%TF.SameCoordinates,Original*%
%TF.FileFunction,Soldermask,Bot*%
%TF.FilePolarity,Negative*%
%FSLAX46Y46*%
G04 Gerber Fmt 4.6, Leading zero omitted, Abs format (unit mm)*
G04 Created by KiCad (PCBNEW 10.0.1-1-gbb48a3fe96) date 2026-08-02 19:48:24*
%MOMM*%
%LPD*%
G01*
G04 APERTURE LIST*
G04 Aperture macros list*
%AMRoundRect*
0 Rectangle with rounded corners*
0 $1 Rounding radius*
0 $2 $3 $4 $5 $6 $7 $8 $9 X,Y pos of 4 corners*
0 Add a 4 corners polygon primitive as box body*
4,1,4,$2,$3,$4,$5,$6,$7,$8,$9,$2,$3,0*
0 Add four circle primitives for the rounded corners*
1,1,$1+$1,$2,$3*
1,1,$1+$1,$4,$5*
1,1,$1+$1,$6,$7*
1,1,$1+$1,$8,$9*
0 Add four rect primitives between the rounded corners*
20,1,$1+$1,$2,$3,$4,$5,0*
20,1,$1+$1,$4,$5,$6,$7,0*
20,1,$1+$1,$6,$7,$8,$9,0*
20,1,$1+$1,$8,$9,$2,$3,0*%
%AMFreePoly0*
4,1,9,2.350000,2.000000,2.100000,2.000000,2.100000,-1.100000,-2.100000,-1.100000,-2.100000,2.000000,-2.350000,2.000000,-2.350000,3.500000,2.350000,3.500000,2.350000,2.000000,2.350000,2.000000,$1*%
G04 Aperture macros list end*
%ADD10RoundRect,0.212500X-0.212500X-0.262500X0.212500X-0.262500X0.212500X0.262500X-0.212500X0.262500X0*%
%ADD11RoundRect,0.212500X0.262500X-0.212500X0.262500X0.212500X-0.262500X0.212500X-0.262500X-0.212500X0*%
%ADD12RoundRect,0.200000X0.200000X0.275000X-0.200000X0.275000X-0.200000X-0.275000X0.200000X-0.275000X0*%
%ADD13RoundRect,0.225000X0.250000X-0.225000X0.250000X0.225000X-0.250000X0.225000X-0.250000X-0.225000X0*%
%ADD14RoundRect,0.112500X-0.112500X0.187500X-0.112500X-0.187500X0.112500X-0.187500X0.112500X0.187500X0*%
%ADD15RoundRect,0.135000X-0.226274X-0.035355X-0.035355X-0.226274X0.226274X0.035355X0.035355X0.226274X0*%
%ADD16RoundRect,0.140000X0.219203X0.021213X0.021213X0.219203X-0.219203X-0.021213X-0.021213X-0.219203X0*%
%ADD17RoundRect,0.150000X-0.150000X0.512500X-0.150000X-0.512500X0.150000X-0.512500X0.150000X0.512500X0*%
%ADD18C,1.050000*%
%ADD19R,1.050000X1.050000*%
%ADD20RoundRect,0.075000X-0.350000X-0.075000X0.350000X-0.075000X0.350000X0.075000X-0.350000X0.075000X0*%
%ADD21R,1.600000X2.400000*%
%ADD22RoundRect,0.135000X-0.135000X-0.185000X0.135000X-0.185000X0.135000X0.185000X-0.135000X0.185000X0*%
%ADD23RoundRect,0.250000X-0.325000X-0.650000X0.325000X-0.650000X0.325000X0.650000X-0.325000X0.650000X0*%
%ADD24RoundRect,0.140000X-0.021213X0.219203X-0.219203X0.021213X0.021213X-0.219203X0.219203X-0.021213X0*%
%ADD25RoundRect,0.250000X-0.650000X0.325000X-0.650000X-0.325000X0.650000X-0.325000X0.650000X0.325000X0*%
%ADD26RoundRect,0.140000X0.170000X-0.140000X0.170000X0.140000X-0.170000X0.140000X-0.170000X-0.140000X0*%
%ADD27RoundRect,0.140000X-0.170000X0.140000X-0.170000X-0.140000X0.170000X-0.140000X0.170000X0.140000X0*%
%ADD28RoundRect,0.135000X-0.185000X0.135000X-0.185000X-0.135000X0.185000X-0.135000X0.185000X0.135000X0*%
%ADD29RoundRect,0.250001X0.999999X-0.499999X0.999999X0.499999X-0.999999X0.499999X-0.999999X-0.499999X0*%
%ADD30RoundRect,0.140000X0.021213X-0.219203X0.219203X-0.021213X-0.021213X0.219203X-0.219203X0.021213X0*%
%ADD31RoundRect,0.135000X0.185000X-0.135000X0.185000X0.135000X-0.185000X0.135000X-0.185000X-0.135000X0*%
%ADD32RoundRect,0.162500X-0.344715X-0.574524X0.574524X0.344715X0.344715X0.574524X-0.574524X-0.344715X0*%
%ADD33RoundRect,0.075000X-0.075000X0.350000X-0.075000X-0.350000X0.075000X-0.350000X0.075000X0.350000X0*%
%ADD34R,2.400000X1.600000*%
%ADD35R,2.500000X1.500000*%
%ADD36RoundRect,0.062500X-0.062500X0.375000X-0.062500X-0.375000X0.062500X-0.375000X0.062500X0.375000X0*%
%ADD37RoundRect,0.175000X-0.175000X-0.400000X0.175000X-0.400000X0.175000X0.400000X-0.175000X0.400000X0*%
%ADD38FreePoly0,0.000000*%
%ADD39C,0.900000*%
%ADD40C,1.700000*%
%ADD41R,1.700000X1.700000*%
%ADD42O,1.000000X1.800000*%
%ADD43O,1.000000X2.100000*%
%ADD44C,0.650000*%
%ADD45RoundRect,0.760000X1.140000X-1.140000X1.140000X1.140000X-1.140000X1.140000X-1.140000X-1.140000X0*%
%ADD46C,3.800000*%
%ADD47RoundRect,0.062500X-0.117500X-0.062500X0.117500X-0.062500X0.117500X0.062500X-0.117500X0.062500X0*%
%ADD48RoundRect,0.225000X-0.225000X-0.250000X0.225000X-0.250000X0.225000X0.250000X-0.225000X0.250000X0*%
%ADD49RoundRect,0.150000X-0.512500X-0.150000X0.512500X-0.150000X0.512500X0.150000X-0.512500X0.150000X0*%
%ADD50RoundRect,0.135000X0.135000X0.185000X-0.135000X0.185000X-0.135000X-0.185000X0.135000X-0.185000X0*%
%ADD51RoundRect,0.140000X-0.219203X-0.021213X-0.021213X-0.219203X0.219203X0.021213X0.021213X0.219203X0*%
%ADD52RoundRect,0.150000X-0.150000X0.587500X-0.150000X-0.587500X0.150000X-0.587500X0.150000X0.587500X0*%
%ADD53RoundRect,0.250000X0.925000X1.500000X-0.925000X1.500000X-0.925000X-1.500000X0.925000X-1.500000X0*%
%ADD54RoundRect,0.140000X0.140000X0.170000X-0.140000X0.170000X-0.140000X-0.170000X0.140000X-0.170000X0*%
%ADD55RoundRect,0.250000X0.335876X-0.866206X0.866206X-0.335876X-0.335876X0.866206X-0.866206X0.335876X0*%
%ADD56RoundRect,0.112500X0.187500X0.112500X-0.187500X0.112500X-0.187500X-0.112500X0.187500X-0.112500X0*%
%ADD57RoundRect,0.218750X0.218750X0.256250X-0.218750X0.256250X-0.218750X-0.256250X0.218750X-0.256250X0*%
%ADD58RoundRect,0.218750X-0.218750X-0.256250X0.218750X-0.256250X0.218750X0.256250X-0.218750X0.256250X0*%
%ADD59RoundRect,0.150000X-0.587500X-0.150000X0.587500X-0.150000X0.587500X0.150000X-0.587500X0.150000X0*%
%ADD60RoundRect,0.250000X0.650000X-0.325000X0.650000X0.325000X-0.650000X0.325000X-0.650000X-0.325000X0*%
%ADD61RoundRect,0.135000X-0.035355X0.226274X-0.226274X0.035355X0.035355X-0.226274X0.226274X-0.035355X0*%
%ADD62RoundRect,0.135000X0.035355X-0.226274X0.226274X-0.035355X-0.035355X0.226274X-0.226274X0.035355X0*%
%ADD63RoundRect,0.250000X0.625000X-0.312500X0.625000X0.312500X-0.625000X0.312500X-0.625000X-0.312500X0*%
%ADD64RoundRect,0.147500X-0.147500X-0.172500X0.147500X-0.172500X0.147500X0.172500X-0.147500X0.172500X0*%
%ADD65RoundRect,0.150000X0.150000X-0.512500X0.150000X0.512500X-0.150000X0.512500X-0.150000X-0.512500X0*%
%ADD66RoundRect,0.225000X0.225000X0.250000X-0.225000X0.250000X-0.225000X-0.250000X0.225000X-0.250000X0*%
G04 APERTURE END LIST*
D10*
%TO.C,L6*%
X188365467Y-114905736D03*
X188365467Y-113355736D03*
X191215467Y-113355736D03*
X191215467Y-114905736D03*
%TD*%
D11*
%TO.C,L4*%
X209361208Y-91524606D03*
X207811208Y-91524606D03*
X207811208Y-88674606D03*
X209361208Y-88674606D03*
%TD*%
D12*
%TO.C,R15*%
X173793405Y-111177890D03*
X175443405Y-111177890D03*
%TD*%
D13*
%TO.C,C66*%
X172186031Y-113866445D03*
X172186031Y-115416445D03*
%TD*%
D14*
%TO.C,D10*%
X169420893Y-104702341D03*
X169420893Y-106802341D03*
%TD*%
D15*
%TO.C,R5*%
X176428958Y-107647107D03*
X175707710Y-106925859D03*
%TD*%
D13*
%TO.C,C65*%
X177287892Y-113816595D03*
X177287892Y-115366595D03*
%TD*%
D16*
%TO.C,C4*%
X176412823Y-106255133D03*
X177091645Y-106933955D03*
%TD*%
D17*
%TO.C,U13*%
X173800001Y-112827500D03*
X174750000Y-112827500D03*
X175699999Y-112827500D03*
X175699999Y-115102500D03*
X174750000Y-115102500D03*
X173800001Y-115102500D03*
%TD*%
D16*
%TO.C,C36*%
X174162488Y-106750980D03*
X173483666Y-106072158D03*
%TD*%
D18*
%TO.C,J2*%
X159072000Y-110138001D03*
X159072000Y-108868001D03*
X159072000Y-107598001D03*
X159072000Y-106328001D03*
X159072000Y-105058001D03*
X160342000Y-105058001D03*
X160342000Y-106328001D03*
X160342000Y-107598001D03*
X160342000Y-108868001D03*
D19*
X160342000Y-110138001D03*
%TD*%
D20*
%TO.C,U9*%
X201690000Y-92580000D03*
X201690000Y-91930000D03*
X201690000Y-91280000D03*
X201690000Y-90630000D03*
X204590000Y-90630000D03*
X204590000Y-91280000D03*
X204590000Y-91930000D03*
X204590000Y-92580000D03*
D21*
X203140000Y-91605000D03*
%TD*%
D16*
%TO.C,C38*%
X172245589Y-97345589D03*
X172924411Y-98024411D03*
%TD*%
D22*
%TO.C,R31*%
X162454999Y-107605000D03*
X161435001Y-107605000D03*
%TD*%
D23*
%TO.C,C75*%
X168001346Y-109015041D03*
X165051344Y-109015041D03*
%TD*%
D24*
%TO.C,C11*%
X182000417Y-93991162D03*
X182679239Y-93312340D03*
%TD*%
%TO.C,C42*%
X180620087Y-92610158D03*
X181298909Y-91931336D03*
%TD*%
D25*
%TO.C,C68*%
X165395046Y-114198654D03*
X165395046Y-111248654D03*
%TD*%
D16*
%TO.C,C35*%
X171499878Y-103940086D03*
X172178700Y-104618908D03*
%TD*%
D24*
%TO.C,C10*%
X181314523Y-93305269D03*
X181993345Y-92626447D03*
%TD*%
D26*
%TO.C,C52*%
X197215000Y-97395000D03*
X197215000Y-98355000D03*
%TD*%
D27*
%TO.C,C56*%
X205925000Y-90455000D03*
X205925000Y-89495000D03*
%TD*%
D16*
%TO.C,C37*%
X175328665Y-94017158D03*
X176007487Y-94695980D03*
%TD*%
D28*
%TO.C,R28*%
X167847131Y-95029557D03*
X167847131Y-94009559D03*
%TD*%
D29*
%TO.C,L2*%
X169032525Y-112024346D03*
X169032523Y-115724348D03*
%TD*%
D22*
%TO.C,R32*%
X162454999Y-108615001D03*
X161435001Y-108615001D03*
%TD*%
D30*
%TO.C,C18*%
X184031163Y-94671421D03*
X183352341Y-95350243D03*
%TD*%
D31*
%TO.C,R24*%
X168957574Y-95142219D03*
X168957574Y-96162217D03*
%TD*%
D30*
%TO.C,C27*%
X183352340Y-93992599D03*
X182673518Y-94671421D03*
%TD*%
D32*
%TO.C,U6*%
X173955169Y-87580800D03*
X173057143Y-86682774D03*
X172159118Y-85784749D03*
X171261092Y-84886723D03*
X166187601Y-89960214D03*
X167085627Y-90858240D03*
X167983652Y-91756265D03*
X168881678Y-92654291D03*
%TD*%
D24*
%TO.C,C34*%
X179934193Y-91924267D03*
X180613015Y-91245445D03*
%TD*%
D33*
%TO.C,U11*%
X185864602Y-108019673D03*
X186514601Y-108019673D03*
X187164603Y-108019673D03*
X187814602Y-108019673D03*
X187814602Y-110919673D03*
X187164603Y-110919673D03*
X186514601Y-110919673D03*
X185864602Y-110919673D03*
D34*
X186839602Y-109469673D03*
%TD*%
D27*
%TO.C,C54*%
X197215000Y-100255000D03*
X197215000Y-99295000D03*
%TD*%
D35*
%TO.C,U14*%
X204214601Y-110280826D03*
D36*
X202964602Y-111718326D03*
X203464601Y-111718326D03*
X203964601Y-111718326D03*
X204464601Y-111718326D03*
X204964601Y-111718326D03*
X205464600Y-111718326D03*
X205464600Y-108843326D03*
X204964601Y-108843326D03*
X204464601Y-108843326D03*
X203964601Y-108843326D03*
X203464601Y-108843326D03*
X202964602Y-108843326D03*
%TD*%
D37*
%TO.C,Q1*%
X203996749Y-101050000D03*
X202726750Y-101050000D03*
X201456750Y-101050000D03*
X200186751Y-101050000D03*
D38*
X202091750Y-98325000D03*
%TD*%
D39*
%TO.C,KEY2*%
X192355000Y-117120000D03*
X188105000Y-117120000D03*
%TD*%
%TO.C,KEY1*%
X186690000Y-117115000D03*
X182440000Y-117115000D03*
%TD*%
D40*
%TO.C,J3*%
X158535001Y-99435000D03*
X161075000Y-99435000D03*
D41*
X163615000Y-99435000D03*
%TD*%
D42*
%TO.C,J1*%
X182875000Y-81440000D03*
D43*
X182875000Y-85620000D03*
D42*
X191515000Y-81440000D03*
D43*
X191515000Y-85620000D03*
D44*
X184305000Y-85120000D03*
X190085000Y-85120000D03*
%TD*%
D45*
%TO.C,XT1*%
X207945000Y-101315000D03*
D46*
X207945000Y-96315000D03*
%TD*%
D41*
%TO.C,J7*%
X163615000Y-94135000D03*
D40*
X163615000Y-96675000D03*
%TD*%
D41*
%TO.C,J4*%
X161115000Y-94135000D03*
D40*
X161115000Y-96675000D03*
%TD*%
D41*
%TO.C,J5*%
X158545000Y-94135000D03*
D40*
X158545000Y-96675000D03*
%TD*%
D47*
%TO.C,D16*%
X192161427Y-107185418D03*
X191321427Y-107185418D03*
%TD*%
D48*
%TO.C,C71*%
X201249999Y-114755000D03*
X202799999Y-114755000D03*
%TD*%
D49*
%TO.C,D24*%
X192855698Y-115001704D03*
X192855698Y-113101706D03*
X195130698Y-114051705D03*
%TD*%
D47*
%TO.C,D14*%
X192161427Y-104265418D03*
X191321427Y-104265418D03*
%TD*%
D12*
%TO.C,R16*%
X179023187Y-112283447D03*
X177373187Y-112283447D03*
%TD*%
D28*
%TO.C,R48*%
X205935000Y-91345001D03*
X205935000Y-92364999D03*
%TD*%
D22*
%TO.C,R55*%
X204564188Y-112937691D03*
X205584186Y-112937691D03*
%TD*%
D50*
%TO.C,RR1*%
X183865000Y-83625000D03*
X182845002Y-83625000D03*
%TD*%
D51*
%TO.C,C43*%
X181398665Y-104074438D03*
X182077487Y-104753260D03*
%TD*%
D22*
%TO.C,R29*%
X166660893Y-103197339D03*
X167680891Y-103197339D03*
%TD*%
D30*
%TO.C,C19*%
X172928356Y-100901499D03*
X173607178Y-100222677D03*
%TD*%
D50*
%TO.C,R38*%
X192200000Y-94160000D03*
X191180000Y-94160000D03*
%TD*%
D27*
%TO.C,C60*%
X200535000Y-91055000D03*
X200535000Y-92015000D03*
%TD*%
D22*
%TO.C,R20*%
X190725002Y-83805000D03*
X191745000Y-83805000D03*
%TD*%
D30*
%TO.C,C6*%
X177815025Y-110300552D03*
X178493847Y-109621730D03*
%TD*%
D52*
%TO.C,Q3*%
X165782660Y-104753394D03*
X167682660Y-104753394D03*
X166732660Y-106628395D03*
%TD*%
D49*
%TO.C,U5*%
X186012500Y-84469999D03*
X186012500Y-83520000D03*
X186012500Y-82570001D03*
X188287500Y-82570001D03*
X188287500Y-83520000D03*
X188287500Y-84469999D03*
%TD*%
D30*
%TO.C,C8*%
X176440832Y-108955722D03*
X177119654Y-108276900D03*
%TD*%
D28*
%TO.C,R56*%
X206027691Y-106595812D03*
X206027691Y-107615810D03*
%TD*%
D24*
%TO.C,C32*%
X185644411Y-90345589D03*
X184965589Y-91024411D03*
%TD*%
D53*
%TO.C,L8*%
X200812095Y-108563538D03*
X194762095Y-108563538D03*
%TD*%
D13*
%TO.C,C55*%
X180357889Y-115366595D03*
X180357889Y-113816595D03*
%TD*%
D48*
%TO.C,C74*%
X201260000Y-113235000D03*
X202810000Y-113235000D03*
%TD*%
D31*
%TO.C,R39*%
X190895000Y-96195000D03*
X190895000Y-95175002D03*
%TD*%
D50*
%TO.C,R53*%
X204992304Y-106064187D03*
X203972306Y-106064187D03*
%TD*%
D22*
%TO.C,R26*%
X161425001Y-106615000D03*
X162444999Y-106615000D03*
%TD*%
D54*
%TO.C,C62*%
X187693518Y-106636396D03*
X186733518Y-106636396D03*
%TD*%
D51*
%TO.C,C26*%
X172933899Y-96661751D03*
X173612721Y-97340573D03*
%TD*%
D55*
%TO.C,L1*%
X178693535Y-107964023D03*
X180213815Y-106443743D03*
%TD*%
D56*
%TO.C,D1*%
X202050001Y-102831750D03*
X199950001Y-102831750D03*
%TD*%
D57*
%TO.C,F4*%
X201102500Y-83675000D03*
X199527500Y-83675000D03*
%TD*%
D50*
%TO.C,R50*%
X187279748Y-112532470D03*
X186259750Y-112532470D03*
%TD*%
D56*
%TO.C,D9*%
X192245000Y-88310001D03*
X190145000Y-88310001D03*
%TD*%
D50*
%TO.C,R1*%
X200188249Y-104295000D03*
X199168251Y-104295000D03*
%TD*%
D31*
%TO.C,R54*%
X206435812Y-109842308D03*
X206435812Y-108822310D03*
%TD*%
D50*
%TO.C,R30*%
X165769106Y-103202659D03*
X164749108Y-103202659D03*
%TD*%
D51*
%TO.C,C25*%
X176134752Y-93170898D03*
X176813574Y-93849720D03*
%TD*%
D58*
%TO.C,F10*%
X195846407Y-115398690D03*
X197421409Y-115398690D03*
%TD*%
D59*
%TO.C,Q2*%
X166596703Y-98163026D03*
X166596703Y-96263026D03*
X168471704Y-97213026D03*
%TD*%
D16*
%TO.C,C22*%
X185712498Y-100910645D03*
X185033676Y-100231823D03*
%TD*%
D13*
%TO.C,C64*%
X178817893Y-115366596D03*
X178817893Y-113816596D03*
%TD*%
D59*
%TO.C,Q4*%
X193637499Y-93705000D03*
X193637499Y-91805000D03*
X195512500Y-92755000D03*
%TD*%
D60*
%TO.C,C72*%
X189772309Y-111489189D03*
X189772309Y-108539187D03*
%TD*%
D51*
%TO.C,C45*%
X182077488Y-103395615D03*
X182756310Y-104074437D03*
%TD*%
D61*
%TO.C,R19*%
X184963883Y-89648457D03*
X184242635Y-90369705D03*
%TD*%
D24*
%TO.C,C23*%
X185789247Y-96724897D03*
X185110425Y-97403719D03*
%TD*%
D62*
%TO.C,R36*%
X170870026Y-93370563D03*
X171591274Y-92649315D03*
%TD*%
D30*
%TO.C,C21*%
X177082354Y-105005498D03*
X177761176Y-104326676D03*
%TD*%
D63*
%TO.C,R40*%
X195315000Y-100277500D03*
X195315000Y-97352500D03*
%TD*%
D64*
%TO.C,F14*%
X191436426Y-105245417D03*
X192406426Y-105245417D03*
%TD*%
D58*
%TO.C,F9*%
X195846408Y-116918690D03*
X197421410Y-116918690D03*
%TD*%
D30*
%TO.C,C20*%
X176401502Y-104314178D03*
X177080324Y-103635356D03*
%TD*%
D65*
%TO.C,D25*%
X204674999Y-86542501D03*
X202775001Y-86542501D03*
X203725000Y-84267501D03*
%TD*%
D27*
%TO.C,C70*%
X202005001Y-111075000D03*
X202005001Y-112035000D03*
%TD*%
D57*
%TO.C,F3*%
X201112500Y-85165000D03*
X199537500Y-85165000D03*
%TD*%
D64*
%TO.C,F13*%
X191436428Y-106235416D03*
X192406428Y-106235416D03*
%TD*%
D50*
%TO.C,R3*%
X202111750Y-104285000D03*
X201091752Y-104285000D03*
%TD*%
D66*
%TO.C,C67*%
X204620000Y-107375000D03*
X203070000Y-107375000D03*
%TD*%
D60*
%TO.C,C73*%
X192127692Y-111470812D03*
X192127692Y-108520810D03*
%TD*%
D30*
%TO.C,C5*%
X177130919Y-109616446D03*
X177809741Y-108937624D03*
%TD*%
M02*
