%TF.GenerationSoftware,KiCad,Pcbnew,10.0.1-1-gbb48a3fe96*%
%TF.CreationDate,2026-08-02T19:48:24+08:00*%
%TF.ProjectId,HPM5361___,48504d35-3336-4313-9ba7-7f2e6b696361,rev?*%
%TF.SameCoordinates,Original*%
%TF.FileFunction,Profile,NP*%
%FSLAX46Y46*%
G04 Gerber Fmt 4.6, Leading zero omitted, Abs format (unit mm)*
G04 Created by KiCad (PCBNEW 10.0.1-1-gbb48a3fe96) date 2026-08-02 19:48:24*
%MOMM*%
%LPD*%
G01*
G04 APERTURE LIST*
%TA.AperFunction,Profile*%
%ADD10C,0.050000*%
%TD*%
G04 APERTURE END LIST*
D10*
X211100000Y-116820000D02*
G75*
G02*
X209100000Y-118820000I-2000000J0D01*
G01*
X210100000Y-80770000D02*
G75*
G02*
X208100000Y-80770000I-1000000J0D01*
G01*
X208100000Y-80770000D02*
G75*
G02*
X210100000Y-80770000I1000000J0D01*
G01*
X210100000Y-116820000D02*
G75*
G02*
X208100000Y-116820000I-1000000J0D01*
G01*
X208100000Y-116820000D02*
G75*
G02*
X210100000Y-116820000I1000000J0D01*
G01*
X159750000Y-116820000D02*
G75*
G02*
X157750000Y-116820000I-1000000J0D01*
G01*
X157750000Y-116820000D02*
G75*
G02*
X159750000Y-116820000I1000000J0D01*
G01*
X191500000Y-118820000D02*
X193115000Y-118820000D01*
X185820000Y-118820000D02*
X188965000Y-118820000D01*
X190961794Y-118390142D02*
X191249708Y-118390142D01*
X189216794Y-118390142D02*
X190961794Y-118390142D01*
X191251794Y-118390095D02*
X191500000Y-118820000D01*
X188966794Y-118820142D02*
X189213776Y-118392357D01*
X181925000Y-118820000D02*
X183285000Y-118820000D01*
X181925000Y-118820000D02*
X158750000Y-118820000D01*
X158750000Y-118820000D02*
G75*
G02*
X156750000Y-116820000I0J2000000D01*
G01*
X209100000Y-78820000D02*
G75*
G02*
X211100000Y-80820000I0J-2000000D01*
G01*
X156750000Y-80820000D02*
G75*
G02*
X158750000Y-78820000I2000000J0D01*
G01*
X211100000Y-80820000D02*
X211100000Y-116820000D01*
X156750000Y-116820000D02*
X156750000Y-80820000D01*
X209100000Y-118820000D02*
X193115000Y-118820000D01*
X158750000Y-78820000D02*
X209100000Y-78820000D01*
X159750000Y-80820000D02*
G75*
G02*
X157750000Y-80820000I-1000000J0D01*
G01*
X157750000Y-80820000D02*
G75*
G02*
X159750000Y-80820000I1000000J0D01*
G01*
X191990000Y-96260000D02*
X191990000Y-97260000D01*
X191990000Y-96260000D02*
G75*
G02*
X192990001Y-95260000I1000000J0D01*
G01*
X191990000Y-100260000D02*
X191990000Y-101260000D01*
X191990000Y-100260000D02*
G75*
G02*
X192490000Y-99760000I500000J0D01*
G01*
X192490000Y-97760000D02*
G75*
G02*
X191990000Y-97260000I0J500000D01*
G01*
X192490000Y-99760000D02*
G75*
G02*
X192990000Y-100260000I0J-500000D01*
G01*
X192990001Y-95260000D02*
X193990000Y-95260000D01*
X192990000Y-97260000D02*
G75*
G02*
X192490000Y-97760000I-500000J0D01*
G01*
X192990000Y-97260000D02*
G75*
G02*
X193990000Y-96260000I1000000J0D01*
G01*
X192990000Y-102260000D02*
G75*
G02*
X191990000Y-101260000I0J1000000D01*
G01*
X192990000Y-102260000D02*
X193990000Y-102260000D01*
X193990000Y-95260000D02*
G75*
G02*
X194490000Y-95760000I0J-500000D01*
G01*
X193990000Y-101260000D02*
G75*
G02*
X192990000Y-100260000I0J1000000D01*
G01*
X193990000Y-101260000D02*
G75*
G02*
X194490000Y-101760000I0J-500000D01*
G01*
X194490000Y-95760000D02*
G75*
G02*
X193990000Y-96260000I-500000J0D01*
G01*
X194490000Y-101760000D02*
G75*
G02*
X193990000Y-102260000I-500000J0D01*
G01*
X196490000Y-95760000D02*
G75*
G02*
X196990000Y-95260000I500000J0D01*
G01*
X196490000Y-101760000D02*
G75*
G02*
X196990000Y-101260000I500000J0D01*
G01*
X196990000Y-95260000D02*
X197990001Y-95260000D01*
X196990000Y-96260000D02*
G75*
G02*
X196490000Y-95760000I0J500000D01*
G01*
X196990000Y-96260000D02*
G75*
G02*
X197990000Y-97260000I0J-1000000D01*
G01*
X196990000Y-102260000D02*
G75*
G02*
X196490000Y-101760000I0J500000D01*
G01*
X196990000Y-102260000D02*
X197990000Y-102260000D01*
X197990001Y-95260000D02*
G75*
G02*
X198990000Y-96260000I-1J-1000000D01*
G01*
X197990000Y-97260000D02*
X197989999Y-100259999D01*
X197989999Y-100259999D02*
G75*
G02*
X196990000Y-101259999I-999999J-1D01*
G01*
X198990000Y-101260000D02*
G75*
G02*
X197990000Y-102260000I-1000000J0D01*
G01*
X198990000Y-101260000D02*
X198990000Y-96260000D01*
X185570000Y-118389953D02*
X185818206Y-118819858D01*
X183535000Y-118390000D02*
X185280000Y-118390000D01*
X185280000Y-118390000D02*
X185567914Y-118390000D01*
X183285000Y-118820000D02*
X183531982Y-118392215D01*
M02*
